<?xml version="1.0" encoding="UTF-8" standalone="no"?>
<!DOCTYPE svg PUBLIC "-//W3C//DTD SVG 1.1//EN" "http://www.w3.org/Graphics/SVG/1.1/DTD/svg11.dtd">
<svg width="100%" height="100%" viewBox="0 0 1596 429" version="1.1" xmlns="http://www.w3.org/2000/svg" xmlns:xlink="http://www.w3.org/1999/xlink" xml:space="preserve" xmlns:serif="http://www.serif.com/" style="fill-rule:evenodd;clip-rule:evenodd;stroke-linejoin:round;stroke-miterlimit:2;">
    <g transform="matrix(1,0,0,1,-157.400788,-14.148017)">
        <g transform="matrix(3.708945,0,0,3.708945,-1060.351972,-1211.68347)">
            <path id="path1-7" d="M455.484,445.74C452.535,444.366 452.425,438.534 455.287,435.307C457.026,433.346 460.983,432.049 462.568,432.921C463.01,433.165 463.455,433.366 463.555,433.369C463.656,433.372 463.707,432.111 463.668,430.568C463.536,425.276 464.648,419.899 465.868,419.931C468.429,419.997 469.08,425.473 467.38,432.648C466.637,435.78 466.638,435.857 467.41,437.704C468.415,440.11 469.057,440.265 470.816,438.527C473.304,436.069 473.5,435.231 471.605,435.164C471.506,435.161 471.226,434.786 470.983,434.332C469.429,431.431 473.767,427.793 475.89,430.216C476.428,430.83 477.046,431.337 477.264,431.342C478.272,431.368 478.593,432.308 478.196,434.067C477.037,439.196 477.735,440.881 480.562,439.785C481.459,439.437 481.474,439.405 481.493,437.862C481.547,433.214 486.727,428.668 489.334,430.98C489.794,431.388 490.29,431.601 490.608,431.526C491.892,431.226 492.232,432.473 491.784,435.844C491.189,440.327 493.074,441.053 495.177,437.151C495.433,436.675 495.702,435.551 495.775,434.652C496.014,431.717 496.788,430.627 498.024,431.483C498.751,431.987 498.731,431.846 498.559,435.266C498.4,438.43 498.642,438.778 500.212,437.643C501.493,436.718 501.883,435.889 502.095,433.644C502.471,429.675 504.774,430.016 504.67,434.025C504.576,437.672 505.256,439.682 506.478,439.365C508.796,438.764 511.554,433.819 509.6,433.769C506.615,433.691 505.378,431.016 507.363,428.93C509.63,426.548 511.834,426.738 512.339,429.361C512.536,430.384 512.791,430.349 513.225,429.239C513.911,427.485 516.542,426.45 517.567,427.529C518.603,428.62 518.461,429.61 517.088,430.877C515.619,432.232 515.551,432.676 516.578,434.174C517.505,435.526 517.836,435.563 519.149,434.461C520.822,433.056 522.076,432.239 522.54,432.251C523.213,432.269 523.049,432.814 522.111,433.681C521.643,434.114 520.849,435.099 520.347,435.87L519.435,437.271L520.049,438.566C521.131,440.844 520.756,441.754 518.28,442.859C514.457,444.566 512.964,442.784 515.098,439.062C516.186,437.165 516.197,437.119 515.688,436.742C515.403,436.531 514.804,435.709 514.357,434.916C513.281,433.004 512.906,433.049 512.321,435.162C510.836,440.521 505.61,443.351 503.328,440.032C502.402,438.685 502.343,438.675 500.855,439.628C499.303,440.622 498,440.826 497.019,440.229C496.288,439.784 496.24,439.791 495.413,440.452C493.332,442.117 491.835,442.185 490.408,440.682C489.105,439.31 489.034,439.315 487.415,440.876C485.558,442.665 484.386,442.941 482.989,441.919C481.986,441.184 481.947,441.178 481.034,441.584C477.853,443.002 475.805,442.04 475.321,438.901C475.126,437.64 474.99,437.649 473.801,438.999C470.871,442.325 467.401,442.652 465.987,439.735C465.461,438.651 465.095,438.775 463.868,440.455C462.502,442.326 460.837,443.868 458.781,445.165C457.036,446.266 456.726,446.32 455.484,445.74L455.484,445.74ZM459.198,442.453C462.858,439.65 464.051,437.448 462.782,435.835C460.457,432.882 454.86,436.781 455.324,441.031C455.687,444.352 456.385,444.608 459.198,442.453ZM517.991,440.739C518.359,440.319 518.211,439.55 517.76,439.538C517.606,439.534 517.371,439.796 517.239,440.12C516.85,441.074 517.343,441.48 517.991,440.739ZM487.888,437.533C488.574,436.626 489.009,435.766 489.021,435.296C489.129,431.156 484.332,433.216 483.765,437.553C483.368,440.59 485.585,440.579 487.888,437.533L487.888,437.533ZM473.992,433.11C473.996,432.965 473.88,432.843 473.734,432.839C473.589,432.835 473.467,432.951 473.463,433.096C473.459,433.242 473.575,433.364 473.72,433.368C473.866,433.372 473.988,433.256 473.992,433.11ZM510.499,431.277C510.648,430.312 510.204,429.917 509.415,430.314C508.755,430.645 508.502,431.326 508.888,431.733C509.269,432.135 510.417,431.81 510.499,431.277ZM466.599,426.963C466.75,425.781 466.741,425.209 466.574,425.375C466.43,425.516 466.221,426.523 466.109,427.612C465.857,430.061 466.275,429.508 466.599,426.963L466.599,426.963ZM548.976,440.017C547.884,436.769 547.838,428.502 548.905,427.383C550.543,425.664 551.576,427.311 551.095,430.877C550.494,435.321 550.552,438.685 551.225,438.48C551.661,438.347 556.278,432.029 556.487,431.279C556.794,430.176 557.434,429.45 558.085,429.467C559.266,429.498 559.556,430.25 559.704,433.659C559.906,438.298 561.009,440.162 563.08,439.366C563.847,439.072 563.876,439.007 563.705,437.972C562.946,433.368 564.293,430.909 568.148,429.857C571.531,428.933 571.588,433.345 568.247,437.497C567.2,438.799 567.31,438.97 569.22,439.019C572.347,439.101 572.488,439.026 572.75,437.164C573.306,433.223 577.605,429.1 579.886,430.321C580.27,430.527 580.666,430.739 580.765,430.791C580.865,430.844 581.144,430.528 581.386,430.088C582.571,427.936 583.658,429.482 583.57,433.193C583.414,439.707 586.099,440.325 589.443,434.543C590.332,433.006 590.285,432.81 588.953,432.525C585.362,431.754 585.381,429.166 588.988,427.664C591.93,426.439 593.157,427.007 592.983,429.515C592.929,430.289 593.069,431.103 593.358,431.696C593.611,432.217 593.884,433.3 593.963,434.103C594.253,437.015 595,438.894 595.877,438.917C597.86,438.968 598.062,440.419 596.207,441.287C594.236,442.21 593.75,441.784 592.035,437.626L591.373,436.021L590.65,436.922C589.437,438.436 587.832,439.739 586.317,440.442L584.874,441.111L583.932,440.575C583.38,440.26 582.578,439.383 581.995,438.456L581.001,436.874L579.889,438.037C577.545,440.486 575.282,441.565 573.986,440.85C573.388,440.519 572.946,440.483 571.752,440.668C569.919,440.952 567.1,440.951 566.006,440.666C565.41,440.511 564.89,440.596 564.089,440.979C560.91,442.499 558.596,440.78 557.545,436.119C557.21,434.636 557.149,434.673 555.081,437.594C553.556,439.75 553.131,440.166 551.731,440.874C549.617,441.944 549.624,441.946 548.976,440.016L548.976,440.017ZM576.748,437.033C577.675,436.261 578.745,434.543 578.779,433.775C578.828,432.653 576.279,434.056 575.553,435.55C574.454,437.814 574.998,438.491 576.748,437.033ZM567.076,435.676C568.67,433.483 568.814,432.344 567.413,433.023C566.451,433.489 565.794,434.623 565.761,435.873C565.729,437.116 566.066,437.066 567.076,435.676ZM722.239,442.329C718.519,440.85 711.551,434.001 709.157,429.472C703.259,418.31 708.668,407.497 723.907,399.987C726.629,398.646 726.555,398.701 726.415,398.1C726.268,397.473 725.639,397.409 724.89,397.945C723.112,399.218 719.429,399.565 718.162,398.579L717.324,397.926L715.71,398.383C713,399.15 712.163,398.964 710.416,397.205L709.451,396.233L708.25,397.034C704.876,399.283 699.56,398.73 697.831,395.949C697.146,394.847 696.639,394.681 696.366,395.469C696.266,395.757 696.002,395.988 695.778,395.983C695.555,395.977 694.788,396.47 694.074,397.08C689.804,400.723 686.153,397.875 688.121,392.435C689.432,388.809 694.148,387.434 695.374,390.32C695.793,391.306 696.065,390.452 695.838,388.863C695.108,383.759 695.447,374.56 696.45,372.229C697.953,368.737 700.649,369.178 701.218,373.009C702.041,378.552 701.669,382.377 699.741,388.19C698.63,391.537 698.545,392.162 698.978,393.757C699.517,395.74 702.093,397.84 701.653,395.936C701.051,393.337 701.41,391.858 703.177,389.658C704.808,387.626 709.352,386.38 710.455,387.661C712.266,389.763 712.843,390.934 712.5,391.811C711.399,394.625 712.419,396.971 714.593,396.621C716.274,396.351 717.041,395.463 717.409,393.365C717.944,390.303 719.226,388.964 720.478,390.158C721.112,390.762 721.083,391.491 720.336,393.738C719.319,396.8 720.037,397.707 722.65,396.663C725.081,395.691 726.457,393.527 726.534,390.553C726.567,389.256 727.338,387.616 727.985,387.465C728.677,387.303 729.882,388.499 729.633,389.101C728.831,391.039 728.71,397.101 729.473,397.121C730.044,397.136 733.059,395.522 733.682,394.868C734.245,394.277 735.419,394.185 735.902,394.694C736.753,395.591 735.607,397.545 734.25,397.509C732.023,397.452 728.803,400.232 728.996,402.047C729.071,402.754 729.18,403.869 729.24,404.526C729.578,408.271 728.736,440.05 728.268,441.185C727.566,442.891 724.918,443.393 722.239,442.329L722.239,442.329ZM726.146,440.463C726.835,439.74 727.305,401.815 726.635,401.046C726.403,400.78 722.909,402.465 720.183,404.159C707.247,412.193 705.02,423.606 714.425,433.663C716.296,435.663 717.488,436.713 720.551,439.056C722.614,440.635 725.331,441.318 726.146,440.463ZM692.547,395.437C693.984,394.421 694.387,393.639 694.031,392.553C693.244,390.152 690.245,391.671 690.171,394.509C690.113,396.753 690.482,396.897 692.547,395.437ZM706.208,395.443C707.819,394.883 709.536,392.808 709.573,391.378C709.613,389.829 708.644,389.591 706.479,390.617C703.117,392.21 702.87,396.604 706.208,395.443ZM698.669,386.066C699.876,382.912 700.277,379.303 699.823,375.685C699.496,373.079 699.322,372.624 698.81,373.027C697.792,373.828 697.388,377.947 697.688,384.453C697.835,387.633 697.979,387.871 698.669,386.066ZM604.414,436.421C604.005,435.228 604.698,434.381 606.052,434.416C607.543,434.455 608.197,435.936 606.968,436.491C605.646,437.089 604.633,437.061 604.414,436.415L604.414,436.421ZM657.555,437.702C652.745,436.045 648.551,429.04 647.926,421.621C647.162,412.539 652.409,404.631 662.18,400.14C663.229,399.658 664.096,399.115 664.107,398.933C664.134,398.487 663.577,398.502 662.875,398.967C661.878,399.628 659.157,400.133 658.528,399.775C658.187,399.581 657.362,399.51 656.342,399.585C654.303,399.737 653.107,399.17 652.372,397.703C651.762,396.484 651.535,396.456 650.509,397.474C648.587,399.382 644.973,400.136 644.613,398.705C644.135,396.805 644.85,390.461 645.59,390.03C646.545,389.473 648.252,392.241 647.629,393.336C647.107,394.254 646.857,396.567 647.278,396.578C647.962,396.596 649.687,395.001 651.21,392.944C653.008,390.515 653.063,390.475 653.88,391.042C654.491,391.465 654.516,391.605 654.447,394.255C654.364,397.449 654.674,398.093 656.316,398.136C657.416,398.164 657.428,398.147 657.815,396.084C658.376,393.096 661.043,389.638 663.433,388.8C664.181,388.538 665.174,388.862 665.16,389.366C665.157,389.501 665.498,390.024 665.917,390.528C666.634,391.389 666.687,391.622 666.782,394.378C666.914,398.156 666.939,398.194 668.662,397.183C670.203,396.28 670.837,396.198 671.433,396.826C672.41,397.855 671.3,399.075 669.121,399.365C668.459,399.454 667.94,399.715 667.688,400.087C667.267,400.71 667.263,400.577 667.939,408.362C669.601,427.514 668.77,435.148 664.761,437.548C663.329,438.404 659.813,438.48 657.555,437.702L657.555,437.702ZM664.265,435.167C666.679,432.585 667.02,428 666,411.885C665.71,407.301 665.063,401.854 664.744,401.307C664.36,400.648 660.096,402.743 657.29,404.969C649.612,411.062 647.509,420.265 651.773,429.117C654.734,435.265 661.231,438.412 664.265,435.167ZM661.675,397.162C662.901,396.367 663.416,395.409 663.456,393.847C663.501,392.12 663.147,392.098 661.541,393.727C659.286,396.016 659.388,398.643 661.675,397.161L661.675,397.162ZM471.771,407.989C465.221,404.548 472.867,392.042 480.075,394.407L481.105,394.745L481.007,396.747C480.677,403.474 481.359,405.124 483.956,403.881C486.647,402.592 487.48,401.206 486.458,399.716C485.164,397.828 485.789,395.001 487.889,393.252C490.645,390.956 492.464,393.856 490.804,397.898C489.688,400.616 491.171,401.189 493.384,398.895C495.177,397.039 498.726,394.58 499.582,394.602C500.669,394.63 500.094,395.565 497.702,397.659C494.623,400.354 494.286,401.096 495.712,402.048C498.493,403.906 497.83,405.965 493.85,407.827C491.249,409.044 490.022,407.773 490.438,404.294L490.631,402.679L489.795,402.331C489.011,402.005 488.925,402.028 488.411,402.706C486.031,405.846 481.615,407.811 480.053,406.426C479.049,405.536 478.966,405.539 477.695,406.509C475.332,408.313 473.337,408.812 471.771,407.989L471.771,407.989ZM475.358,405.914C476.889,405.01 478.248,403.628 478.106,403.121C477.797,402.026 477.266,398.696 477.285,397.977C477.343,395.739 472.963,398.418 472.046,401.18C470.794,404.955 472.604,407.542 475.358,405.914ZM494.485,405.192L495.244,404.553L494.597,404.01C493.386,402.994 492.475,403.589 492.827,405.165C493.012,405.99 493.527,405.998 494.485,405.192L494.485,405.192ZM489.06,396.91C489.3,396.003 488.819,395.93 488.391,396.809C488.029,397.551 488.269,398.69 488.646,398.024C488.768,397.809 488.954,397.307 489.06,396.91ZM341.96,401.666C341.82,401.389 341.642,400.64 341.563,400.001C341.484,399.362 341.273,398.185 341.093,397.385C340.914,396.586 340.782,395.362 340.8,394.665C340.838,393.203 340.362,393.017 338.499,393.76C337.952,393.978 336.816,394.367 335.975,394.625C335.134,394.883 334.003,395.379 333.461,395.726C332.92,396.073 332.324,396.353 332.136,396.348C331.949,396.343 331.554,396.631 331.258,396.987C330.179,398.289 328.285,397.551 328.329,395.846C328.349,395.11 330.762,394.123 337.92,391.927C340.805,391.041 340.788,391.063 341.227,387.626C341.537,385.198 342.096,384.335 343.159,384.643C344.306,384.975 344.563,385.673 344.327,387.813C344.078,390.059 344.067,390.051 346.218,389.079C347.094,388.683 347.164,388.548 347.794,386.035C349.39,379.661 353.937,376.699 356.091,380.631C357.502,383.207 355.389,386.695 351.097,388.872C349.89,389.485 349.79,389.614 349.565,390.845C348.966,394.125 349.066,398.111 349.737,397.72C350.053,397.536 353.118,393.691 353.54,392.949C353.897,392.322 355.188,392.246 355.643,392.824C355.849,393.086 355.862,394.067 355.686,396.095C355.406,399.323 355.519,399.611 356.825,398.978C357.58,398.612 357.64,398.481 357.675,397.128C357.794,392.515 363.789,388.892 364.501,393.002C364.759,394.49 364.129,395.829 362.339,397.599L360.665,399.254L361.276,399.775C361.994,400.388 363.017,400.456 363.954,399.952C365.408,399.17 367.106,399.992 365.863,400.876C363.222,402.756 360.843,402.841 359.127,401.116L358.45,400.436L356.784,401.087C354.224,402.088 353.337,401.705 352.973,399.441L352.809,398.427L351.557,399.559C350.032,400.936 348.083,402.137 347.658,401.962C347.197,401.771 346.806,397.81 346.897,394.269C346.988,390.762 347.06,390.847 344.86,391.865C342.861,392.79 342.609,394.967 343.955,399.699C344.164,400.432 344.335,401.059 344.336,401.093C344.346,401.58 342.179,402.102 341.959,401.666L341.96,401.666ZM362.234,394.827C362.247,394.326 361.336,394.381 360.857,394.91C360.318,395.505 360.038,396.261 360.232,396.594C360.419,396.915 362.221,395.324 362.234,394.827L362.234,394.827ZM352.474,386.033C354.566,384.533 355.198,383.348 354.506,382.229C353.382,380.413 350.09,383.427 350.014,386.341C349.981,387.608 350.34,387.563 352.474,386.033ZM382.207,402.372C377.744,399.349 380.417,392.644 386.879,390.647C388.708,390.082 388.716,390.068 388.993,386.971C389.452,381.839 391.338,378.538 393.046,379.878C394.486,381.008 394.088,390.755 392.423,395.128C391.529,397.474 391.994,399.925 393.47,400.644C394.278,401.038 395.889,400.184 395.761,399.431C395.167,395.94 396.01,393.718 398.487,392.236C400.4,391.091 401.968,391.566 402.585,393.478C402.82,394.206 401.737,397.05 400.807,398.147C398.637,400.708 401.265,401.081 404.69,398.697L406.115,397.705L405.464,396.89C404.301,395.432 404.816,394.324 406.855,393.9C408.254,393.609 408.259,393.594 408.236,389.12C408.207,383.566 408.716,381.919 410.201,382.764C411.207,383.336 411.344,384.079 411.234,388.341L411.128,392.441L411.922,392.428C412.359,392.42 413.321,392.342 414.06,392.254C415.13,392.126 415.489,392.183 415.821,392.532C416.361,393.101 416.515,393.091 417.247,392.438C418.024,391.746 420.6,390.961 421.398,391.174C422.994,391.601 425.61,395.621 424.538,396C423.726,396.288 423.665,399.63 424.458,400.465C425.751,401.827 428.92,397.913 429.1,394.731C429.36,390.14 431.952,390.621 431.832,395.239C431.73,399.182 432.706,400.504 434.823,399.287C436.473,398.339 436.596,397.926 436.334,394.228C435.858,387.514 437.644,380.13 439.806,379.872C440.845,379.749 440.979,380.38 440.994,385.447C441.008,390.43 440.898,391.3 439.707,395.657C438.961,398.385 439.488,400.995 440.788,401.015C441.648,401.028 444.533,397.97 444.363,397.225C443.703,394.32 444.296,392.63 446.421,391.358C449.729,389.378 450.685,391.127 448.61,395.361L447.667,397.284L448.81,398.693C449.891,400.028 450.957,402.076 450.951,402.808C450.94,404.05 448.236,404.411 446.268,403.431C444.259,402.432 444.01,400.639 445.984,401.385C447.88,402.101 448.371,401.584 447.054,400.255L446.281,399.476L445.118,400.628C442.2,403.52 439.094,403.754 437.667,401.189C437.153,400.264 436.483,400.16 435.782,400.895C434.395,402.35 431.659,402.283 430.598,400.77C429.905,399.781 429.694,399.754 428.798,400.544C425.484,403.462 422.963,403.679 421.974,401.129C421.546,400.024 421.387,400.032 419.442,401.259C416.62,403.039 414.769,403.143 414.211,401.552C413.873,400.589 413.577,400.525 412.857,401.259C412.498,401.625 411.637,402.181 410.942,402.497C409.336,403.225 409.167,403.038 408.879,400.199C408.625,397.69 408.586,397.675 406.643,399.36C403.57,402.026 400.901,402.852 398.325,401.935C397.052,401.482 397.005,401.485 395.766,402.103C393.43,403.269 392.041,402.88 390.501,400.63L389.958,399.836L388.377,400.881C385.032,403.094 383.732,403.409 382.207,402.375L382.207,402.372ZM386.797,399.686C388.889,398.17 389.3,397.555 388.951,396.463C388.802,395.998 388.691,395.229 388.703,394.753C388.751,392.909 387.822,392.534 385.516,393.467C382.823,394.557 381.498,397.465 382.631,399.802C383.402,401.393 384.48,401.363 386.797,399.686ZM418.03,400.043C421.445,398.155 423.077,393.971 420.36,394.068C417.826,394.159 414.987,398.519 416.341,400.24C416.759,400.77 416.704,400.776 418.03,400.043ZM412.976,399.416C413.581,399.442 413.708,399.309 413.868,398.494C414.066,397.496 414.682,395.922 415.331,394.759C415.859,393.812 415.879,393.83 414.463,393.976C411.87,394.243 411.076,394.854 410.94,396.69C410.792,398.687 411.143,399.862 411.806,399.584C412.062,399.477 412.588,399.401 412.976,399.416ZM399.482,396.593C400.908,394.557 400.429,393.61 398.77,395.185C398.179,395.745 397.928,396.23 397.912,396.839C397.871,398.428 398.237,398.371 399.482,396.593ZM391.976,390.041C392.387,387.746 392.487,384.944 392.159,384.936C391.524,384.919 390.649,390.043 391.011,391.662C391.255,392.752 391.594,392.183 391.976,390.041L391.976,390.041ZM439.572,389.705C439.687,388.525 439.7,387.215 439.602,386.794L439.425,386.028L439.151,386.683C438.789,387.548 438.403,392.041 438.637,392.667C438.933,393.461 439.33,392.204 439.572,389.705L439.572,389.705ZM532.16,404.653C531.497,404.06 530.931,402.95 530.765,401.912C530.553,400.595 530.153,400.493 528.81,401.414C528.192,401.838 527.246,402.312 526.707,402.468C526.169,402.624 525.149,403.095 524.442,403.515C520.023,406.139 516.598,401.555 518.532,395.604C519.427,392.85 522.961,390.469 524.981,391.259C525.479,391.454 526.267,391.541 526.783,391.458C528.302,391.213 528.651,392.098 528.552,395.937C528.507,397.653 528.55,399.058 528.646,399.061C529.332,399.078 530.673,396.684 531.37,394.194C531.882,392.364 532.526,391.8 533.407,392.41C534.174,392.942 534.167,395.135 533.39,397.003C532.553,399.018 533.075,402.881 534.188,402.91C535.681,402.948 538.778,399.182 539.124,396.908C539.373,395.272 540.128,393.329 540.577,393.17C541.716,392.766 542.545,394.19 542.121,395.825C541.522,398.136 542.15,401.344 543.282,401.754C543.592,401.866 545.245,400.402 545.941,399.398C546.337,398.825 546.322,398.715 545.719,397.775C544.644,396.099 545.054,394.508 546.987,392.853C549.566,390.645 550.687,391.91 549.815,396.043C549.518,397.447 549.527,397.852 549.876,398.793C550.1,399.4 550.27,400.43 550.254,401.082C550.218,402.464 551.007,402.74 552.28,401.791C553.272,401.052 554.696,401.143 554.984,401.965C555.59,403.692 554.511,404.434 551.478,404.375C548.762,404.323 548.185,404.002 547.81,402.332C547.485,400.884 547.545,400.889 546.07,402.179C543.627,404.317 541.936,404.476 540.74,402.683C539.754,401.203 539.601,401.191 538.287,402.476C536.134,404.582 533.234,405.613 532.16,404.653L532.16,404.653ZM523.086,402.112C523.173,401.979 522.871,401.286 522.414,400.572C521.66,399.393 521.59,399.099 521.65,397.357C521.686,396.303 521.622,395.438 521.507,395.435C520.36,395.405 519.834,399.981 520.818,401.438C521.406,402.311 522.704,402.696 523.086,402.112ZM526.416,397.251C526.788,395.76 526.838,395.19 526.616,394.956C526.103,394.416 525.412,395.091 525.21,396.329C525.094,397.037 524.805,397.632 524.441,397.912C523.701,398.48 523.686,399.044 524.392,399.787L524.949,400.373L525.434,399.804C525.701,399.491 526.143,398.342 526.416,397.251L526.416,397.251ZM582.108,402.578C581.82,402.45 581.263,401.964 580.871,401.497L580.157,400.648L579,401.286C576.01,402.936 574.39,401.395 574.416,396.928C574.443,392.153 577.068,388.072 578.331,390.843C579.001,392.316 579.103,392.729 578.941,393.313C578.811,393.776 578.547,393.992 578.055,394.038C576.479,394.185 575.92,400.022 577.478,400.062C578.427,400.087 579.645,398.419 579.861,396.801C580.224,394.085 581.548,391.433 582.528,391.459C583.518,391.484 583.902,392.393 583.451,393.642C581.904,397.927 582.133,400.809 583.989,400.394C585.287,400.103 587.325,395.704 587.577,392.648C587.705,391.093 587.731,391.116 586.204,391.437C584.985,391.694 585.031,390.403 586.285,389.151C587.675,387.764 589.401,388.306 589.483,390.156C589.791,397.107 585.622,404.129 582.108,402.578L582.108,402.578ZM593.006,402.31C588.717,400.903 588.315,395.272 592.265,391.944C595.406,389.297 598.118,389.776 597.898,392.937C597.738,395.233 595.477,398.372 593.411,399.166C590.576,400.255 594.767,401.093 599.257,400.335L600.738,400.085L600.775,397.928C600.856,393.13 606.466,388.642 609.019,391.331C610.413,392.799 609.877,394.493 608.337,393.485C606.304,392.155 602.704,395.448 603.089,398.285C603.561,401.76 609.179,398.273 610.394,393.75C610.494,393.379 610.299,391.408 609.962,389.372C608.415,380.038 610.047,373.38 613.859,373.479C615.506,373.522 615.398,378.916 613.571,387.876C612.811,391.603 612.803,392.596 613.513,395.053C614.71,399.189 616.768,399.249 617.808,395.176C618.678,391.771 620.905,389.805 624.537,389.234L626.131,388.984L626.131,387.941C626.13,387.367 626.081,385.158 626.022,383.031C625.892,378.387 626.26,376.247 627.489,374.493C631.145,369.272 633.141,379.96 630.574,391.011C629.652,394.978 629.638,395.556 630.422,397.208C631.6,399.69 633.754,397.794 634.13,393.945C634.463,390.539 635.891,389.033 637.129,390.783C637.562,391.396 637.583,391.614 637.293,392.508C636.091,396.216 637.38,398.127 639.708,396.09C641.134,394.843 641.551,394.975 641.157,396.551C640.622,398.698 637.755,400.217 635.8,399.391C634.859,398.992 634.729,398.989 634.409,399.355C633.891,399.949 632.041,400.669 631.08,400.651C630.245,400.64 629.869,400.289 628.589,398.359C628.009,397.485 627.919,397.49 626.65,398.461C623.611,400.785 619.965,401.517 618.545,400.088L617.757,399.294L616.637,399.768C614.479,400.681 613.541,400.283 612.266,397.915C611.544,396.573 610.99,396.206 610.968,397.055C610.908,399.366 604.004,402.782 602.239,401.373C601.527,400.805 600.942,400.841 599.447,401.545C598.727,401.883 597.749,402.209 597.272,402.269C595.247,402.525 593.706,402.539 593.006,402.31L593.006,402.31ZM623.694,398.026C625.683,397.251 625.788,397.049 625.677,394.201L625.581,391.733L624.361,391.881C621.676,392.206 620.32,393.641 620.253,396.23C620.183,398.913 620.711,399.188 623.694,398.026L623.694,398.026ZM593.749,396.09C594.894,395.16 595.696,394.015 595.715,393.283C595.741,392.28 592.904,393.927 592.104,395.38C591.149,397.115 592.022,397.492 593.749,396.09ZM629.45,389.036C629.924,387.608 630.335,379.841 630.006,378.529C628.971,374.405 627.889,378.011 628.21,384.515C628.492,390.233 628.746,391.158 629.45,389.036ZM612.785,383.349C613.391,379.178 613.45,377.174 612.968,377.161C611.891,377.134 611.311,380.773 611.672,385.295C611.865,387.716 612.248,387.048 612.785,383.349L612.785,383.349ZM426.214,387.346C426.217,387.241 426.515,386.971 426.878,386.746C427.24,386.522 427.792,385.931 428.104,385.432C429.19,383.696 432.02,385.19 430.972,386.946C430.563,387.633 426.197,388 426.214,387.346ZM431.756,386.046C431.949,385.975 432.177,385.99 432.262,386.08C432.348,386.17 432.19,386.229 431.912,386.21C431.604,386.189 431.543,386.125 431.756,386.046L431.756,386.046ZM571.399,388.319C571.332,388.205 571.114,387.105 570.913,385.875C570.713,384.645 570.334,382.97 570.071,382.153C569.56,380.562 568.713,373.047 568.776,370.647C568.796,369.847 568.617,368.013 568.377,366.572C568.137,365.131 567.88,363.295 567.806,362.492C567.519,359.369 567.52,359.37 565.302,360.986C562.864,362.764 562.826,362.943 564.542,364.626C566.753,366.793 566.348,368.033 563.159,368.864C559.138,369.911 556.643,367.656 558.477,364.633C559.102,363.602 558.994,363.233 557.65,361.802C555.507,359.521 555.444,357.513 557.452,355.524C561.487,351.529 565.755,353.397 563.777,358.294C563.45,359.102 563.234,359.816 563.296,359.881C563.494,360.09 566.826,357.952 567.732,357.035C568.442,356.315 568.736,356.183 569.286,356.336C569.764,356.47 570.141,356.379 570.559,356.028C573.268,353.758 576.138,353.973 578.593,356.629L579.68,357.804L580.557,357.43C582.725,356.507 583.657,356.419 584.476,357.058C584.894,357.384 585.44,357.656 585.689,357.663C586.778,357.691 587.078,358.432 586.864,360.57C586.634,362.875 587.208,365.167 588.062,365.354C589.536,365.678 591.652,361.768 591.828,358.395C591.927,356.501 592.478,355.456 593.364,355.479C594.395,355.506 594.564,355.998 594.493,358.753C594.35,364.249 596.067,366.577 599.001,364.867C600.038,364.263 600.043,364.245 599.545,362.959C598.688,360.749 599.467,357.355 601.076,356.285C605.383,353.422 607.044,355.011 605.025,360.063C603.846,363.014 603.827,363.316 604.828,363.234C606.503,363.095 608.561,362.238 609.408,361.327C610.332,360.332 610.961,360.215 611.847,360.87C612.563,361.4 612.571,361.958 611.867,362.373C611.571,362.547 611.326,362.839 611.321,363.022C611.316,363.206 611.045,363.349 610.717,363.34C610.39,363.332 609.339,363.671 608.382,364.094C606.214,365.052 604.12,365.551 602.449,365.508C601.485,365.483 600.943,365.635 600.276,366.117C597.443,368.164 594.796,367.662 592.964,364.733L592.543,364.06L591.675,365.041C589.055,368.002 585.93,368.068 585.06,365.181C584.713,364.033 584.731,364.032 583.327,365.26C580.825,367.45 578.794,367.985 577.785,366.721C576.995,365.731 577.195,365.727 575.314,366.769C574.454,367.245 573.211,367.772 572.551,367.941C570.847,368.379 570.798,369.095 572.088,374.778C572.337,375.877 572.652,377.671 572.788,378.767C572.924,379.862 573.183,381.417 573.364,382.222C573.544,383.027 573.75,384.611 573.822,385.741L573.952,387.797L572.993,388.168C571.913,388.587 571.574,388.619 571.399,388.319L571.399,388.319ZM562.599,367.086C563.408,366.692 563.394,366.718 563.101,366.135C562.381,364.7 560.458,364.79 560.42,366.259C560.391,367.383 561.29,367.724 562.599,367.086ZM574.612,365.039C578.803,363.341 578.507,356.682 574.235,356.572C571.82,356.509 570.562,358.523 570.695,362.237C570.845,366.419 570.975,366.512 574.612,365.039ZM581.556,364.06C584.542,361.635 584.422,358.491 581.395,359.839C580.581,360.202 580.416,360.447 580.009,361.909C579.116,365.109 579.539,365.697 581.556,364.06ZM560.819,361.085C560.825,360.848 561.07,360.287 561.363,359.839C562.865,357.544 562.421,355.729 560.473,356.2C558.299,356.725 557.792,358.708 559.39,360.431C560.473,361.6 560.801,361.751 560.819,361.085ZM603.2,359.777C604.073,357.615 603.885,357.314 602.437,358.56C601.799,359.11 601.602,359.507 601.551,360.347C601.411,362.663 602.135,362.412 603.2,359.777ZM638.367,387.723C637.896,386.392 638.657,383.695 639.595,383.376C640.239,383.156 641.393,384.507 642.12,386.332C642.648,387.656 641.867,388.236 640.856,387.272C640.458,386.893 640.377,386.915 639.962,387.513C639.45,388.252 638.594,388.365 638.367,387.723ZM357.6,365.76C354.652,363.315 356.721,355.897 360.743,354.486C364.511,353.164 363.813,360.724 359.946,363.125C359.162,363.612 359.15,364.229 359.925,364.249C360.401,364.262 364.197,362.108 365.908,360.855C367.018,360.043 367.373,361.47 366.315,362.487C363.099,365.576 359.162,367.055 357.6,365.76L357.6,365.76ZM360.684,358.659C361.173,357.77 361.173,357.665 360.679,357.652C360.208,357.64 359.192,359.112 359.172,359.838C359.154,360.492 360.067,359.78 360.684,358.659L360.684,358.659ZM337.931,364.668C336.301,362.841 335.365,354.122 336.414,350.539C336.583,349.961 336.794,349.153 336.884,348.743C337.345,346.634 339.225,347.799 338.94,350.017C338.104,356.514 338.477,362.767 339.702,362.799C340.87,362.829 343.917,357.031 344.666,353.35C345.315,350.163 345.579,349.813 346.808,350.512C347.81,351.08 347.795,350.918 347.129,353.939C346.388,357.306 347.182,362.331 348.459,362.364C349.672,362.394 352.424,356.06 353.165,351.534C353.428,349.922 353.798,347.718 353.986,346.636C354.456,343.931 354.587,336.692 354.19,335.384C353.603,333.451 352.417,333.597 350.024,335.898C347.724,338.109 347.871,335.469 350.177,333.153C354.713,328.599 357.302,334.403 355.735,345.614C355.461,347.572 355.071,350.361 354.869,351.811C353.905,358.726 352.21,362.432 349.085,364.455C347.619,365.404 345.552,364.039 345.207,361.895C344.939,360.228 344.178,360.491 342.912,362.688C341.811,364.6 338.901,365.756 337.931,364.668L337.931,364.668ZM374.298,365.747C372.367,363.492 371.918,354.503 373.738,354.55C375.302,354.59 375.572,355.493 375.331,359.887C375.202,362.242 375.749,364.244 376.352,363.617C377.437,362.487 378.984,359.826 379.171,358.77C379.69,355.829 381.282,354.205 382.374,355.502C382.736,355.931 382.723,356.148 382.238,357.814C380.963,362.199 381.815,364.851 384.139,363.725C385.333,363.146 385.618,362.694 385.45,361.65C385.132,359.67 386.518,356.006 387.942,355.063C390.962,353.062 392.347,358.397 389.671,361.721C388.05,363.735 388.797,364.181 392.407,363.356C393.298,363.152 394.144,363.062 394.287,363.155C396.261,364.447 389.479,366.657 387.182,365.471L385.977,364.848L384.802,365.383C382.523,366.418 381.658,366.357 380.445,365.079C379.204,363.773 379.117,363.751 378.443,364.564C377.306,365.935 375.018,366.588 374.298,365.747L374.298,365.747ZM388.859,359.552C389.505,358.186 389.345,357.685 388.568,358.644C388.094,359.229 387.789,360.737 388.144,360.746C388.225,360.748 388.546,360.211 388.859,359.552ZM419.605,366.621C417.377,365.948 416.678,359.546 418.464,356.18C419.776,353.709 422.416,354.002 421.655,356.534C421.495,357.068 421.291,358.158 421.203,358.956C421.08,360.063 420.89,360.53 420.403,360.921C419.254,361.844 420.192,364.753 421.652,364.791C422.289,364.807 425.075,363.523 425.86,362.851C426.122,362.626 426.69,362.451 427.121,362.462C427.779,362.479 427.887,362.393 427.796,361.928C426.888,357.3 427.074,355.139 428.377,355.172C429.086,355.191 429.934,356.134 429.915,356.882C429.886,357.992 430.527,358.625 430.942,357.895C432.248,355.601 435.295,353.682 437.335,353.869C438.998,354.021 439.047,354.538 437.46,355.18C434.443,356.399 432.748,358.504 431.989,361.975C431.482,364.293 431.221,364.937 430.827,364.842C430.688,364.808 430.292,365.066 429.947,365.415C428.915,366.458 428.108,365.628 428.155,363.57C428.17,362.911 428.001,362.972 426.62,364.126C424.205,366.143 421.366,367.153 419.605,366.621ZM437.698,366.434C435.078,364.11 435.992,360.097 439.82,357.123C444.077,353.815 444.777,357.86 440.695,362.182C438.78,364.21 438.793,364.181 439.506,364.861C440.858,366.15 445.523,364.407 446.145,362.382C447.618,357.584 450.808,355.158 453.654,356.673C455.29,357.543 455.558,358.051 455.503,360.178C455.457,361.929 455.862,363.58 456.429,363.951C457.281,364.508 460.075,361.953 459.881,360.793C459.816,360.405 459.72,359.134 459.667,357.969C459.396,351.962 459.452,352.112 457.31,351.702C455.804,351.413 455.971,349.271 457.498,349.31C459.229,349.355 459.64,348.951 460.058,346.788C461.164,341.08 463.845,339.704 464.204,344.661C464.432,347.808 464.369,347.724 466.387,347.573C467.351,347.501 468.379,347.424 468.67,347.403C469.573,347.337 469.246,348.121 468.265,348.375C465.606,349.064 464.643,349.796 464.536,351.213C464.368,353.423 463.519,357.702 462.884,359.537C461.733,362.863 463.303,366.175 465.209,364.442C465.922,363.793 465.998,363.587 465.88,362.627C465.399,358.737 470.598,353.908 472.508,356.471L473.028,357.168L472.33,358.886C471.946,359.83 471.132,361.297 470.52,362.145C469.15,364.045 469.15,364.734 470.522,365.111C471.826,365.469 474.071,365.105 473.959,364.554C473.114,360.397 477.132,354.716 480.294,355.597L480.927,355.773L481.164,348.828C481.415,341.469 481.521,340.934 482.733,340.966C484.163,341.003 484.561,344.764 484.182,354.634C484.042,358.27 484.016,361.599 484.124,362.032L484.321,362.82L485.141,361.577C486.039,360.214 486.412,360.163 486.944,361.332C487.73,363.059 484.073,366.021 482.5,364.931C481.804,364.449 480.915,364.345 480.671,364.717C480.082,365.617 477.582,366.511 476.207,366.313C475.19,366.167 474.503,366.222 473.763,366.51C472.374,367.048 469.141,366.958 467.943,366.348C467.066,365.901 466.992,365.908 465.539,366.55C463.169,367.598 462.709,367.416 460.93,364.733L460.536,364.138L458.514,365.181C456.04,366.456 455.521,366.464 454.428,365.243C453.382,364.075 453.482,364.073 452.022,365.293C450.018,366.966 447.745,367.475 446.957,366.427C446.158,365.365 445.906,365.343 443.819,366.149C440.919,367.269 438.754,367.37 437.699,366.433L437.698,366.434ZM450.634,363.794C451.108,363.282 451.436,362.799 451.363,362.722C451.127,362.474 448.789,363.915 448.779,364.314C448.76,365.019 449.76,364.739 450.634,363.794ZM479.53,362.775C479.543,362.453 479.732,361.896 479.95,361.538C480.834,360.08 480.418,358.188 479.269,358.445C476.837,358.988 474.887,363.816 477.254,363.436C477.77,363.353 478.193,363.415 478.294,363.589C478.569,364.062 479.502,363.447 479.53,362.775ZM450.944,360.673C452.546,359.212 452.676,358.676 451.3,359.204C449.899,359.743 448.152,362.037 449.125,362.062C449.283,362.066 450.102,361.441 450.944,360.673ZM469.535,360.451C469.706,360.152 469.768,359.826 469.674,359.728C469.499,359.543 468.731,360.382 468.721,360.768C468.71,361.189 469.231,360.986 469.535,360.451ZM462.641,352.885C462.735,351.27 462.683,350.901 462.36,350.892C461.819,350.878 461.487,353.367 461.798,355.112C462.107,356.848 462.464,355.904 462.641,352.885ZM506.028,367.574C505.674,366.233 505.36,363.626 505.27,361.268C505.19,359.165 505.087,358.617 504.772,358.608C504.494,358.601 504.38,358.852 504.392,359.45C504.413,360.605 503.78,360.744 502.038,359.965C499.181,358.687 499.27,357.783 502.373,356.555C505.287,355.402 505.201,355.527 505.375,352.214C505.766,344.802 506.97,342.012 508.637,344.654C508.979,345.196 508.736,349.688 508.335,350.239C507.56,351.305 507.416,354.045 508.136,354.064C508.799,354.081 511.781,352.547 511.912,352.121C511.992,351.863 512.163,350.701 512.294,349.54C512.943,343.747 516.507,340.352 519.8,342.39C523.154,344.465 521.418,348.77 515.871,352.13C514.94,352.694 514.417,353.207 514.305,353.664C513.871,355.442 513.516,360.777 513.735,362.24L513.967,363.793L515.45,362.417C516.266,361.66 517.732,360.079 518.707,358.903C520.576,356.649 520.884,356.476 521.58,357.287C521.98,357.753 521.978,357.965 521.552,360.081C521.079,362.433 521.178,365.535 521.746,366.133C522.62,367.054 525.215,363.842 525.608,361.356C526.228,357.425 526.985,356.209 528.263,357.094C528.923,357.551 528.943,357.643 528.736,359.192C528.209,363.129 528.127,364.106 528.272,364.753C528.634,366.373 530.285,365.084 532.639,361.341C534.114,358.997 535.988,356.903 536.595,356.92C539.424,357.003 541.229,362.682 539.318,365.487C537.675,367.897 533.891,368.624 533.946,366.519C533.951,366.315 534.427,366.116 535.114,366.031C537.428,365.745 538.653,363.328 537.641,361.043C536.823,359.199 536.429,359.386 534.445,362.565C532.453,365.758 531.547,366.71 529.647,367.609C527.661,368.548 527.482,368.531 526.53,367.312L525.739,366.3L525.003,366.74C520.778,369.267 519.335,368.728 519.05,364.514C518.887,362.104 518.651,362.04 516.935,363.946C515.65,365.374 513.126,366.828 512.432,366.541C511.812,366.285 511.44,362.942 511.576,358.851C511.661,356.304 511.61,354.948 511.43,354.943C510.791,354.927 507.715,357.282 507.535,357.926C507.073,359.584 507.547,362.809 508.372,363.621C509.601,364.83 509.351,366.681 507.851,367.477C506.554,368.166 506.19,368.186 506.028,367.574ZM516.223,350.052C519.345,348.021 520.591,346.262 519.805,344.992C518.298,342.557 515.174,345.011 514.655,349.038C514.393,351.08 514.518,351.161 516.223,350.052ZM627.596,364.638C627.166,363.738 626.662,359.665 626.61,356.663C626.598,355.969 626.411,355.678 625.683,355.223C624.58,354.534 624.511,353.734 625.479,352.871L626.157,352.267L626.286,347.288C626.418,342.174 626.64,341.256 627.735,341.284C629.037,341.318 629.29,343.16 628.749,348.674L628.482,351.4L629.519,351.209C631.86,350.778 634.184,351.058 635.228,351.898L636.195,352.676L637.456,351.886C640.939,349.707 645.061,352.458 643.479,355.906C642.747,357.5 641.26,359.1 639.581,360.1C636.882,361.709 636.196,361.477 635.649,358.771C634.655,353.856 634.228,353.238 631.927,353.38C631.113,353.43 630.05,353.663 629.566,353.898L628.686,354.324L628.774,356.487C628.87,358.86 629.272,362.254 629.482,362.476C629.555,362.553 629.913,362.287 630.277,361.885C631.141,360.931 631.749,361.164 631.716,362.438C631.656,364.762 628.468,366.464 627.596,364.638ZM640.624,356.63C641.99,354.844 641.655,353.555 639.814,353.507C637.593,353.45 636.878,355.143 637.898,358.041L638.163,358.794L638.995,358.233C639.452,357.925 640.185,357.204 640.624,356.63ZM665.029,363.226C664.97,362.066 664.791,360.926 664.476,359.705C664.268,358.899 663.867,356.955 663.585,355.384C662.965,351.936 662.873,351.879 661.058,353.836L659.623,355.384L660.386,356.244C662.327,358.434 662.676,359.683 661.605,360.612C659.755,362.218 655.328,362.889 654.032,361.76C653.316,361.136 653.711,358.288 654.683,357.069C655.172,356.456 655.691,355.802 655.837,355.616C656.021,355.38 655.939,355.088 655.567,354.656C652.828,351.474 653.186,348.277 656.455,346.726C659.005,345.516 660.294,345.832 660.819,347.795C661.887,351.786 662.588,351.046 662.305,346.229C661.796,337.59 663.706,334.301 669.547,333.758C672.107,333.521 673.139,334.837 673.29,338.533C673.423,341.813 672.621,343.175 667.902,347.68L665.006,350.446L665.291,352.509C665.676,355.302 666.261,357.898 666.506,357.905C666.617,357.908 667.24,357.12 667.891,356.154C670.462,352.337 672.017,351.554 673.353,353.403C674.16,354.52 674.017,362.119 673.185,362.263C671.761,362.511 671.111,360.788 671.45,357.666C671.799,354.454 670.855,355.434 668.139,361.106C667.531,362.375 665.071,364.052 665.029,363.226L665.029,363.226ZM658.776,359.977C660.016,359.566 660.101,358.937 659.07,357.816C657.831,356.47 657.158,356.713 656.44,358.764C655.899,360.312 656.626,360.69 658.776,359.977ZM659.926,352.154L660.603,351.484L659.93,350.101C659.217,348.634 658.775,348.431 657.373,348.922C655.695,349.511 655.49,351.089 656.877,352.753L657.669,353.704L658.459,353.264C658.894,353.022 659.554,352.523 659.926,352.154ZM666.658,346.869C670.637,343.762 672.245,340.635 671.357,337.731C670.889,336.2 670.872,336.182 669.779,336.073C666.208,335.719 664.573,338.238 664.441,344.295C664.347,348.679 664.343,348.675 666.658,346.869ZM698.293,362.992C697.622,362.253 696.274,358.878 696.548,358.619C696.734,358.442 696.192,355.763 695.969,355.757C695.864,355.754 695.363,356.555 694.857,357.536C693.153,360.836 691.19,362.318 688.174,362.58L686.56,362.72L685.592,361.638L684.624,360.556L683.351,361.175C678.434,363.566 675.697,360.449 678.07,355.161C679.257,352.515 683.92,349.984 684.806,351.505C684.894,351.656 685.389,351.763 685.905,351.742C687.201,351.688 687.883,352.547 687.502,353.754C687.135,354.92 687.066,358.707 687.393,359.73C688.06,361.815 691.35,359.785 693.384,356.034C694.014,354.872 693.974,354.697 692.957,354.18C691.388,353.381 691.634,351.78 693.46,350.907C694.943,350.198 695.721,350.3 696.188,351.263C696.646,352.207 696.511,352.171 697.758,351.687C699.702,350.934 700.465,352.108 699.387,354.195C698.391,356.124 698.878,360.848 700.136,361.461C701.432,362.093 704.789,359.767 704.357,358.538C703.096,354.959 705.395,351.449 709.496,350.691C712.229,350.186 711.859,354.249 708.84,357.889C708.237,358.615 708.117,359.496 708.612,359.559C709.77,359.704 711.918,359.506 712.26,359.222C713.387,358.285 714.967,359.015 714.678,360.34C714.415,361.546 713.133,361.827 709.022,361.578L705.455,361.363L704.11,362.181C701.318,363.882 699.352,364.155 698.293,362.992L698.293,362.992ZM683.092,358.718C684.433,357.328 684.637,356.174 683.769,354.886C682.807,353.458 680.796,354.485 679.921,356.852C678.677,360.214 680.574,361.33 683.092,358.718ZM708.423,355.154C709.343,353.646 709.385,353.458 708.81,353.443C707.895,353.42 706.543,355.106 706.512,356.31L706.483,357.435L707.056,356.946C707.371,356.677 707.986,355.87 708.423,355.154L708.423,355.154ZM367.146,350.812C365.229,348.759 364.871,347.863 365.705,347.206C366.643,346.468 368.209,347.732 369.252,350.066C370.751,353.425 369.876,353.735 367.146,350.812ZM746.144,360.3C745.879,359.747 745.374,358.249 745.02,356.97C744.334,354.493 743.985,353.977 743.532,354.769C742.141,357.204 737.973,358.869 736.119,357.731C734.295,356.612 734.422,356.618 732.882,357.584C730.126,359.312 727.214,359.555 726.374,358.128C725.001,355.799 725.845,351.698 728.195,349.278C730.994,346.395 736.855,347.045 736.147,350.16C736.052,350.582 736.102,350.989 736.264,351.095C736.431,351.204 736.529,352.107 736.499,353.264L736.448,355.246L737.366,355.657C740.244,356.948 743.989,351.852 742.818,348.238C742.604,347.577 742.349,346.141 742.25,345.047C742.151,343.953 741.926,341.922 741.75,340.534C741.1,335.422 741.627,331.143 742.973,330.603C745.737,329.494 747.552,338.224 746.189,346.075C745.46,350.275 745.462,350.335 746.503,354.271C747.656,358.631 747.795,358.852 748.724,357.787C751.204,354.944 752.587,350.645 752.139,347.174C750.972,338.15 751.599,332.068 753.761,331.443C756.258,330.721 757.062,336.788 755.504,344.599C754.384,350.217 754.863,354.15 756.594,353.548C757.622,353.189 758.292,353.561 758.384,354.54C758.529,356.091 754.462,356.824 753.692,355.386C753.115,354.307 752.887,354.47 752.182,356.469C750.726,360.594 747.317,362.757 746.144,360.3L746.144,360.3ZM731.335,356.163C733.337,354.941 733.507,354.658 733.636,352.318C733.764,349.999 733.633,349.752 732.386,349.953C729.516,350.414 728.192,351.924 728.159,354.773C728.127,357.547 728.674,357.787 731.335,356.163ZM745,340.619C745.084,338.266 744.672,335.756 744.224,335.885C743.872,335.985 743.892,340.56 744.253,342.551C744.614,344.544 744.886,343.839 745,340.619L745,340.619ZM754.316,337.095C754.276,336.472 754.218,336.914 754.187,338.078C754.156,339.241 754.188,339.752 754.26,339.211C754.33,338.671 754.356,337.719 754.316,337.096L754.316,337.095ZM530.312,354.321C529.301,353.195 529.335,352.14 530.384,352.046C531.935,351.907 532.854,354.686 531.403,355.128C531.245,355.176 530.754,354.813 530.312,354.321L530.312,354.321Z" style="fill-rule:nonzero;"/>
        </g>
    </g>
</svg>
