<?xml version="1.0" encoding="UTF-8" standalone="no"?>
<!-- Created with Inkscape (http://www.inkscape.org/) -->

<svg
   width="285.75mm"
   height="285.75mm"
   viewBox="0 0 285.75 285.75"
   version="1.1"
   id="svg1"
   xml:space="preserve"
   xmlns="http://www.w3.org/2000/svg"
   xmlns:svg="http://www.w3.org/2000/svg"><defs
     id="defs1" /><g
     id="layer1"
     style="display:inline"
     transform="translate(-573.95188,-11.25)">
    
<g
   id="g5"><path
     id="path1-6-5"
     style="display:inline;fill:#000000;stroke-width:4.13666"
     d="m 768.83866,31.791237 c -0.7048,-0.02226 -1.6325,0.09601 -2.8196,0.379323 -8.6786,8.476245 -15.2938,19.526822 -23.1031,29.071524 -15.469,20.922684 -30.0824,42.471146 -45.4058,63.526996 -7.1436,10.29474 -12.6078,19.52339 -15.1228,22.64225 -26.2838,0.63114 -66.9575,6.5655 -87.70992,23.51162 -10.86301,8.66174 -10.49916,27.97791 3.53976,33.6368 8.67207,6.05628 31.66975,3.95466 41.87353,4.70104 -5.42157,7.84616 -7.36387,9.65963 -10.81735,14.52844 -9.48197,12.96248 -15.61999,26.27092 -28.21854,32.8007 -6.37767,7.22276 6.50576,6.63346 11.97693,0 3.38953,-4.07803 8.13202,-9.74726 10.40138,-13.25941 6.13152,-9.74127 18.34446,-26.0841 24.7195,-34.68387 7.68721,-1.47302 10.01191,-1.94353 20.79051,-5.24118 9.0613,-2.75125 20.6822,-9.1941 26.0254,-11.97985 5.7075,-2.97569 25.6296,-15.07513 28.7356,-14.64418 2.5298,1.083 12.5337,29.19248 12.5337,29.19248 0,0 -34.5173,16.50624 -41.3835,33.6368 -4.5408,11.90261 2.8395,23.15576 13.1231,29.2067 9.6573,5.68247 17.138,5.45694 28.2604,7.30445 7.49,1.24418 21.2687,-1.12498 29.8715,-3.95813 9.1359,-3.00866 17.0052,-8.77167 23.9695,-16.20738 8.995,-9.60398 16.2517,-21.04106 13.086,-39.47954 -1.4674,-12.34526 -10.1541,-25.68191 -12.6946,-30.32971 12.4884,-4.83702 19.6101,-7.44661 29.9843,-12.38768 9.5252,-4.53671 20.401,-10.44528 24.4719,-14.91244 5.039,-5.52951 -2.2522,-15.96402 -9.0892,-13.60555 -5.6582,1.95184 7.2315,4.27072 3.5566,10.82017 -2.9646,5.28353 -32.7347,17.32097 -52.2894,25.42121 -25.029,-27.50973 -27.4092,-21.48436 -9.2454,-33.43113 14.641,-11.99814 20.058,-20.45645 23.1992,-25.85398 5.3924,-10.48488 11.4445,-22.987788 7.304,-34.629678 -5.4175,-15.232472 -21.2109,-7.330774 -30.5032,-0.911111 -8.9645,6.469925 -16.6423,17.346659 -20.5843,29.363689 -4.1163,12.54859 -4.258,26.32821 -2.3155,37.03454 0.9332,0 -5.1256,2.41683 -14.6572,7.39009 -0.2237,-25.56413 0.3308,-51.50127 5.8623,-76.583037 2.6713,-11.956988 6.7676,-23.725988 13.9143,-34.164124 1.5706,-4.344267 15.573,-17.691648 8.76,-17.906842 z m -22.3993,32.889809 c -6.642,22.881806 -9.857,46.603894 -10.9409,70.382774 -0.1713,16.69189 0.7394,23.78317 0,27.58456 -4.353,2.26608 -11.1175,5.15321 -11.1175,5.15321 0,0 -4.7265,-4.38354 -9.4557,-7.60631 -16.3241,-10.0217 -20.7799,-10.97143 -25.2999,-12.14359 6.1215,-8.48075 9.9279,-15.86381 16.6629,-25.85398 6.7741,-10.04838 12.583,-20.16565 20.1222,-30.044588 7.2575,-8.631786 12.2227,-19.927486 20.0289,-27.472076 z m 49.1674,19.954013 c 3.3831,0.0343 6.8381,3.897238 7.7334,9.029533 0.5974,3.424486 0.5102,9.106098 -1.5982,14.145848 -3.6634,8.75635 -9.5692,18.83982 -16.0049,26.31977 -6.5191,7.57682 -15.1795,12.37073 -24.4709,16.46896 -5.4745,-0.46195 -2.5504,-24.33981 -1.2015,-28.40146 2.4535,-11.71781 10.2871,-24.568003 19.6958,-31.00177 4.1745,-2.854538 10.2078,-6.618091 15.8463,-6.560881 z m -135.5401,3.065243 c -5.1754,0.14304 -9.16519,11.64086 -8.96157,17.157518 -4.87949,0.95279 -17.44829,-2.95781 -17.39293,6.65709 3.04776,15.27797 23.1382,7.26261 29.1237,15.87718 3.284,2.417 7.3245,-0.51334 6.7594,-5.02151 -1.565,-3.59306 -0.798,-0.56319 -1.565,-3.59306 -2.1691,-8.56938 1.616,-20.139118 -3.4036,-28.146358 -0.9597,-1.53095 -3.1109,-2.97091 -4.56,-2.93086 z m 0,7.11591 c 5.8078,4.05528 2.9961,18.165258 2.7692,24.661028 -4.167,0.0244 -8.4925,-1.30522 -12.55627,-2.63812 -3.54531,-1.16285 -10.34655,-1.63535 -10.1894,-4.63349 0.2332,-4.44901 13.93787,-2.75695 15.74927,-1.19181 0.074,-0.13106 0.3349,-18.915388 4.2272,-16.197608 z m 18.3265,59.235898 c 0.8855,-0.74651 -8.1359,9.54981 -11.6659,16.28234 -8.2908,10.03687 -13.9541,23.57269 -21.76301,31.29443 -10.6202,0.8134 -23.80762,1.93158 -34.32261,-0.36825 -13.55903,-0.0771 -26.49381,-17.88155 -10.22308,-27.5012 3.61387,-2.98099 8.37636,-5.67194 13.65562,-7.49149 5.77175,-1.98925 10.07425,-3.89998 17.03283,-6.07266 12.89251,-4.02547 34.45085,-5.22112 47.28615,-6.14317 z m 7.8108,0 c 3.4214,0 8.7017,1.75191 12.1197,3.47975 3.8796,1.35549 15.7094,9.07896 20.3896,13.00303 -15.4443,10.59789 -31.7452,18.59674 -49.0179,25.67159 -5.4123,2.21689 -17.18433,4.90394 -17.26585,5.05415 5.73535,-9.06265 27.21675,-39.34758 33.77445,-47.20852 z m 64.3325,8.59627 c 3.3284,-1.45845 7.1863,-3.70668 7.9281,-2.61586 1.9004,2.79482 21.8429,24.1108 21.8429,24.1108 -0.2849,0.10531 -28.0268,12.09128 -34.3715,15.76433 l -3.02,1.35298 -2.6139,-32.25002 c 0,0 6.9443,-4.74859 10.2344,-6.36223 z m -15.4622,9.3432 -0.468,7.58418 c -2.1164,-1.7444 -3.2552,-3.4357 -3.9804,-5.06238 1.4504,-1.52477 4.4484,-2.5218 4.4484,-2.5218 z m 48.9187,16.95649 c 0,0 16.0938,22.0236 12.9978,38.31337 -3.8527,21.47584 -23.4744,36.68429 -43.8774,41.51868 -17.0417,2.48749 -35.9663,1.69016 -49.1687,-10.90131 -9.465,-8.76527 -6.4057,-21.3077 9.8654,-32.85892 8.1168,-5.76236 23.4725,-13.75935 23.4725,-13.75935 0,0 4.2836,20.43586 6.5144,28.82039 8.3854,3.82786 1.1309,-32.23254 1.1309,-32.23254 0,0 9.9193,-6.01212 19.6788,-10.11121 7.5717,-3.82487 19.3863,-8.78911 19.3863,-8.78911 z" /></g></g></svg>
