<?xml version="1.0" encoding="UTF-8" standalone="no"?>
<!-- Created with Inkscape (http://www.inkscape.org/) -->

<svg
   width="496.75711mm"
   height="120.93001mm"
   viewBox="0 0 496.75711 120.93001"
   version="1.1"
   id="svg1"
   xml:space="preserve"
   xmlns="http://www.w3.org/2000/svg"
   xmlns:svg="http://www.w3.org/2000/svg"><defs
     id="defs1" /><g
     id="layer1"
     transform="translate(127.41956,-35.641529)"><path
       d="m 22.782312,142.9774 c -0.562924,-1.44693 -0.5974,-3.55047 -0.355966,-21.70103 0.07218,-5.44757 -0.323279,-14.16955 -0.658106,-14.5044 -0.199818,-0.19972 -1.175516,0.0689 -1.734012,0.47712 -0.425647,0.31133 -0.44457,0.51293 -0.233192,2.48538 0.424771,3.96267 -0.945663,9.73992 -3.796334,16.00377 -1.811122,3.9795 -1.980417,4.24492 -4.59875,7.20669 -1.8264116,2.06597 -2.4472456,2.59283 -3.9038646,3.3127 -1.542706,0.76246 -1.945587,0.85577 -3.6863476,0.85377 -2.2146196,-0.002 -5.0209879,-0.68867 -6.4405458,-1.57475 -0.499626,-0.31186 -1.421481,-0.82068 -2.0486349,-1.13072 -1.646696,-0.81406 -4.5625963,-3.69878 -6.3211651,-6.01569 -0.843814,-1.11172 -1.33455,-2.45217 -1.964399,-3.69766 -0.386007,-0.76331 -0.780687,-1.52405 -1.111676,-2.31277 -0.184955,-0.44073 -0.369895,-0.88526 -0.487104,-1.34864 -0.476295,-1.883 -0.606663,-3.83731 -0.864402,-5.76244 -0.120133,-0.89731 -0.304905,-1.79207 -0.317808,-2.69729 -0.03567,-2.50258 0.245012,-5.0117 0.665717,-7.47892 0.141764,-0.83138 0.361371,-1.6505 0.623532,-2.45209 1.520362,-4.648735 3.629532,-10.891885 5.4855801,-13.609115 1.3550429,-1.98384 5.0595659,-5.58967 7.0626859,-6.87464 2.89118095,-1.85458 6.3966214,-3.3518 8.3107764,-3.54978 2.977836,-0.30787 4.1887576,0.43862 5.3982076,3.32766 1.11984,2.02839 1.170793,2.95314 0.598481,4.80337 -0.631368,2.04115 -2.6616176,0.91267 -6.7735366,2.84423 -3.211935,1.50882 -5.39503345,3.58276 -7.5322924,7.1555 -2.229909,3.727615 -4.3335999,10.118125 -4.6348879,14.079525 -0.2629331,3.45588 0.013566,7.97343 1.797839,11.37069 0.9395549,1.78891 3.1188929,3.49747 4.39227585,4.17788 0.680453,0.36355 1.43818395,0.52815 2.47393035,0.53726 1.3826792,0.0121 1.5798957,-0.0577 2.6677321,-0.94878 2.07135,-1.69623 3.422675,-3.85158 5.7769786,-9.21422 1.186465,-2.70264 1.555867,-5.05527 0.881555,-5.6149 -0.314733,-0.26101 -0.620485,-0.27216 -1.4864616,-0.0542 -1.769411,0.44557 -2.796547,0.33966 -4.033707,-0.41576 -1.9265308,-0.98569 -3.2186403,-2.21344 -3.0423262,-4.5476 0.3062207,-3.84041 5.2974612,-5.40581 9.1454208,-6.04254 1.162922,-0.192405 3.803205,-1.078015 4.264485,-1.430335 0.149496,-0.11441 0.768365,-0.4004 1.375318,-0.63588 0.606861,-0.2355 1.710387,-0.83953 2.452095,-1.3422 1.826012,-1.23762 4.36364,-2.47584 5.073804,-2.47584 1.642732,0 3.366176,1.51157 4.193744,3.67814 1.706786,4.468245 2.36897,10.909115 2.281276,22.191495 -0.107921,13.90493 -0.04253,18.70153 0.270411,19.79922 0.373854,1.31041 0.357547,4.81962 -0.02639,5.53571 -2.199556,4.10957 -7.465837,1.89512 -9.139936,-2.40792 z m -134.575472,2.82003 c -1.45702,-0.47713 -2.53101,-0.94748 -3.5703,-2.89966 -0.84698,-1.59101 -0.68383,-2.41702 -0.43151,-3.59845 0.20854,-0.97646 1.01654,-1.71899 1.54047,-2.56896 0.27024,-0.43841 0.57071,-0.85838 0.82677,-1.30522 0.57771,-1.00813 1.10227,-2.04707 1.59758,-3.09814 0.36733,-0.77949 0.701,-1.57497 1.01778,-2.37633 0.0724,-0.18313 0.12617,-0.37341 0.2016,-0.55531 0.26997,-0.65104 0.60245,-1.27439 0.89666,-1.91484 0.34705,-0.75547 0.70382,-1.50694 1.02456,-2.27395 0.11749,-0.28096 0.21799,-0.56873 0.32937,-0.85217 2.49651,-6.35296 5.05583,-13.68255 7.59633,-19.01657 1.055861,-2.21684 5.854631,-11.893155 6.384351,-12.873505 1.25859,-2.3291 1.57508,-3.34719 1.70482,-5.48468 0.13179,-2.16908 0.13451,-2.17633 1.11214,-3.03143 0.539,-0.4714 1.36625,-1.11749 1.83827,-1.43568 0.47198,-0.31815 1.299609,-0.90276 1.839092,-1.29911 0.909052,-0.66788 1.07886,-0.70695 2.321376,-0.53438 1.226891,0.1704 1.448747,0.30519 2.616757,1.59055 1.225772,1.34875 1.282748,1.47405 1.438636,3.16359 0.126041,1.3678 0.07587,1.92279 -0.224561,2.49478 -0.537805,1.02284 -0.492301,1.52897 0.311113,3.46255 0.779414,1.87583 1.141699,2.87366 1.636312,4.50676 0.46348,1.53036 0.936602,2.97708 2.365596,7.233675 0.679141,2.02299 1.385076,4.17471 1.568848,4.78158 0.832612,2.74966 1.436973,3.48455 2.02909,5.27205 0.257659,0.77782 0.447185,1.57663 0.661252,2.36756 0.559479,2.06716 0.52826,3.07442 1.628538,6.21476 0.655603,1.87103 1.351561,3.58434 2.027228,5.37655 0.171748,0.45556 0.338771,0.91293 0.515186,1.36671 0.245229,0.63078 0.530834,1.24614 0.755153,1.88466 0.220409,0.62739 0.390581,1.27133 0.579225,1.90899 0.116173,0.39269 0.216315,0.79018 0.340316,1.18047 0.151667,0.47737 0.312037,0.95244 0.493426,1.41933 0.259823,0.66877 0.558568,1.32187 0.85114,1.97698 0.272762,0.61075 0.67092,1.17466 0.842913,1.82106 0.352389,1.32438 0.620565,3.33483 0.355605,4.09598 -0.469153,1.34795 -1.171274,2.34947 -2.01065,2.86827 -0.840765,0.51961 -1.135298,0.50435 -3.911191,-0.20239 -1.198684,-0.30528 -3.252149,-2.26839 -3.477628,-3.32481 -0.08904,-0.41523 -0.30843,-1.03082 -0.488409,-1.36798 -0.179903,-0.33719 -0.49824,-1.67506 -0.707326,-2.97309 -0.209056,-1.29802 -0.751697,-3.28423 -1.205823,-4.41379 -0.45411,-1.12955 -1.519172,-4.09508 -2.36679,-6.59009 -0.847543,-2.49496 -1.635693,-4.65927 -1.751336,-4.80952 -0.382566,-0.49706 -3.416635,0.97567 -5.113216,1.50236 -0.750557,0.233 -1.487658,0.50859 -2.240765,0.73322 -2.884627,0.86038 -4.981237,1.20529 -8.718937,2.35204 -0.83732,0.25693 -1.77587,0.46712 -2.0857,0.46712 -0.58479,0 -1.201291,1.05146 -2.041231,3.482 -0.20038,0.57992 -0.52009,1.38541 -0.71047,1.78999 -0.19034,0.40462 -0.58524,1.34255 -0.87764,2.0843 -0.29233,0.74176 -0.78259,1.73485 -1.08952,2.20687 -0.30695,0.47205 -1.37276,2.57926 -2.36828,4.68277 -1.42353,3.00737 -1.97979,3.93727 -2.60379,4.35245 -0.94809,0.63089 -2.22088,0.49789 -3.25243,0.16008 z m 22.163791,-31.51366 c 3.422119,-0.57766 5.396596,-1.11552 5.776774,-1.57358 0.205203,-0.24724 0.08433,-0.95966 -0.48692,-2.86982 -0.417991,-1.39745 -0.862021,-2.92704 -0.986838,-3.39907 -0.408908,-1.5468 -1.913617,-5.70571 -2.149846,-5.94196 -0.271638,-0.27159 -1.92936,2.61132 -4.19236,7.29061 -1.34745,2.78614 -2.95995,6.52989 -2.95995,6.87225 0,0.25692 2.24226,0.0871 4.99914,-0.37843 z m 44.655798,30.99416 c -2.258561,-1.0051 -2.36349,-1.29564 -3.22223,-2.29682 -1.749407,-2.03958 -2.649573,-4.6756 -3.624903,-7.20021 -0.191986,-0.42497 -0.621488,-1.6003 -0.954395,-2.61175 -0.332888,-1.01149 -0.713237,-2.11493 -0.845207,-2.45209 -0.131799,-0.33718 -0.434749,-1.27509 -0.672834,-2.08427 -0.238178,-0.80919 -0.687204,-2.24369 -0.997971,-3.18777 -0.581349,-1.76673 -1.526862,-5.34648 -2.040101,-7.72408 -0.160047,-0.74178 -0.396108,-1.73485 -0.524556,-2.20686 -0.840866,-3.09208 -2.45467,-22.691295 -2.076165,-25.215285 0.227971,-1.5207 1.149755,-2.2431 2.184412,-2.83921 1.066374,-0.61439 2.462634,-0.76126 3.660765,-0.48 0.958451,0.22499 1.92776,0.81344 2.451697,1.64695 1.610736,2.56246 1.183115,3.18195 1.294699,8.98721 0.134882,7.009625 0.831794,12.046315 1.654019,18.022895 0.132726,0.96476 0.269095,1.93468 0.528547,2.87333 0.117005,0.4233 0.328909,0.8154 0.460969,1.23425 0.34907,1.10713 0.557518,2.25421 0.873122,3.37134 0.418336,1.48077 0.723346,2.72794 1.352081,4.41373 0.628625,1.68585 1.237525,3.45135 1.353077,3.9234 0.242022,0.98852 0.774704,2.43301 1.063769,2.88424 0.316394,0.49401 0.769581,0.0727 2.178762,-2.02603 4.480307,-6.67207 8.721704,-18.58801 9.120866,-25.62443 0.427524,-7.534805 0.302195,-6.817305 0.04624,-10.211545 -0.06353,-0.84253 -0.234835,-1.67407 -0.391466,-2.50434 -0.144007,-0.76335 -0.333108,-1.51751 -0.503703,-2.27537 -0.207838,-0.9233 -0.562009,-1.94822 -0.633353,-2.76767 0,0 -0.314831,-1.02707 -0.129744,-1.48998 0.263656,-0.65941 0.941851,-1.13637 1.597208,-1.40995 1.322932,-0.55225 2.980779,-0.87302 4.290866,-0.29095 0.896185,0.39817 1.359101,1.44592 1.819747,2.31165 0.544807,1.0239 0.808803,2.1813 1.06503,3.31247 0.327988,1.44798 0.454943,2.93594 0.596944,4.41379 0.217253,2.26103 0.519093,3.18478 0.389254,6.803215 -0.08063,2.25828 -0.250055,4.57549 -0.375622,5.1494 -0.125648,0.57392 -0.357733,2.25728 -0.516041,3.74079 -0.323064,3.029 -1.668758,8.73502 -2.595525,11.00627 -0.336508,0.82467 -0.826314,2.27183 -1.088407,3.2159 -0.424087,1.52708 -1.446512,4.52093 -2.512386,7.35626 -1.298603,3.45436 -4.022775,8.12129 -5.940101,10.17622 -0.4404,0.47204 -0.672401,0.98301 -1.083578,1.40995 -0.199725,0.20738 -0.422718,0.39553 -0.664593,0.55172 -0.313214,0.20225 -0.639248,0.41946 -1.005274,0.49041 -1.832,0.3551 -3.195067,0.66627 -5.584204,-0.39691 z m 123.095305,-3.67276 c -0.809179,-0.19826 -1.802309,-0.51005 -2.206957,-0.69283 -0.404502,-0.18301 -1.01146,-0.41385 -1.348623,-0.51352 -2.230303,-0.65904 -5.911381,-3.66911 -8.100037,-6.62356 -1.916845,-2.58766 -3.669474,-7.24848 -3.741202,-7.86024 -0.07772,-0.66311 -0.310855,-2.30903 -0.517799,-3.65772 -0.885082,-5.76734 -0.150162,-11.03099 2.791186,-19.98456 2.204875,-6.712445 6.862482,-15.300795 10.077204,-18.581655 0.194898,-0.19891 5.918189,-5.96146 13.496347,-4.58481 2.623338,0.47659 4.003872,1.13611 5.365838,2.57955 1.031694,1.09343 1.642604,2.66966 1.714844,4.17125 0.0464,0.9634 -0.0361,1.89402 -0.83825,2.76946 -1.235818,1.38627 -2.854689,0.45861 -4.343719,0.26639 -1.662212,-0.12914 -1.693676,-0.24871 -4.992571,0.30141 -1.891996,0.31549 -5.124257,3.56573 -7.763138,7.80637 -3.568563,5.734285 -5.694973,13.336905 -5.557501,13.979365 0.0613,0.28566 0.359336,0.17127 1.296653,-0.49677 2.031952,-1.44837 4.676993,-2.79271 7.313294,-3.71704 4.449549,-1.56002 10.285203,-1.6857 12.92517,-0.27833 2.397672,1.27827 3.584162,2.30753 4.751042,4.12186 2.163205,3.36321 2.674915,4.26188 3.105535,6.67907 0.26611,1.49377 0.0174,3.07085 -0.3757,4.53633 -0.97812,3.64659 -1.07555,4.837 -4.839655,10.24046 -1.34652,1.93304 -3.972306,4.6096 -5.606151,5.71465 -2.391083,1.61708 -4.267975,2.70303 -5.079002,2.93836 -4.33549,1.25814 -5.466435,1.39134 -7.526808,0.88645 z m 3.97196,-10.52154 c 1.052169,-0.33783 2.011446,-0.84017 2.935366,-1.40993 0.856925,-0.52845 1.651393,-1.16233 2.390819,-1.84558 0.869932,-0.80384 1.61305,-1.69358 2.386362,-2.63281 1.512805,-1.81547 3.387936,-5.83902 3.392366,-7.27891 0.0088,-2.53891 -0.716383,-3.02095 -4.508676,-3.00125 -2.253825,0.0121 -3.086321,0.12877 -4.844637,0.68233 -1.167723,0.3675 -2.524353,0.94046 -3.0147,1.27323 -0.490376,0.33275 -0.972189,0.60501 -1.070792,0.60501 -0.09854,0 -1.001224,0.82758 -2.005909,1.83907 -1.594309,1.60501 -1.938365,1.83908 -2.703434,1.83908 -0.482193,0 -0.997939,-0.12121 -1.146225,-0.26952 -0.328716,-0.32872 -1.04642,-0.12317 -1.892554,0.54268 -0.818916,0.64413 -0.830032,1.71706 -0.04194,4.01802 1.895633,5.53357 5.024245,7.27608 10.123807,5.63861 z m 192.911996,9.65732 c -2.11231,-1.299 -3.50546,-3.81658 -3.52547,-6.37106 -0.009,-1.21995 0.14131,-1.64598 1.34467,-3.80076 0.74552,-1.33475 1.59499,-2.97851 1.88783,-3.65284 0.74079,-1.70563 2.21424,-4.14831 3.26179,-6.25282 0.20995,-0.42178 0.41469,-0.84638 0.60574,-1.27705 0.16937,-0.38181 0.29591,-0.78248 0.47888,-1.15796 0.90786,-1.86302 2.06993,-3.59152 3.06086,-5.41172 0.33086,-0.60775 0.66418,-1.21492 0.96292,-1.83908 0.26939,-0.56283 0.48709,-1.14916 0.74699,-1.71644 0.90628,-1.9781 2.00659,-3.86797 2.83194,-5.88118 0.14796,-0.36092 0.25329,-0.73788 0.37851,-1.1073 0.12457,-0.3675 0.25015,-0.73468 0.37089,-1.10346 0.76074,-2.323595 1.54009,-4.245655 2.2274,-6.988485 0.82344,-3.28632 1.10668,-8.88901 0.5051,-9.99227 -0.42586,-0.78108 -1.77662,-0.72556 -4.49366,0.18477 -2.45291,0.82176 -7.57028,3.3743 -8.5305,4.25498 -0.34285,0.31441 -1.20066,0.93726 -1.9063,1.38414 -2.84492,2.80094 -3.95237,1.2395 -6.33999,-2.73983 -0.8732,-1.72332 -0.68712,-2.53619 0.95154,-4.15511 1.03556,-1.0232 4.15426,-3.24049 6.38656,-4.63001 0.75825,-0.47198 1.57445,-0.84397 2.36886,-1.25216 0.96523,-0.49595 2.55913,-1.34299 2.91277,-1.45413 0.35376,-0.11123 1.41547,-0.52416 2.35958,-0.91792 4.53547,-1.89162 8.29207,-1.89502 11.34856,-0.009 1.05548,0.65086 2.56817,2.90685 3.54262,5.28339 0.77746,1.89625 0.78219,1.93414 0.87835,7.01672 0.0863,4.56596 0.0399,5.36247 -0.43398,7.47889 -0.59553,2.65837 -1.60694,6.161665 -2.09961,7.272935 -0.80342,1.81231 -1.07301,2.52389 -1.34706,3.55552 -0.1613,0.6069 -0.5505,1.54483 -0.86523,2.08428 -0.31466,0.53947 -0.91195,1.83191 -1.32736,2.87208 -0.41534,1.04017 -1.41529,3.20977 -2.22195,4.82134 -0.80665,1.61159 -1.4667,3.05019 -1.4667,3.19689 0,0.1466 0.19299,0.27716 0.42912,0.28947 2.83729,0.15134 3.6499,0.40486 4.97679,1.55375 0.47817,0.4141 1.25066,1.05944 1.71647,1.43412 0.46579,0.37468 1.95041,1.75539 3.29904,3.06822 3.75994,3.6602 4.06334,3.84897 6.21766,3.86791 2.03049,0.0177 1.93648,-0.0589 2.93668,2.3949 0.70823,1.73725 0.58857,3.67471 -0.29414,4.76415 -0.29929,0.36948 -0.72436,0.95876 -0.94448,1.30944 -0.64364,1.02539 -1.78784,1.43075 -3.6247,1.28414 -4.77163,-0.31095 -8.00227,-4.2249 -11.2344,-7.3712 -0.77692,-0.77131 -1.51964,-1.29343 -1.83899,-1.29281 -1.58033,0.003 -3.41592,1.45815 -4.61629,2.60328 -3.40489,3.18976 -5.59504,5.60074 -6.41478,7.06148 -0.63678,1.13481 -2.1514,2.0787 -3.35946,2.09369 -0.54663,0.006 -1.31112,-0.26748 -2.10323,-0.75469 z m -66.53404,-0.15075 c -0.46052,-0.0561 -1.23093,-0.36945 -1.71215,-0.69639 -0.48117,-0.32698 -1.0449,-0.59449 -1.25281,-0.59449 -0.51129,0 -4.01041,-3.58764 -4.54399,-4.65899 -0.35124,-0.70518 -2.41536,-3.86491 -6.15815,-9.42678 -0.73647,-1.09448 -1.74186,-1.59243 -2.83195,-1.64231 -1.89714,-0.0868 -3.63523,1.27622 -5.16898,2.39616 -2.28185,1.66618 -4.75076,4.44485 -5.73711,6.23959 -0.29353,0.53407 -0.78813,1.13968 -1.16479,1.72105 -0.21712,0.33512 -0.45029,0.66219 -0.63104,1.01825 -0.30851,0.60774 -0.34532,1.00041 -0.7673,1.89526 -1.13602,2.4087 -2.32257,2.928 -4.62728,2.02509 -1.74864,-0.68501 -2.71762,-1.21667 -3.57588,-2.35762 -1.13541,-1.50939 -1.43218,-3.53817 -1.68508,-5.40993 -0.17584,-1.30145 -0.10139,-2.64516 0.13139,-3.93764 0.64768,-3.59619 2.39593,-8.2417 3.4798,-10.39518 0.98072,-1.9486 3.66263,-6.01125 5.19708,-7.87294 0.6115,-0.74172 1.3124,-1.64841 1.55765,-2.01471 1.19552,-1.78566 7.26487,-7.984815 12.5502,-12.818605 3.54966,-3.24642 4.69433,-4.42496 5.32416,-5.48156 0.52299,-0.87746 0.57458,-1.10445 0.29153,-1.28363 -0.44624,-0.28273 -3.53012,-0.30971 -5.248,0.0206 -2.78908,0.53628 -5.53975,1.52899 -7.92529,3.12871 -1.40886,0.82636 -3.29711,2.30052 -4.29311,3.5844 -0.5876,0.89664 -1.77266,1.01569 -2.70479,0.27159 -1.28677,-1.02689 -2.06348,-1.97999 -2.86172,-3.51136 -1.0087,-1.93529 -0.36746,-4.05766 1.881,-6.22534 2.05984,-1.98596 3.04482,-2.66944 5.50078,-3.81723 4.58484,-2.1427 6.90401,-2.79297 10.44771,-2.92938 5.80378,-0.22349 9.79993,0.93618 11.83115,3.43308 2.66968,3.28188 3.80916,8.72911 2.27949,10.89719 -0.26572,0.37668 -0.78589,1.28573 -1.15593,2.02009 -0.76211,1.51227 -5.91191,6.841485 -7.69791,7.966015 -0.59071,0.37194 -1.92761,1.52101 -2.9708,2.55339 -1.04308,1.03241 -2.21488,2.16492 -2.60395,2.51663 -1.37857,1.24627 -3.46337,3.55025 -4.63491,5.1223 -0.65309,0.87627 -1.44344,1.79462 -1.75632,2.04078 -0.69043,0.54305 -0.79944,1.53661 -0.1399,1.27517 3.95659,-1.56829 5.13253,-1.8778 6.80447,-1.7911 2.66768,0.13813 4.56514,1.17491 7.4893,4.09124 1.29815,1.2946 2.61926,2.79523 2.93595,3.33471 0.31657,0.53944 0.93886,1.25832 1.38933,1.90106 0.27921,0.39838 0.54025,0.80921 0.81379,1.21151 1.32823,1.9534 3.68544,5.83758 4.01777,5.83758 2.50074,0 4.00217,-1.30793 5.07577,-0.40606 1.57836,1.32589 1.5678,4.12606 0.66838,6.63306 -0.64383,1.79433 -1.36848,2.81464 -2.61053,3.67538 -0.90473,0.62695 -1.33372,0.68861 -3.20703,0.46058 z m 29.64935,-0.55936 c -2.63976,-0.45849 -6.05993,-2.03348 -8.28936,-3.81728 -6.24936,-5.00005 -9.33155,-9.34402 -11.20765,-15.79537 -1.60299,-5.51241 -1.64261,-14.03825 -0.088,-19.03622 0.288,-0.92621 0.66162,-2.290895 0.83023,-3.032645 0.98794,-4.34665 5.66907,-12.65588 8.86347,-15.73322 2.41056,-2.32221 6.39912,-4.56264 8.86428,-4.97914 1.47743,-0.24959 2.474,0.19503 3.52166,1.57118 0.75014,0.98526 1.10284,1.23136 2.11218,1.47353 1.14879,0.27569 1.96026,0.64133 4.43287,1.99822 1.45759,0.79986 5.46013,5.01738 6.17051,6.50195 0.31528,0.65898 0.83389,1.59727 1.15243,2.08508 0.60063,0.91985 2.52416,5.39902 3.14681,7.32761 0.58994,1.827745 0.72127,6.619035 0.25427,9.286075 -0.22113,1.26365 -0.51091,3.08436 -0.64382,4.04598 -0.13315,0.96157 -0.45494,2.41038 -0.71557,3.21958 -0.60534,1.87979 -1.09043,3.69401 -1.60638,6.00765 -1.4299,6.4134 -3.23945,10.59403 -6.15582,14.22214 -1.29269,1.60821 -2.00972,2.23741 -4.01786,3.52555 -2.08239,1.33581 -3.7744,1.62429 -6.62404,1.12934 z m 2.76344,-9.95778 c 0.95665,-0.59388 2.9103,-2.57394 3.48945,-3.53663 1.07697,-1.79031 2.4106,-4.68103 2.94926,-6.39245 0.35571,-1.1304 0.87716,-2.77252 1.15883,-3.64913 0.5442,-1.6939 1.14649,-4.78753 1.7904,-9.19536 0.83404,-5.70946 -0.4067,-10.509545 -3.73284,-14.441405 -1.59756,-1.88849 -2.86391,-2.66009 -5.1085,-3.11258 -2.12229,-0.42784 -4.54401,1.1058 -6.61565,2.1466 -0.78665,0.39521 -1.49082,0.94936 -2.15349,1.5289 -0.39639,0.34666 -0.77912,0.72125 -1.07802,1.15479 -1.28626,1.86563 -2.38442,4.66644 -2.9948,6.102995 -0.57145,1.34487 -1.57719,5.35123 -1.53888,6.13025 0.0118,0.26955 -0.0953,0.85866 -0.24109,1.30869 -0.3447,1.06393 -0.32716,6.54445 0.0264,8.74492 0.16043,0.99395 0.74022,2.75474 1.37727,4.18306 0.90924,2.03849 1.42819,2.82056 2.98998,4.50607 2.07283,2.23706 4.02443,3.68776 6.14832,4.57044 1.78025,0.73985 2.27189,0.73295 3.53174,-0.0493 z m 94.95267,6.78577 c -1.94192,-0.16278 -5.07432,-1.15781 -6.79591,-2.15912 -1.85029,-1.07622 -4.99237,-4.10312 -6.20503,-5.97775 -1.0961,-1.69445 -3.09307,-5.52423 -3.88226,-7.44555 -0.40847,-0.99424 -1.50688,-4.63432 -1.90444,-6.31127 -1.15663,-4.87783 -0.95441,-11.86357 0.51639,-17.841865 1.16476,-4.73458 2.6291,-8.36434 4.63878,-12.23558 0.33044,-0.63653 0.82619,-1.17342 1.2065,-1.78148 0.27567,-0.44077 0.47902,-0.92647 0.77839,-1.3515 1.40626,-1.99651 3.12397,-4.01401 4.7462,-5.5809 1.67217,-1.61508 5.75691,-4.46311 8.94952,-6.18121 0.40451,-0.21769 0.82386,-0.44771 1.27828,-0.51495 0.61358,-0.0908 0.74405,-0.31139 1.85338,0.16571 1.31539,0.56581 1.77665,1.14954 2.71611,3.43692 0.33123,0.8066 0.53364,1.7787 0.51047,2.45208 -0.0528,1.54943 -1.30135,2.99948 -4.31265,5.01043 -2.81204,1.8778 -5.14148,4.321393 -7.30874,6.86635 -0.57561,0.675931 -1.05074,1.436016 -1.4912,2.20687 -0.21239,0.371721 -0.36436,0.77488 -0.5517,1.15984 -0.16769,0.344591 -0.33452,0.689733 -0.51226,1.02925 -0.36275,0.692928 -0.78158,1.356112 -1.13056,2.05608 -0.39191,0.786088 -0.83382,1.86421 -1.07989,2.40366 -0.68497,1.50134 -0.8593,2.78353 -0.40238,2.95885 0.20676,0.0792 3.1704,-0.20353 6.5862,-0.6283 7.55159,-0.93923 11.28249,-1.14887 13.57858,-0.76304 2.14921,0.36118 2.85105,0.64126 4.50933,1.79975 1.25253,0.874955 3.69339,3.472595 3.69339,3.930585 0,0.1144 0.20999,0.67086 0.46709,1.23664 1.62454,3.57758 2.15517,9.8673 1.02801,12.18573 -0.22966,0.47202 -0.56265,1.35476 -0.74032,1.96166 -0.29688,1.01418 -0.75457,2.17344 -1.28128,3.24573 -0.11501,0.23403 -0.20912,0.57809 -0.20912,0.76418 0,0.37446 -2.66947,4.4262 -4.30505,6.53412 -2.12103,2.73349 -4.39016,4.70523 -6.6067,5.7409 -3.40454,1.5907 -5.0158,1.90509 -8.3371,1.62697 z m 3.48257,-10.11762 c 1.06265,-0.31721 1.95368,-1.0677 2.83577,-1.73982 1.19323,-0.90919 2.29496,-1.94869 3.28701,-3.07396 0.69132,-0.78416 1.45251,-2.04096 1.8381,-2.54101 0.38544,-0.50009 1.05464,-1.87939 1.48717,-3.06514 0.63882,-1.75152 0.7871,-2.52654 0.79044,-4.13159 0,-1.85997 -0.0425,-2.03429 -0.78886,-2.97693 -1.00453,-1.26837 -2.23611,-1.76332 -5.18467,-2.08374 -3.14167,-0.34141 -11.134,0.41858 -13.78382,1.31068 -1.06277,0.35781 -2.83503,1.78386 -3.4305,2.76042 -0.65409,1.07272 -0.58405,1.92379 0.40834,4.95702 1.54792,4.73098 3.73,8.00411 6.38496,9.57753 0.93092,0.55173 1.91319,1.05808 2.18299,1.12523 0.97301,0.24224 2.70348,0.26029 3.97307,-0.11869 z M 144.53318,85.608265 c -1.56452,-0.70045 -3.28118,-3.43187 -3.62764,-5.77195 -0.0798,-0.53944 -0.48363,-2.52564 -0.89738,-4.41376 -0.41374,-1.88812 -0.79926,-3.6812 -0.85672,-3.98465 -0.18389,-0.9711 -0.87373,-0.60517 -2.92779,1.55316 -2.06217,2.16684 -3.18716,3.92911 -4.68298,7.3357 -1.66813,3.7988 -2.13141,4.17594 -4.53296,3.68987 -1.28674,-0.26044 -2.11666,-0.7687 -3.71082,-2.27286 -1.06355,-1.00348 -1.59812,-5.28561 -1.63475,-13.09577 -0.0176,-4.04429 -0.12875,-4.23853 -1.90989,-3.37219 -0.644,0.31329 -1.33651,0.57279 -1.53873,0.5766 -0.50862,0.009 -0.6025,2.96239 -0.19123,6.01462 0.45894,3.40618 0.23581,6.16329 -0.63836,7.8912 -0.43067,0.8512 -0.90195,1.43901 -1.22287,1.52514 -1.23371,0.33106 -2.17783,0.13194 -3.4831,-0.73436 -1.78729,-1.18628 -2.57691,-2.71446 -2.71238,-5.24905 -0.24959,-4.66825 -0.50844,-6.36356 -1.00046,-6.55232 -0.19738,-0.076 -0.71659,0.0325 -1.15321,0.24078 -0.43658,0.20824 -1.50268,0.45448 -2.369,0.54725 -1.54689,0.16541 -1.59854,0.1519 -2.88935,-0.77288 -2.36827,-1.69667 -2.923815,-2.27257 -3.323275,-3.44478 -0.49272,-1.44618 -0.4829,-2.02078 0.0463,-2.6983 0.58267,-0.74606 3.298135,-2.14216 5.863695,-3.01479 1.17527,-0.39975 2.29185,-0.88176 2.48119,-1.07112 0.26513,-0.26484 0.33901,-1.12835 0.32142,-3.74298 -0.0147,-2.253395 0.0798,-3.605265 0.28096,-4.011725 0.36746,-0.74118 2.82759,-1.98852 4.2348,-2.14713 2.31632,-0.261411 4.26754,5.064955 4.28375,6.560885 0.0147,1.38124 0.24901,1.71683 1.19321,1.71065 1.38362,-0.009 2.80629,-0.41318 3.16968,-0.90021 0.20765,-0.27833 0.27921,-0.77096 0.19298,-1.32845 -0.0751,-0.4872 -0.0264,-1.700975 0.10735,-2.697295 0.13462,-0.99632 0.31179,-2.36315 0.39409,-3.03752 0.17392,-1.42778 0.75196,-2.38396 2.11161,-3.49425 0.81299,-0.66383 1.18168,-0.79692 2.20789,-0.79692 2.04993,0 4.55898,1.76181 5.03296,3.53411 0.41585,1.55484 0.39294,1.79929 -0.33728,3.59599 -0.69304,1.705235 -0.75642,2.544035 -0.60998,8.072915 0.0443,1.68582 0.009,3.67201 -0.0777,4.41376 -0.25633,2.16946 0.0595,2.28146 1.82334,0.64793 0.83317,-0.77136 1.87484,-1.59135 2.3148,-1.82217 0.43996,-0.23079 1.26773,-0.73147 1.83956,-1.11263 1.35067,-0.9003 3.03966,-1.16202 5.0551,-0.78326 1.76412,0.3315 2.31284,1.37618 3.23501,2.3342 0.44257,0.45978 0.79288,1.01469 1.06024,1.59416 1.80027,3.90184 2.50036,6.43339 3.5337,12.3976 0.83874,4.84147 0.74882,6.17982 -0.51918,7.72727 -0.89895,1.21825 -2.5763,0.91226 -3.9366,0.35953 z"
       style="fill:#000000;stroke-width:0.926776"
       id="path1-4" /></g></svg>
