<?xml version="1.0" encoding="UTF-8" standalone="no"?>
<!DOCTYPE svg PUBLIC "-//W3C//DTD SVG 1.1//EN" "http://www.w3.org/Graphics/SVG/1.1/DTD/svg11.dtd">
<svg width="100%" height="100%" viewBox="0 0 1544 747" version="1.1" xmlns="http://www.w3.org/2000/svg" xmlns:xlink="http://www.w3.org/1999/xlink" xml:space="preserve" xmlns:serif="http://www.serif.com/" style="fill-rule:evenodd;clip-rule:evenodd;stroke-linejoin:round;stroke-miterlimit:2;">
    <g transform="matrix(1,0,0,1,-181.185541,-615.613618)">
        <g transform="matrix(3.708945,0,0,3.708945,-1060.351972,-1211.68347)">
            <path id="path1-4" d="M570.776,693.618C566.225,692.156 561.615,686.882 560.839,682.25C559.503,674.279 563.023,665.617 570.904,657.482C573.944,654.344 574.357,653.201 571.91,654.699C570.631,655.482 570.389,655.46 568.468,654.383L566.879,653.492L565.854,654.258C564.187,655.505 562.873,655.154 561.146,653L560.377,652.042L558.981,653.228C555.008,656.605 551.818,652.051 554.515,646.852C556.665,642.707 558.522,641.706 561.139,643.279L562.684,644.208L562.48,646.589C562.239,649.397 562.513,650.919 563.472,652.101C564.896,653.857 565.865,652.542 566.403,648.122C566.865,644.325 567.174,643.805 568.565,644.479L569.406,644.886L569.267,647.815C569.096,651.405 569.415,652.594 570.566,652.649C572.08,652.722 573.355,650.837 573.799,647.875C574.202,645.181 574.224,645.141 575.314,645.193C576.688,645.261 576.79,645.567 576.62,649.149C576.436,653.005 576.415,652.989 579.001,650.926C580.989,649.34 581.568,649.17 582.234,649.98C583.104,651.039 582.435,652.191 580.795,652.459C579.853,652.612 576.787,655.005 576.172,656.067C575.43,657.349 575.537,669.914 576.353,677.293C577.772,690.137 577.294,692.636 573.197,693.794C572.133,694.095 572.296,694.107 570.776,693.618L570.776,693.618ZM573.107,691.719C574.285,691.334 574.747,690.133 574.86,687.162C574.952,684.754 574.803,682.819 573.927,675.059C573.491,671.191 573.366,668.186 573.433,663.116C573.514,656.943 573.45,656.92 569.429,661.716C559.376,673.702 560.062,688.032 570.854,691.497C572.388,691.989 572.303,691.981 573.107,691.719ZM557.945,651.376C559.508,649.758 560.591,645.552 559.459,645.498C558.406,645.443 556.037,648.816 555.913,650.539C555.776,652.452 556.584,652.785 557.945,651.376ZM475.378,687.916C474.873,687.346 474.198,686.2 473.878,685.371C472.947,682.957 471.123,676.371 470.65,673.718C470.106,670.666 469.113,664.633 468.906,663.12C468.751,661.987 468.538,661.484 468.07,661.145C466.372,659.913 466.094,657.851 467.421,656.335C467.93,655.753 468.214,655.194 468.129,654.942C467.184,652.129 468.564,634.611 469.823,633.443C471.903,631.515 475.481,639.354 474.229,643.096C473.855,644.212 473.052,643.552 473.117,642.183C473.162,641.252 472.96,640.333 472.435,639.07L471.691,637.277L471.275,638.285C470.36,640.503 469.785,647.969 470.2,652.238C470.356,653.833 470.737,654.008 472.159,653.139C474.157,651.918 475.044,652.442 473.421,653.884C470.595,656.395 470.365,656.825 470.63,659.098C470.731,659.96 470.969,660.278 472.214,661.213C477.596,665.254 479.889,672.242 479.381,683.057C479.21,686.693 479.061,687.254 477.983,688.305C477.03,689.235 476.472,689.151 475.378,687.916ZM477.005,685.124C478.018,682.819 477.269,672.728 475.822,669.197C474.715,666.491 471.695,662.661 471.358,663.532C471.25,663.81 472.428,671.742 472.631,672.108C472.694,672.222 473.042,673.731 473.404,675.46C474.812,682.181 476.411,686.474 477.005,685.124ZM671.534,693.09C668.113,691.84 664.663,686.948 663.918,682.291C662.338,672.409 666.009,661.786 673.881,653.461C676.224,650.983 676.241,650.104 673.925,651.169C668.169,653.816 663.663,645.5 668.32,640.823C670.237,638.897 671.77,643.235 669.89,645.266C668.829,646.412 669.236,648.628 670.665,649.482C672.475,650.565 675.738,648.061 675.86,645.495C676.053,641.436 677.343,639.326 678.765,640.741C679.167,641.141 679.178,641.56 678.88,644.852C678.627,647.652 678.625,648.522 678.871,648.534C679.708,648.569 681.582,647.01 682.632,645.396C686.167,639.962 691.451,640.709 691.17,646.602C691.107,647.939 691.182,648.378 691.497,648.517C692.463,648.942 694.787,646.532 695.329,644.542C695.749,643.004 696.246,642.578 697.262,642.885C698.171,643.159 698.353,644.132 697.842,645.983C696.52,650.773 697.696,652.464 700.841,650.294L702.026,649.476L702.151,646.979C702.348,643.048 704.016,640.724 705.483,642.337C705.987,642.891 705.991,643.027 705.588,645.622C705.197,648.142 705.201,648.376 705.646,649.014C706.907,650.822 706.94,650.908 706.548,651.337C705.925,652.02 704.955,652.205 703.974,651.829C703.158,651.515 702.962,651.555 701.673,652.289C698.829,653.91 695.768,653.295 694.68,650.886C694.082,649.563 693.951,649.544 692.636,650.589C692.068,651.04 691.148,651.681 690.591,652.013C690.035,652.344 689.419,652.884 689.222,653.213C688.697,654.092 686.405,655.521 685.324,655.644C683.054,655.903 681.957,654.357 682.077,651.07C682.165,648.669 681.994,648.628 679.923,650.557C678.228,652.134 678.272,651.888 678.386,659.243C678.479,665.258 678.534,666.733 678.722,668.393C678.814,669.198 678.969,670.934 679.066,672.25C679.164,673.566 679.362,676.019 679.506,677.701C680.644,691.002 678.284,695.556 671.533,693.09L671.534,693.09ZM675.941,690.94C676.689,690.259 677.546,688.04 677.604,686.635C677.651,685.501 676.981,673.922 676.728,671.476C676.354,667.862 675.869,657.556 675.951,654.951C676.069,651.205 668.398,662.756 666.503,669.176C664.9,674.606 665.155,682.179 667.067,685.979C669.021,689.861 674.04,692.667 675.941,690.94ZM686.093,653.116C686.1,652.97 685.801,652.837 685.429,652.819C685.045,652.803 684.818,652.905 684.903,653.059C684.986,653.209 685.285,653.342 685.567,653.355C685.849,653.367 686.086,653.261 686.093,653.116ZM687.797,650.293C689.025,649.709 689.729,645.667 688.742,644.869C687.586,643.936 685.32,644.994 685.512,646.378C685.581,646.878 685.459,647.827 685.24,648.487C684.69,650.142 686.068,651.115 687.797,650.293ZM342.585,659.212C341.797,658.273 341.4,655.461 341.265,649.869C341.223,648.106 340.426,647.789 340.332,649.497C340.316,649.785 340.042,650.607 339.724,651.323C338.505,654.061 337.872,656.167 337.997,657.067C338.207,658.579 335.545,659.402 334.791,658.058C334.464,657.476 335.77,653.81 338.485,647.693C341.267,641.422 343.078,642.521 343.553,650.768C343.766,654.468 343.908,655.368 344.283,655.386C344.588,655.398 345.347,654.275 345.602,653.431C345.724,653.025 346.047,652.343 346.319,651.915C346.591,651.486 347.259,649.845 347.803,648.269C349.055,644.637 349.433,643.976 350.231,644.014C351.295,644.069 351.416,644.564 351.21,648.072C351.017,651.373 351.263,653.091 351.759,651.901C353.688,647.273 354.399,646.066 355.178,646.104C356.099,646.142 356.559,646.799 356.684,648.231C357.1,653.026 357.822,656.47 358.598,657.36C359.451,658.34 359.401,658.783 358.38,659.302C356.704,660.152 355.832,659.054 355.081,655.146C354.516,652.211 354.579,652.233 353.388,654.561C350.909,659.406 349.051,659.654 348.885,655.161C348.803,652.921 348.735,652.932 347.356,655.404C346.396,657.126 343.933,659.872 343.372,659.845C343.226,659.838 342.872,659.553 342.585,659.212ZM364.39,659.332C359.651,657.874 359.552,649.56 364.236,646.336C369.284,642.862 370.707,649.904 365.887,654.507C362.698,657.553 365.825,658.819 369.202,655.849C371.119,654.163 371.524,653.2 371.32,650.805C370.983,646.828 371.807,644.835 373.442,645.676C374.139,646.035 374.221,646.52 374.314,650.855C374.342,652.168 374.446,653.603 374.545,654.045C374.644,654.487 374.782,655.179 374.851,655.583C374.921,655.986 375.144,656.325 375.346,656.335C376.001,656.362 379.5,650.133 379.562,648.824C379.575,648.555 379.937,648.177 380.374,647.977C381.828,647.311 382.512,648.674 382.694,652.599C382.803,654.936 383.033,655.455 383.644,654.742C384.911,653.263 386.659,650.048 387.115,648.356C387.646,646.393 390.241,646.757 389.773,648.729C389.391,650.337 389.215,655.969 389.535,656.313C390.291,657.125 392.702,653.558 393.267,650.79C393.49,649.701 393.888,648.605 394.188,648.26C394.479,647.924 394.723,647.511 394.731,647.342C394.748,647.005 396.428,645.485 397.492,644.846C399.307,643.757 401.63,644.969 402.155,647.279C403.611,653.687 397.867,661.311 394.678,657.205L393.783,656.053L392.888,656.809C389.305,659.839 387.154,659.68 386.754,656.354L386.624,655.276L385.202,656.443C381.777,659.253 380.623,659.16 380.411,656.054C380.275,654.052 380.182,654.054 378.856,656.093C377.693,657.88 376.377,659.076 374.887,659.702C373.79,660.162 373.201,659.621 372.775,657.747C372.449,656.316 372.198,656.279 370.538,657.412C367.663,659.376 366.11,659.861 364.39,659.332L364.39,659.332ZM398.47,654.849C399.835,652.985 400.669,649.091 400.003,647.69C399.654,646.957 398.518,646.969 397.291,647.721L396.273,648.344L396.162,650.665C395.95,655.124 396.946,656.93 398.47,654.849L398.47,654.849ZM364.971,651.783C365.807,650.501 366.431,649.058 366.24,648.849C365.653,648.203 363.327,650.516 363.263,651.808C363.192,653.254 364.02,653.242 364.971,651.783L364.971,651.783ZM435.082,662.42C434.288,661.712 434.357,659.915 435.239,658.305C436.091,656.751 435.785,656.228 434.653,657.302C434.214,657.719 433.763,658.056 433.651,658.051C433.539,658.046 432.811,658.377 432.032,658.787C429.4,660.175 426.505,659.885 424.889,658.072C424.075,657.158 422.436,656.167 422.232,656.465C421.454,657.599 419.225,657.731 418.194,656.705C417.574,656.087 417.537,656.095 415.315,657.315C413.296,658.423 412.111,657.706 411.265,654.866C410.676,652.887 409.361,652.123 408.862,653.47C408.508,654.426 405.667,658.226 405.189,658.384C403.769,658.853 403.041,656.773 404.295,655.83C405.553,654.883 407.298,652.004 407.026,651.324C406.108,649.024 407.965,645.196 409.962,645.274C411.097,645.322 411.317,645.895 411.043,648.112L410.799,650.086L411.821,650.67C412.431,651.019 412.934,651.548 413.068,651.983C413.192,652.383 413.396,652.954 413.522,653.252C413.647,653.549 413.853,654.125 413.978,654.531C414.721,656.933 416.328,654.467 416.49,650.678C416.677,646.302 417.87,644.487 419.331,646.357C419.958,647.161 419.992,647.62 419.712,651.56C419.587,653.324 419.632,654.203 419.864,654.523C420.248,655.053 422.416,655.595 422.436,655.167C422.443,655.015 422.769,654.621 423.16,654.291C423.631,653.895 423.941,653.305 424.08,652.545C424.511,650.189 427.489,647.162 429.291,647.248C431.868,647.371 431.094,651.574 427.89,654.853C426.541,656.234 426.467,656.818 427.604,657.127C427.983,657.23 428.5,657.382 428.752,657.463C429.8,657.802 433.806,655.598 433.85,654.659C433.862,654.418 433.663,653.583 433.409,652.805C432.203,649.112 435.608,643.989 437.723,646.315L438.493,647.162L438.202,649.463C438.042,650.728 437.72,652.265 437.486,652.879C436.575,655.267 437.015,655.363 438.972,653.205C440.762,651.231 443.751,648.731 444.29,648.756C445.07,648.789 444.933,649.235 443.759,650.472C439.982,654.456 438.839,656.729 439.91,658.132C441.528,660.252 437.08,664.202 435.082,662.42L435.082,662.42ZM435.977,651.12C436.383,650.196 436.236,649.497 435.784,650.206C435.559,650.559 435.364,650.997 435.35,651.178C435.314,651.649 435.763,651.608 435.977,651.12L435.977,651.12ZM498.431,660.33C497.045,659.43 496.251,655.635 496.489,651.048C496.574,649.416 496.552,648.019 496.441,647.942C495.943,647.601 494.386,649.033 494.429,649.792C494.485,650.762 494.011,650.918 492.272,650.501C488.807,649.672 489.143,648.448 493.317,646.689C497.112,645.091 497.044,645.17 497.26,642.079C497.46,639.209 497.753,638.713 499.064,639.024C500.559,639.379 501.998,641.703 500.684,641.64C500.353,641.626 500.039,641.869 499.859,642.281C499.395,643.346 499.471,643.493 500.411,643.349C501.579,643.169 502.244,642.407 502.302,641.18C502.482,637.393 504.753,633.888 506.958,633.993C508.48,634.067 510.729,636.65 510.654,638.24C510.621,638.917 507.892,641.586 506.347,642.451C505.399,642.982 504.762,643.537 504.63,643.947C503.955,646.045 504.362,652.581 505.251,653.928C505.684,654.583 507.667,651.945 508.426,649.703C509.603,646.229 511.3,646.921 511.115,650.8C510.999,653.237 511.32,655.126 511.854,655.151C512.607,655.183 514.239,651.96 514.319,650.276C514.414,648.275 514.787,647.404 515.621,647.237C517.059,646.948 517.289,647.434 517.262,650.699C517.239,653.524 517.479,654.753 518.149,655.235C518.78,655.689 519.087,655.09 520.382,650.879C521.684,646.643 522.71,645.073 524.128,645.14C526.524,645.254 529.452,649.541 529.301,652.715C529.159,655.695 525.327,659.16 524.049,657.463C523.638,656.916 523.789,656.653 524.903,655.979C527.485,654.419 527.773,651.378 525.579,648.852C524.095,647.144 523.712,647.58 522.392,652.472C521.061,657.408 518.457,659.08 516.05,656.543C514.604,655.02 514.822,655.02 513.25,656.542C511.445,658.29 509.21,657.951 509.273,655.938C509.323,654.321 508.594,654.262 507.085,655.761C505.163,657.671 504.481,657.973 503.927,657.16C502.984,655.778 502.2,651.516 502.095,647.204C502.052,645.425 501.979,645.146 501.551,645.125C501.278,645.114 501.052,645.194 501.046,645.309C501.041,645.423 500.673,645.708 500.229,645.943C497.785,647.234 498.092,658.221 500.584,658.636C501.546,658.797 501.612,659.284 500.773,660.047C500.048,660.706 499.173,660.812 498.431,660.33L498.431,660.33ZM508.069,639.247C509.259,638.227 509.276,638.107 508.37,637.152C506.877,635.579 505.517,636.573 504.736,639.808C504.238,641.872 505.194,641.711 508.069,639.247ZM458.725,656.43C456.88,654.311 456.389,651.4 457.228,647.553C458.163,643.262 461.988,639.818 462.853,642.488C463.059,643.123 463.275,643.303 463.863,643.331C468.415,643.548 467.704,651.756 462.728,656.432C460.869,658.178 460.247,658.178 458.725,656.43L458.725,656.43ZM461.785,654.563C462.412,653.753 462.378,653.681 461.016,652.956C460.341,652.597 459.684,652.246 459.556,652.176C459.114,651.936 459.591,653.83 460.133,654.464C460.813,655.26 461.227,655.285 461.785,654.563L461.785,654.563ZM463.564,651.59C464.213,651.208 464.903,647.352 464.461,646.576C463.876,645.548 461.197,647.762 461.122,649.336C461.049,650.876 462.5,652.216 463.564,651.59ZM539.366,655.331C535.46,651.034 540.316,640.613 546.097,640.888L546.981,640.926L547.077,636.494C547.191,631.254 547.52,630.091 548.871,630.155C550.305,630.226 550.501,632 550.367,643.736C550.293,650.246 550.509,651.444 552.081,653.231C553.309,654.627 553.309,655.001 552.081,654.942C551.076,654.89 550.121,654.033 549.254,652.391C548.755,651.447 548.602,651.417 548.206,652.187C546.243,656.003 541.51,657.684 539.367,655.326L539.366,655.331ZM543.941,654.042C544.586,653.672 546.844,651.232 547.365,650.343C548.018,649.23 546.877,643.574 545.991,643.532C545.019,643.481 542.568,644.911 541.826,645.953C538.472,650.671 539.952,656.334 543.941,654.042ZM599.074,657.272C597.211,656.418 596.687,648.535 598.293,645.545C599.183,643.889 601.133,643.206 601.233,644.516C601.421,646.958 601.144,648.689 600.475,649.254C599.228,650.306 599.515,655.086 600.829,655.149C601.9,655.204 604.593,651.338 604.674,649.636C604.745,648.159 605.455,646.893 606.194,646.928C607.216,646.981 607.426,647.476 607.325,649.618C607.164,653.05 608.815,654.622 610.466,652.609C611.872,650.896 611.171,643.862 609.714,645.06C608.652,645.933 607.455,644.252 607.841,642.428C608.323,640.15 610.003,640.361 611.521,642.89C612.811,645.038 612.892,645.346 613.372,649.92C613.809,654.081 609.51,657.231 606.585,654.893C605.25,653.826 605.263,653.825 604.169,655.061C602.386,657.075 600.463,657.91 599.074,657.272ZM631.472,655.144C630.974,654.445 630.621,652.324 630.443,648.972C630.353,647.277 630.305,647.153 629.738,647.187C628.418,647.267 626.838,645.891 626.894,644.712C626.932,643.912 628.174,642.945 629.111,642.987C630.417,643.052 630.501,642.725 630.764,636.638C631.051,630.046 631.25,629.417 632.824,630.158C634.326,630.866 634.523,632.719 633.535,636.84C632.554,640.93 632.778,641.702 634.661,640.707L635.775,640.118L636.053,637.78C636.886,630.782 640.472,626.895 643.219,630.013C645.185,632.245 644.103,635.827 640.427,639.257C638.232,641.304 637.883,642.368 638.257,645.867C638.661,649.654 639.073,649.866 640.822,647.186C643.251,643.464 644.966,643.412 644.795,647.065C644.706,648.988 645.233,650.08 646.489,650.57C647.64,651.02 647.718,651.571 646.706,652.106C645.266,652.867 643.996,652.455 643.048,650.919C642.311,649.725 642.244,649.73 640.544,651.08C638.28,652.878 637.111,652.524 636.61,649.886C636.446,649.027 635.907,644.871 635.813,643.74C635.721,642.643 635.65,642.636 634.191,643.565L632.868,644.408L632.754,647.158C632.631,650.128 632.95,653.167 633.518,654.434C634.15,655.846 632.404,656.451 631.472,655.144L631.472,655.144ZM640.218,637.224C642.661,634.54 643.26,631.74 641.41,631.652C640.295,631.595 638.964,633.921 638.491,636.744C638.196,638.503 638.88,638.693 640.218,637.224ZM617.977,654.118C617.703,653.817 617.425,653.238 617.357,652.83C617.29,652.423 617.139,651.814 617.021,651.478C616.766,650.75 617.186,646.467 617.668,644.881C618.252,642.958 619.512,642.921 621.146,644.778C622.257,646.041 622.222,646.386 620.956,646.649C619.81,646.887 619.884,646.808 619.567,648.148C619.18,649.787 619.405,652.163 619.96,652.298C621.527,652.677 623.496,646.241 623.06,642.169C622.762,639.381 621.795,637.869 621.518,639.757C621.19,641.989 619.43,640.148 619.546,637.696C619.706,634.332 622.293,634.899 623.775,638.622C624.753,641.079 623.585,651.4 622.134,653.126C620.795,654.718 618.928,655.164 617.977,654.118ZM421.638,641.272C420.302,640.59 419.349,637.712 420.259,637.11C420.983,636.632 421.058,636.665 422.364,638.041L423.544,639.285L423.149,640.316C422.708,641.467 422.4,641.661 421.638,641.272ZM581.287,645.004C568.284,640.356 568.483,625.875 581.711,614.119C582.483,613.433 583.118,612.796 583.123,612.705C583.143,612.274 581.038,611.825 579.916,612.021C578.565,612.257 577.765,612.068 576.728,611.269L575.987,610.698L575.537,611.24C575.29,611.538 574.854,612.082 574.568,612.448C572.888,614.601 570.234,615.156 568.907,613.632C568.51,613.176 568.046,612.796 567.875,612.788C567.704,612.78 567.098,613.109 566.529,613.519C564.858,614.721 563.49,614.227 561.961,611.869C560.963,610.33 561.078,610.321 559.711,612.056C558.533,613.551 557.321,614.401 556.423,614.362C556.132,614.35 555.295,614.608 554.563,614.937C551.701,616.221 549.386,615.197 547.517,611.82C546.44,609.873 546.484,609.884 545.41,611.264C544.549,612.369 542.718,613.2 542.091,612.77C541.586,612.424 541.846,611.299 542.561,610.735C544.83,608.945 545.848,605.968 545.318,602.678C543.921,594.011 547.51,582.7 550.584,586.081C552.331,588.003 551.84,594.201 549.267,602.733C547.847,607.441 548.087,609.909 550.206,612.39C551.708,614.148 554.533,614.023 553.881,612.227C552.048,607.175 557.589,600.267 561.454,602.787C562.759,603.638 562.791,603.715 562.985,606.596C563.441,613.358 566.924,613.563 567.244,606.845C567.354,604.527 567.594,604.033 568.588,604.08C569.549,604.131 569.809,604.846 569.997,607.983C570.291,612.876 571.319,613.725 573.127,610.57C573.982,609.077 574.168,608.476 574.357,606.586C574.712,603.049 576.465,603.09 577.123,606.649C577.917,610.938 579.602,611.542 579.79,607.605C579.946,604.32 580.615,603.088 583.373,601.01C584.868,599.884 587.13,600.852 587.048,602.583C587.033,602.9 587.29,603.514 587.62,603.946C587.95,604.378 588.278,605.209 588.348,605.792C588.568,607.621 588.98,607.682 590.736,606.147L592.286,604.794L592.064,600.819C591.463,590.056 597.119,582.63 602.424,587.217C606.476,590.721 604.456,596.358 596.815,602.872L594.828,604.566L594.915,606.113C595.032,608.167 595.472,610.128 595.82,610.145C596.098,610.157 598.12,607.296 598.716,606.045C599.895,603.573 599.981,603.456 600.601,603.486C601.56,603.536 601.991,604.31 602.033,606.07C602.109,609.275 603.111,610.459 604.602,609.104C606.534,607.347 606.711,606.644 607.045,599.401C607.362,592.536 607.557,591.578 608.659,591.473C609.95,591.35 610.309,592.192 610.366,595.474L610.419,598.523L611.876,598.519C615.195,598.51 616.176,599.54 613.641,600.374C611.216,601.172 610.677,601.441 610.657,601.862C610.646,602.099 610.388,602.496 610.085,602.745C609.32,603.374 609.169,606.453 609.823,608.096C610.337,609.389 610.538,609.482 611.256,608.761C612.173,607.84 612.977,608.356 612.923,609.832C612.904,610.355 610.714,611.649 609.91,611.61C609.374,611.588 608.948,611.269 608.314,610.426L607.448,609.277L605.717,610.7C603.195,612.773 601.526,612.445 600.244,609.627C599.853,608.767 599.683,608.84 598.869,610.22C597.679,612.237 595.819,613.853 594.745,613.802C594.304,613.784 593.811,612.431 593.225,609.633C592.695,607.107 592.528,606.59 592.318,606.822C588.954,610.515 588.992,609.922 591.574,618.287C591.71,618.73 592.161,620.897 592.575,623.102C592.99,625.307 593.558,628.076 593.839,629.255C595.725,637.165 595.024,640.601 590.994,643.207C587.567,645.424 584.203,646.046 581.287,645.004L581.287,645.004ZM588.084,642.342C592.587,640.358 593.552,637.402 591.956,630.49C591.649,629.164 591.192,627.056 590.939,625.806C589.459,618.492 587.57,611.884 586.882,611.618C586.478,611.462 581.47,616.211 579.388,618.723C572.392,627.169 571.512,636.791 577.386,640.62C581.671,643.414 584.586,643.883 588.084,642.342ZM557.341,610.808C557.675,610.448 558.224,609.866 558.562,609.516C559.966,608.061 560.582,605.265 559.554,605.019C558.219,604.699 556.084,607.567 555.977,609.825C555.89,611.652 556.291,611.941 557.341,610.808ZM584.149,607.712C585.461,606.205 585.98,603.32 584.948,603.27C583.817,603.213 582.14,605.516 582.059,607.234C581.958,609.356 582.591,609.5 584.149,607.712ZM548.746,597.839C549.472,594.755 549.935,590.009 549.55,589.586C548.4,588.321 546.824,595.707 547.267,600.285C547.463,602.31 547.838,601.69 548.746,597.839ZM597.756,600.223C602.772,595.506 604.182,592.147 602.195,589.654C598.883,585.499 594.168,590.761 594.225,598.547C594.262,603.558 594.226,603.541 597.756,600.223ZM521.107,641.884C520.435,641.268 520.352,640.227 520.948,639.878C522.075,639.219 524.52,641.015 524.05,642.157C523.845,642.655 521.735,642.46 521.107,641.884ZM489.159,633.503C485.815,632.168 482.506,627.611 481.843,623.429C481.554,621.604 482.065,616.013 482.603,615.113C482.77,614.834 482.919,614.345 482.934,614.027C482.974,613.195 484.299,610.641 486.078,607.967C487.5,605.829 487.607,605.567 487.507,604.459C487.028,599.119 487.505,596.827 489,597.295C489.833,597.555 489.99,597.939 490.196,600.209C490.451,603.012 490.529,603.055 492.579,601.508C493.537,600.784 494.866,599.993 495.533,599.748C496.201,599.504 497.19,599.094 497.732,598.838C500.002,597.763 501.843,599.108 502.287,602.167C502.679,604.858 502.683,604.861 504.313,603.529L505.739,602.365L505.825,600.568C506.061,595.608 508.826,597.104 508.81,602.185C508.789,609.393 513.033,610.522 513.372,603.398C513.521,600.268 514.61,598.772 515.997,599.792C516.501,600.162 516.532,600.394 516.367,602.547C516.156,605.285 516.468,610.928 517.144,616.598C518.023,623.969 518.149,625.379 518.074,626.973C517.988,628.813 517.289,630.079 516.121,630.512C515.713,630.664 515.175,630.942 514.926,631.13C513.056,632.539 507.94,626.928 506.86,622.283C506.307,619.904 506.605,615.622 507.399,614.527C508.096,613.567 508.453,614.049 508.194,615.6C507.431,620.172 509.218,625.273 512.399,627.606C515.756,630.067 516.489,628.117 515.275,619.953C515.057,618.485 514.683,615.57 514.445,613.474C513.931,608.946 513.883,608.822 512.997,609.692C511.028,611.624 508.192,610.183 506.715,606.5C506.402,605.72 506.032,605.076 505.891,605.07C505.3,605.045 502.432,607.122 501.979,607.906C498.243,614.385 493.676,611.819 494.941,603.952C495.279,601.846 495.174,601.792 493.322,603.118C491.8,604.208 490.192,606.235 490.15,607.118C490.106,608.05 490.696,611.901 491.076,613.162C491.267,613.796 491.761,615.999 492.173,618.058C492.586,620.117 493.161,622.708 493.451,623.814C494.924,629.432 494.524,631.873 491.886,633.364C490.555,634.117 490.679,634.11 489.159,633.503L489.159,633.503ZM491.856,630.445C492.144,629.492 491.914,626.19 491.443,624.513C491.215,623.701 490.587,620.989 490.048,618.487C489.509,615.984 488.908,613.214 488.712,612.331C488.516,611.447 488.261,610.273 488.145,609.721C487.87,608.414 487.66,608.445 486.782,609.921C482.216,617.6 482.659,626.453 487.783,629.872C490.042,631.38 491.511,631.587 491.856,630.445ZM498.806,608.536C499.455,607.786 499.286,607.289 498.291,607.023C497.972,606.937 497.489,606.762 497.219,606.634C496.789,606.43 496.744,606.489 496.868,607.101C497.313,609.318 497.809,609.685 498.806,608.536ZM500.356,604.078C500.456,601.823 499.515,600.737 498.367,601.782C497.254,602.793 497.68,604.662 499.12,605.087C500.234,605.415 500.299,605.362 500.356,604.078ZM376.233,613.73C373.571,612.968 372.408,609.799 373.859,607.261C374.615,605.939 374.612,605.905 373.595,604.036C371.203,599.64 374.27,592.487 377.584,594.73C378.069,595.059 378.587,595.737 378.791,596.31C378.988,596.862 379.484,597.903 379.893,598.621C380.303,599.34 380.695,600.295 380.765,600.743L380.891,601.558L381.574,601.056C382.253,600.557 382.259,600.526 382.469,596.104C382.82,588.749 384.706,585.527 388.555,585.71C391.573,585.853 393.934,590.326 392.44,593.07C391.953,593.965 389.003,596.887 386.675,598.781C384.943,600.19 385.008,599.946 385.448,603.346C386.082,608.244 385.912,608.163 388.31,604.706C392.358,598.868 393.942,598.849 393.53,604.64C393.295,607.943 393.376,608.178 394.774,608.252C395.421,608.279 395.488,608.186 395.722,606.837C396.367,603.12 399.565,599.25 401.615,599.705C402.202,599.835 403.429,600.058 404.34,600.201C406.484,600.538 406.528,600.636 406.168,604.296C405.622,609.853 407.202,610.728 410.409,606.643C411.467,605.295 411.522,604.896 410.707,604.477C408.925,603.56 409.22,600.71 411.311,598.647C412.785,597.192 414.538,598.51 414.42,600.986C414.353,602.402 414.41,602.58 415.117,603.136L415.887,603.741L415.613,605.826C415.316,608.083 415.469,608.339 416.665,607.584C417.209,607.239 417.226,607.138 416.987,605.638C416.528,602.763 417.204,601.108 419.592,599.253C423.615,596.128 425.06,601.954 421.329,606.259C420.062,607.722 421.809,610.105 423.788,609.613C425.66,609.148 426.304,610.451 424.676,611.41C422.992,612.402 420.681,611.799 419.182,609.975C418.59,609.254 418.153,609.226 417.19,609.843C414.901,611.315 413.171,610.898 412.704,608.764L412.47,607.696L410.625,609.339C407.464,612.152 405.772,612.167 404.236,609.396C403.543,608.145 403.181,608.146 401.611,609.405C399.665,610.965 398.487,611.197 396.97,610.319C396.278,609.918 395.959,609.89 394.6,610.112C392.041,610.529 390.972,609.459 391.107,606.617C391.18,605.078 390.935,605.207 389.239,607.596C387.978,609.373 385.743,611.269 384.955,611.231C384.537,611.214 384.041,609.152 383.534,605.336C383.092,602.004 382.803,601.919 380.106,604.328C377.691,606.484 377.69,606.515 380.023,608.451C382.241,610.292 382.56,611.044 381.544,612.042C379.969,613.591 377.969,614.225 376.233,613.729L376.233,613.73ZM378.634,611.294C379.495,611.107 379.405,610.751 378.21,609.612C376.362,607.853 375.963,607.858 375.869,609.642C375.823,610.515 376.126,610.937 376.983,611.191C377.769,611.424 377.977,611.437 378.634,611.295L378.634,611.294ZM400.317,608.116C403.002,606.325 404.111,602.827 402.077,602.561C400.37,602.338 398.354,604.635 398.244,606.929C398.157,608.758 398.8,609.127 400.317,608.116ZM378.582,603.078L380.253,601.929L379.599,601.261C379.239,600.895 378.951,600.463 378.959,600.302C378.967,600.141 378.56,599.441 378.056,598.747C377.552,598.052 377.106,597.433 377.063,597.371C376.842,597.045 375.569,597.914 375.166,598.665C374.389,600.112 375.373,604.154 376.514,604.209C376.733,604.218 377.663,603.71 378.582,603.078ZM420.983,602.665C421.373,601.671 421.222,601.341 420.595,601.813C419.877,602.353 419.288,603.578 419.451,604.191C419.639,604.898 420.409,604.131 420.983,602.665ZM412.515,602.066C412.525,601.839 412.412,601.722 412.262,601.805C412.113,601.887 411.985,602.067 411.978,602.204C411.971,602.341 412.086,602.458 412.231,602.465C412.376,602.472 412.504,602.293 412.515,602.066ZM387.747,596.092C391.593,592.639 392.125,591.289 390.447,589.244C388.021,586.289 385.102,588.733 384.613,594.131C384.192,598.765 384.532,598.978 387.747,596.092ZM351.281,610.884C350.828,610.101 350.185,604.792 350.017,600.431C349.951,598.74 346.29,599.908 344.041,602.335C343.125,603.325 343.134,603.428 344.217,604.513C345.041,605.337 345.086,605.461 344.696,605.816C344.033,606.419 342.378,605.731 341.426,604.458C339.669,602.107 341.041,600.359 346.172,598.412C349.98,596.967 349.974,596.973 350.11,594.787C350.303,591.683 351.087,589.638 352.103,589.588C353.762,589.507 353.987,590.81 353.076,595.212L352.873,596.196L354.156,596.267C355.518,596.342 357.283,597.095 357.851,597.852C358.298,598.448 358.716,598.448 359.799,597.851C365.052,594.957 366.955,601.043 362.421,606.239C362.092,606.616 361.588,607.228 361.299,607.599C359.102,610.43 355.768,608.928 355.946,605.188C355.97,604.68 355.882,603.73 355.75,603.076C355.568,602.173 355.596,601.704 355.867,601.129C356.47,599.85 355.382,598.425 354.059,598.762C353.879,598.808 353.387,598.905 352.967,598.977L352.202,599.108L352.277,601.416C352.368,604.199 352.942,608.973 353.337,610.236C353.854,611.889 352.17,612.424 351.281,610.889L351.281,610.884ZM360.061,605.601C361.322,604.222 362.168,602.616 362.415,601.135L362.632,599.839L361.809,599.804C361.356,599.785 360.435,600.001 359.762,600.29L358.538,600.814L358.425,602.411C358.115,606.79 358.426,607.396 360.061,605.606L360.061,605.601ZM445.361,611.26C445.033,610.532 444.646,607.908 444.221,603.533C443.919,600.427 443.784,600.283 441.835,600.985C440.973,601.295 440.014,601.862 439.699,602.249C438.979,603.131 438.36,603.102 436.599,602.102C434.438,600.875 434.728,599.303 437.096,599.407C438.3,599.468 441.971,598.788 443.116,598.305L443.832,598.003L444.024,594.042C444.239,589.61 444.47,588.902 445.678,588.959C447.262,589.036 447.343,589.323 446.912,593.352C446.507,597.139 446.536,597.408 447.3,596.904C447.655,596.669 447.818,596.04 448.008,594.164C448.678,587.545 452.385,584.092 455.286,587.384C457.53,589.932 456.924,592.033 452.924,595.571L450.605,597.623L450.517,599.43C450.417,601.461 451.108,606.977 451.545,607.637C451.911,608.191 453.744,605.969 455.803,602.478C457.803,599.086 458.622,598.465 459.632,599.576C460.09,600.08 460.094,600.268 459.673,601.678C458.32,606.204 458.734,609.326 460.606,608.719C461.327,608.485 461.343,608.356 460.888,606.459C459.909,602.375 465.246,597.02 467.346,599.98C467.914,600.781 467.145,604.021 465.847,606.29C465.514,606.874 465.237,607.416 465.234,607.494C465.216,607.871 467.058,607.591 470.412,606.705C472.153,606.245 473.733,606.324 473.916,606.882C474.14,607.56 473.486,607.902 470.203,608.819C468.505,609.294 466.871,609.818 466.572,609.983C465.545,610.55 463.881,610.771 463.076,610.447C462.47,610.203 462.109,610.238 461.251,610.625C459.115,611.589 457.326,610.59 456.541,607.995C456.056,606.391 456.061,606.392 455.071,607.805C454.292,608.917 452.2,610.496 451.126,610.781C449.956,611.092 448.953,608.118 448.372,602.617C448.05,599.568 447.771,598.987 446.931,599.62C446.208,600.164 446.492,606.549 447.406,610.293C447.832,612.036 446.082,612.867 445.361,611.263L445.361,611.26ZM465.093,602.669C464.782,602.328 463.621,603.647 463.428,604.563C463.098,606.122 463.438,606.065 464.368,604.407C464.851,603.544 465.177,602.762 465.093,602.669ZM451.579,594.607C453.799,593.434 455.481,590.487 454.565,589.374C453.18,587.688 450.961,589.836 450.447,593.358C450.183,595.17 450.289,595.288 451.579,594.607ZM527.69,615.325C527.254,614.846 527.301,614.595 528.653,610.103C529.328,607.864 530.017,604.977 530.185,603.686C530.491,601.341 530.686,600.964 531.576,600.999C533.483,601.069 533.734,604.879 532.028,607.848C531.195,609.299 529.832,612.672 529.408,614.337C529.288,614.806 528.964,615.297 528.688,615.428C528.059,615.727 528.055,615.727 527.69,615.326L527.69,615.325ZM616.539,611.148C613.537,609.318 614.919,602.357 618.736,600.078C621.227,598.591 623.262,600.254 621.877,602.644C620.969,604.213 619.653,605.766 618.473,606.66C617.206,607.62 617.036,608.287 617.797,609.298C618.855,610.704 624.555,607.734 626.148,604.948C626.902,603.63 626.884,603.361 625.99,602.485C624.833,601.351 624.997,600.342 626.559,598.981C628.663,597.15 629.964,597.943 629.755,600.928C629.69,601.857 629.752,602.958 629.893,603.375C630.034,603.792 630.132,604.511 630.109,604.974C629.99,607.381 631.329,609.223 631.938,607.492C632.496,605.902 632.732,605.545 633.209,605.568C634.545,605.634 635.256,607.617 634.368,608.807C631.956,612.038 627.714,611.195 627.872,607.515C627.905,606.729 627.229,606.875 626.253,607.865C622.983,611.182 618.873,612.571 616.539,611.148ZM673.693,610.924C673.341,610.462 672.65,609.277 672.158,608.29L671.263,606.495L670.819,607.109C668.567,610.215 666.13,611.069 664.425,609.35L663.507,608.424L661.502,609.344C657.593,611.136 655.471,609.714 655.683,605.446C655.938,600.336 661.799,596.217 665.19,598.766C666.635,599.851 667.046,602.85 666.072,605.19C665.616,606.285 665.929,607.49 666.708,607.64C667.92,607.874 670.709,603.475 670.819,601.154C670.892,599.616 671.225,599.167 672.256,599.216C673.319,599.27 673.481,599.692 673.65,602.867C674.1,611.337 676.167,610.633 678.446,601.232C678.68,600.267 678.774,600.182 679.641,600.15C680.822,600.105 680.929,600.267 681.696,603.241C682.991,608.259 683.06,608.382 684.415,608.109C685.022,607.987 685.068,607.864 685.15,606.155C685.289,603.226 688.44,599.048 691.272,598.037C692.367,597.647 692.384,597.565 692.306,593.018C692.214,587.654 693.025,584.841 694.642,584.918C696.055,584.988 696.622,587.568 696.608,593.87C696.599,598.111 696.668,598.996 697.057,599.587C697.98,600.989 697.805,601.613 696.368,602.05C695.656,602.267 695.827,604.009 696.874,607.199C697.72,609.777 697.709,610.359 696.811,610.597C696.087,610.79 695.214,609.849 694.72,608.345C694.243,606.89 694.134,606.878 692.52,608.113C690.277,609.828 688.197,610.232 686.542,609.274C685.781,608.833 685.683,608.841 684.298,609.461C682.498,610.267 681.844,610.1 681.052,608.633C680.72,608.02 680.256,607.248 680.019,606.919L679.588,606.319L679.379,606.95C678.117,610.746 675.144,612.824 673.693,610.924L673.693,610.924ZM661.28,607.226L662.76,606.294L662.964,603.598C663.194,600.555 663.203,600.566 661.223,601.305C658.986,602.141 657.793,603.881 657.936,606.099C658.083,608.359 658.993,608.666 661.28,607.226L661.28,607.226ZM691.74,606.076L693.231,604.626L693.131,603.182C692.914,600.071 691.299,600.112 688.622,603.296C685.711,606.758 688.491,609.238 691.74,606.076ZM567.565,601.675C559.541,591.897 562.326,578.477 574.928,566.193C576.96,564.213 577.06,562.331 575.061,563.684C572.569,565.37 571.159,565.45 569.61,563.991L568.564,563.006L567.078,564.4C565.173,566.189 564.555,566.204 563.258,564.493L562.321,563.257L561.342,564.119C559.569,565.68 556.437,566.378 555.649,565.388C552.82,561.834 554.826,557.135 560.238,554.637C562.625,553.535 562.378,553.537 563.707,554.601L564.789,555.468L564.642,558.561C564.519,561.15 564.57,561.782 564.959,562.445L565.423,563.237L566.05,562.524C567.142,561.28 567.955,559.565 568.244,557.89C569.153,552.634 571.858,552.6 571.275,557.853C570.768,562.428 571.77,563.857 574.038,561.795C575.345,560.607 576.135,558.939 576.399,556.811C576.635,554.912 576.933,554.416 577.808,554.457C579.069,554.52 579.291,555.272 579.101,558.874C579.005,560.699 578.993,562.195 579.076,562.199C579.158,562.203 580.23,561.497 581.458,560.631C585.244,557.958 586.869,557.366 587.687,558.36C588.669,559.556 587.125,562.088 586.06,561.027C585.335,560.306 582.072,562.167 579.961,564.507L578.876,565.71L578.545,573.668C578.364,578.046 578.247,584.023 578.287,586.951C578.449,598.796 576.131,603.917 570.728,603.651L569.121,603.573L567.565,601.675ZM572.99,600.826C575.482,599.038 576.162,595.305 576.051,584.04C576.026,581.49 576.102,577.083 576.219,574.248C576.502,567.399 576.55,567.571 574.773,569.065C570.421,572.723 566.518,579.892 565.303,586.461C563.826,594.45 568.834,603.809 572.99,600.826ZM559.655,562.569C562.595,560.219 562.855,556.608 560.003,557.735C558.243,558.43 557.426,559.289 556.98,560.916C556.234,563.634 557.411,564.362 559.655,562.569ZM490.777,593.944C489.998,593.504 489.819,592.127 490.476,591.633C491.469,590.885 493.525,592.864 492.86,593.928C492.536,594.448 491.682,594.455 490.777,593.944L490.777,593.944ZM349.925,569.048C349.036,568.277 348.767,566.768 348.759,562.492L348.752,558.784L347.831,558.663C346.133,558.441 343.67,559.541 343.704,560.507C343.753,561.935 340.758,561.464 339.664,559.872C338.305,557.892 339.593,557.319 347.075,556.571C348.888,556.39 348.929,556.293 349.196,551.611C349.457,547.037 349.514,546.886 350.869,547.208C352.278,547.542 352.389,548.031 351.978,552.08C351.576,556.046 351.539,555.97 353.533,555.28C354.653,554.893 354.822,554.577 354.987,552.563C355.122,550.912 355.907,548.307 356.681,546.945C358.575,543.611 359.868,543.236 361.979,545.407C365.086,548.604 363.852,552.695 359.032,555.177L357.359,556.038L357.022,558.067C356.661,560.247 356.807,563.685 357.261,563.67C357.406,563.665 357.979,562.905 358.533,561.983C361.599,556.874 362.314,556.14 363.287,557.109C363.679,557.499 363.759,557.961 363.695,559.47C363.61,561.457 363.959,564.157 364.429,565.14C365.15,566.653 366.901,566.101 367.248,564.252C367.97,560.401 371.003,556.002 372.875,556.091C375.005,556.193 377.823,560.673 376.509,561.868C375.406,562.87 376.402,565.254 377.806,564.971C378.691,564.794 379.475,563.168 379.463,561.533C379.439,558.076 379.875,557.208 381.403,557.669C382.247,557.925 382.555,558.688 382.593,560.619C382.636,562.83 382.789,563.98 383.041,563.992C383.415,564.007 384.888,561.393 386.158,558.457C387.531,555.284 387.83,554.968 388.955,555.497L389.712,555.854L389.454,558.946C389.065,563.61 389.625,564.819 391.487,563.334C393.292,561.895 394.303,562.791 392.889,564.577C390.703,567.338 388.477,567.29 387.385,564.457C386.873,563.129 386.724,563.118 385.865,564.345C384.02,566.98 382.087,567.687 380.685,566.237L380.153,565.687L378.988,566.57C377.44,567.742 376.457,567.698 374.896,566.386C373.465,565.182 373.682,565.165 372.571,566.566C371.099,568.423 369.849,568.792 368.133,567.875C367.288,567.424 367.145,567.418 365.957,567.783C363.681,568.481 362.138,566.896 361.642,563.351L361.399,561.611L360.736,562.494C360.371,562.98 359.732,564.058 359.317,564.89C357.99,567.548 355.679,569.24 355.084,567.989C354.728,567.24 354.507,563.178 354.653,560.059C354.8,556.943 354.698,556.845 352.382,557.847C350.342,558.731 349.889,564.109 351.666,566.338C352.633,567.552 352.627,568.071 351.631,568.938C350.705,569.744 350.726,569.743 349.926,569.049L349.925,569.048ZM371.257,564.051C372.313,563.608 372.683,562.94 372.985,560.931C373.217,559.383 373.172,559.342 371.947,560.011C370.715,560.684 369.77,562.419 369.798,563.958C369.809,564.534 370.067,564.551 371.257,564.051L371.257,564.051ZM358.614,553.463C361.454,551.854 362.59,549.275 361.202,547.587C359.495,545.51 356.643,549.776 357.038,553.814C357.073,554.166 357.57,554.055 358.614,553.463ZM414.582,568.386C413.305,567.559 413.06,565.312 413.692,560.233C414.315,555.228 414.866,554.271 416.37,555.579C417.02,556.145 416.935,560.297 416.224,562.668C415.634,564.638 415.633,566.073 416.222,566.101C416.785,566.125 418.873,562.88 419.313,561.295C419.95,559.002 421.789,558.636 422.041,560.752C422.24,562.422 422.795,564.227 423.349,565.005L423.875,565.744L424.362,565.197C425.085,564.386 425.391,561.758 425.213,557.887C425.039,554.113 424.991,553.937 424.373,554.768C423.462,555.993 422.526,554.918 422.908,553.087C423.5,550.259 426.31,550.977 426.767,554.072C427.882,561.615 427.721,564.536 426.078,566.591C424.531,568.525 423.139,568.378 421.173,566.072L420.35,565.106L419.591,565.909C417.401,568.227 415.663,569.087 414.581,568.386L414.582,568.386ZM431.376,567.409C430.375,566.307 430.169,565.638 429.808,562.306C429.239,557.056 429.839,554.961 431.677,555.786L432.783,556.282L433.737,555.521C436.657,553.194 438.768,554.69 438.828,559.13C438.872,562.364 438.826,562.299 440.354,561.308C442.531,559.896 442.702,559.647 442.384,558.366C441.565,555.069 445.735,551.569 447.448,554.116C447.993,554.927 447.703,556.165 446.649,557.525C446.062,558.284 445.927,559.18 446.356,559.474C446.817,559.79 447.528,561.831 447.492,562.732C447.424,564.385 448.376,566.629 449.084,566.487C449.471,566.409 449.703,566.478 449.694,566.669C449.675,567.084 446.273,566.606 445.838,566.126C445.662,565.932 445.377,564.896 445.204,563.821C444.66,560.443 444.514,560.334 442.6,561.879C440.995,563.175 439.032,564.396 438.206,564.612C437.875,564.699 437.017,565.462 436.299,566.309C434.245,568.731 432.859,569.041 431.376,567.409ZM434.692,565.345C435.316,564.551 435.319,564.527 434.831,564.225C434.556,564.056 433.835,563.389 433.229,562.742L432.127,561.567L432.165,563.123C432.233,565.869 433.443,566.933 434.692,565.345ZM436.726,559.686C436.758,557.427 436.753,557.41 436.042,557.293C434.061,556.969 433.558,560.672 435.39,562.09C436.371,562.849 436.689,562.278 436.726,559.686ZM453.287,566.311C451.423,565.026 450.782,563.41 451.198,561.046C451.595,558.797 456.947,553.48 458.379,553.913L458.942,554.083L459.091,548.405C459.25,542.346 459.343,541.931 460.529,541.987C461.871,542.054 463.012,546.955 463.272,553.773C463.346,555.743 463.527,557.708 463.673,558.14C463.907,558.835 463.869,558.967 463.34,559.283C462.596,559.727 462.576,560.092 463.213,561.528C464.274,563.921 465.148,564.443 465.904,563.137C466.16,562.695 466.809,561.779 467.345,561.103L468.321,559.872L467.804,558.725C466.695,556.272 468.537,552.547 470.556,553.157C471.725,553.511 471.948,555.047 471.257,558C470.882,559.605 470.889,559.667 471.607,560.97C473.698,564.761 471.88,567.384 468.775,565.055L467.872,564.377L466.577,565.347C464.622,566.812 463.182,566.213 461.471,563.223L461.081,562.542L459.177,564.411C456.586,566.953 454.973,567.473 453.287,566.311L453.287,566.311ZM456.914,563.956C460.988,560.614 461.218,555.606 457.231,557.053C453.924,558.254 452.19,563.056 454.575,564.408C455.519,564.944 455.77,564.895 456.914,563.956L456.914,563.956ZM469.756,562.558C469.763,562.412 469.65,562.288 469.504,562.281C469.359,562.274 469.234,562.387 469.227,562.532C469.22,562.678 469.334,562.802 469.479,562.809C469.625,562.816 469.749,562.703 469.756,562.558ZM497.828,566.26C493.736,564.877 493.309,554.929 497.202,551.669C499.613,549.65 501.038,551.089 500.93,555.433C500.89,557.028 499.856,557.076 499.464,555.501C499.121,554.119 498.611,554.147 497.756,555.592C495.659,559.139 496.997,564.631 499.909,564.432C501.931,564.293 502.232,564.004 502.16,562.267C501.961,557.478 507.664,551.391 509.897,554.008C510.778,555.039 511.204,556.539 511.078,558.168C510.86,560.99 511.534,563.222 512.618,563.274C513.659,563.327 515.744,559.122 515.857,556.746C515.959,554.611 517.113,553.714 518.112,554.993C518.49,555.476 518.881,560.028 518.761,562.54C518.594,566.012 520.473,563.896 523.077,557.679C525.324,552.316 526.908,552.264 526.704,557.562C526.534,561.993 526.827,563.268 528.055,563.429C529.73,563.648 529.273,565.184 527.451,565.459C526.346,565.625 524.796,564.847 524.672,564.064C524.618,563.724 524.489,562.965 524.384,562.377L524.193,561.308L523.858,562.031C522.946,564.001 520.02,566.937 518.756,567.153C517.773,567.32 517.236,566.722 516.77,564.941C516.346,563.319 516.268,563.305 514.484,564.533C512.247,566.071 510.375,565.772 509.399,563.718C508.993,562.864 508.66,562.939 507.716,564.097C506.684,565.361 505.4,565.926 504.205,565.642C503.613,565.502 502.787,565.582 501.742,565.891C499.726,566.482 498.754,566.573 497.828,566.26L497.828,566.26ZM505.935,561.875C507.284,561 507.66,560.386 508.274,558.052C508.792,556.082 508.774,556.035 507.695,556.53C506.121,557.251 504.597,559.59 504.51,561.418C504.442,562.845 504.44,562.844 505.935,561.875ZM548.712,567.658C546.332,566.809 545.585,565.465 545.829,562.471C545.936,561.159 545.823,560.291 545.348,558.78C544.44,555.892 544.575,554.043 545.768,553.014C548.117,550.988 549.985,551.138 549.526,553.316C549.383,553.998 549.25,555.315 549.23,556.244C549.2,557.672 549.109,557.987 548.639,558.284C547.789,558.82 547.835,560.067 548.721,560.543C549.298,560.853 549.436,561.127 549.459,562C549.481,562.866 549.753,563.412 550.858,564.807C552.347,566.688 552.342,566.918 550.8,567.625C549.977,568.002 549.688,568.007 548.711,567.658L548.712,567.658ZM614.613,567.126C612.172,564.157 613.053,552.881 615.661,553.711C616.92,554.111 616.968,554.251 616.565,556.333C615.476,561.962 615.389,562.684 615.658,563.855C615.967,565.202 616.384,565.344 616.966,564.3C617.194,563.891 617.805,562.844 618.324,561.973C619.053,560.75 619.321,559.956 619.499,558.487C619.907,555.134 620.116,554.525 620.943,554.278C622.245,553.888 622.498,554.507 622.389,557.809C622.128,565.684 626.549,564.127 627.345,556.064C627.9,550.439 625.906,543.283 623.929,543.804C622.445,544.195 622.307,544.088 622.151,542.436C621.864,539.4 623.077,539.331 625.645,542.237C628.575,545.555 629.637,549.477 629.367,555.985C629.146,561.291 628,563.742 625.2,564.893C623.53,565.58 622.78,565.413 621.529,564.076C620.418,562.89 620.611,562.835 619.598,564.626C618.184,567.123 615.654,568.392 614.613,567.126ZM632.792,565.809C632.079,565.188 631.202,564.552 630.842,564.396C630.006,564.031 629.79,563.371 630.282,562.681C630.496,562.381 630.732,561.308 630.811,560.276C631.158,555.734 635.15,552.335 636.733,555.233C637.64,556.893 637.102,559.022 635.194,561.328C633.824,562.985 633.733,563.572 634.721,564.382C635.588,565.093 636.821,564.588 638.868,562.683C641.006,560.692 641.684,561.298 640.029,563.721C637.793,566.995 635.06,567.784 632.792,565.809ZM399.275,554.481C392.92,551.764 391.703,544.649 395.687,533.507C397.881,527.37 402.028,521.079 406.85,516.57C407.866,515.621 408.455,514.856 408.474,514.464C408.52,513.488 408.143,513.484 407.126,514.448C406.215,515.311 406.129,515.336 404.776,515.115C403.533,514.913 403.206,514.971 401.938,515.619C399.03,517.103 397.214,516.21 396.458,512.924L396.085,511.3L395.488,512.262C390.993,519.506 388.926,518.323 389.447,508.804C389.614,505.746 389.846,504.98 390.589,505.022C391.712,505.085 391.813,505.443 391.771,509.214C391.719,513.883 391.858,513.974 393.698,510.468C396.322,505.467 396.735,505.011 397.734,506.004C398.061,506.33 398.206,507.042 398.261,508.595C398.444,513.72 399.568,515.567 401.598,514.077L402.201,513.635L401.745,512.031C400.481,507.591 404.137,503.049 407.185,505.273C407.757,505.69 408.204,505.802 408.959,505.718C410.524,505.544 410.933,506.111 410.618,508.019C410.395,509.37 410.526,512.518 410.818,512.84C411.084,513.132 412.563,512.15 414.441,510.435C416.98,508.116 417.991,508.289 417.126,510.895C416.726,512.101 415.822,512.89 414.554,513.142C414.145,513.223 413.193,513.831 412.437,514.493C410.859,515.876 410.868,515.832 411.23,520.189C411.848,527.623 411.365,545.592 410.48,548.107C408.657,553.289 403.435,556.26 399.275,554.481L399.275,554.481ZM404.606,552.353C406.815,550.975 408.222,548.851 408.839,545.967C409.465,543.037 409.583,530.322 409.067,521.166C408.953,519.142 408.862,517.439 408.865,517.382C408.915,516.33 405.47,519.709 402.927,523.207C396.25,532.39 393.24,544.827 396.425,550.074C398.181,552.966 401.944,554.014 404.606,552.353ZM406.243,512.065C407.266,510.764 407.472,508.14 406.6,507.508C404.887,506.265 402.868,509.813 404.072,511.95C404.706,513.075 405.419,513.113 406.243,512.065L406.243,512.065ZM594.091,564.062C593.759,563.696 593.99,562.702 594.56,562.045C595.662,560.773 597.219,561.422 597.138,563.121C597.097,563.97 594.685,564.715 594.091,564.062ZM658.413,566.86C658.199,566.759 657.563,566.313 657,565.871C656.092,565.158 655.869,565.091 655.043,565.287C652.642,565.853 651.317,564.988 650.447,562.286C649.938,560.705 649.473,560.481 648.808,561.495C646.904,564.393 643.39,565.27 643.507,562.817C643.569,561.517 644.301,560.586 645.462,560.332C647.623,559.859 648.575,557.892 647.271,556.595C646.322,555.65 646.908,553.652 648.488,552.446C649.983,551.305 651.306,552.053 651.505,554.153C651.558,554.723 651.74,555.673 651.907,556.263C652.075,556.854 652.257,557.935 652.311,558.666C652.564,562.047 653.351,563.614 654.625,563.275C655.022,563.169 655.111,562.853 655.163,561.374C655.291,557.702 657.697,554.292 660.082,554.402C662.567,554.521 662.351,558.535 659.668,562.108C658.389,563.811 658.356,563.953 659.112,564.538C660.551,565.651 663.105,564.844 663.873,563.034C664.74,560.992 667.163,561.107 667.064,563.185C666.951,565.567 661.005,568.092 658.413,566.86L658.413,566.86ZM658.942,559.308C659.548,558.261 659.182,558.035 658.369,558.955C657.582,559.846 657.362,560.921 658.076,560.383C658.313,560.205 658.702,559.721 658.942,559.308ZM694.01,565.183C693.79,564.889 693.87,564.339 694.355,562.82C695.245,560.037 695.208,559.982 693.451,561.456C689.298,564.94 686.068,565.015 683.989,561.676C681.094,557.024 683.528,549.955 687.953,550.165C690.893,550.305 690.544,556.124 687.352,560.182C685.248,562.858 689.539,562.602 692.233,559.891C694.244,557.868 695.012,555.781 694.729,553.112C694.413,550.126 696.929,550.056 697.375,553.038C697.753,555.558 698.175,555.591 699.719,553.223C701.259,550.86 702.405,550.617 704.535,552.203C706.555,553.708 706.271,554.771 704.018,554.137C703.058,553.867 702.251,554.062 701.844,554.676C701.729,554.847 701.064,555.677 700.365,556.52C698.465,558.812 699.156,560.746 702.203,561.669C703.096,561.94 703.402,562.162 703.384,562.527C703.317,563.939 700.999,563.775 698.896,562.209L697.61,561.251L697.194,561.824C696.966,562.139 696.628,562.801 696.443,563.296C695.671,565.366 695.498,565.623 694.895,565.595C694.567,565.581 694.169,565.394 694.01,565.183L694.01,565.183ZM686.664,556.884C688.299,553.922 688.298,552.394 686.661,553.428C685.785,553.981 685.4,554.739 685.102,556.494C684.617,559.352 685.218,559.502 686.663,556.884L686.664,556.884ZM708.713,563.219C706.197,560.889 707.944,550.852 710.841,550.99C711.244,551.007 713.109,552.988 713.091,553.376C713.082,553.575 712.662,553.887 712.16,554.07C711.475,554.318 711.151,554.653 710.87,555.402C710.663,555.953 710.39,556.523 710.264,556.669C710.137,556.815 709.918,557.698 709.778,558.632C709.349,561.475 710.644,562.435 712.541,560.682C712.958,560.296 713.749,559.573 714.299,559.076C715.206,558.254 715.303,558.038 715.354,556.742C715.472,553.708 716.704,551.541 717.992,552.102C718.863,552.482 718.995,553.094 718.578,554.819C718.101,556.793 718.411,559.051 719.241,559.649C719.7,559.98 720.477,559.415 721.377,558.098C722.594,556.316 723.133,556.415 722.837,558.366C722.339,561.653 719.135,563.19 716.968,561.183L716.178,560.452L715.059,561.459C712.617,563.657 709.976,564.389 708.713,563.219ZM439.423,549.27C437.226,548.277 434.734,544.858 433.366,540.959C431.511,535.674 434.276,525.231 438.939,519.904C440.015,518.675 439.837,518.437 438.586,519.434C436.707,520.933 434.277,520.574 433.229,518.643C430.68,513.946 432.795,504.633 435.688,507.815C436.611,508.831 436.47,511.194 435.435,512.066C433.533,513.667 434.842,519.324 436.888,518.351C438.653,517.512 440.799,514.158 440.901,512.079C440.956,510.971 441.513,509.103 441.943,508.588C442.576,507.83 444.43,508.801 444.088,509.712C444.013,509.911 443.829,511.052 443.678,512.247C443.327,515.033 443.49,515.042 446.255,512.38C448.362,510.35 448.426,510.313 449.189,510.643C449.915,510.957 450,510.93 450.392,510.251C452.51,506.594 456.936,509.141 456.71,513.888C456.687,514.365 456.775,514.828 456.905,514.918C457.19,515.113 458.305,513.759 458.333,513.185C458.343,512.962 458.467,512.715 458.608,512.637C458.749,512.559 458.974,511.936 459.107,511.254C459.575,508.866 460.113,508.394 461.454,509.196C461.895,509.46 461.937,509.794 461.827,512.114C461.703,514.721 462.419,518.745 463.089,519.204C464.111,519.905 465.788,517.698 466.204,515.105C466.811,511.325 467.592,509.744 468.822,509.802C470.089,509.866 470.207,510.338 469.616,513.001C468.831,516.539 468.816,518.084 469.561,519.027C470.396,520.086 471.08,519.714 471.356,518.052C471.598,516.593 471.71,516.474 472.764,516.555C475.581,516.769 474.871,519.765 471.668,521.175C469.762,522.014 468.998,521.929 467.808,520.747C466.609,519.555 466.64,519.557 465.159,520.621C463.564,521.77 462.483,521.742 461.556,520.528C460.872,519.631 459.74,516.998 459.77,516.371C459.816,515.392 457.584,516.822 455.132,519.342C451.922,522.64 450.402,523.12 449.107,521.244C448.118,519.81 447.328,516.823 447.405,514.807C447.455,513.491 447.258,513.538 445.656,515.225C443.155,517.858 442.958,519.414 444.365,525.456C448.095,541.484 448.176,545.089 444.865,547.862C443.035,549.394 440.913,549.942 439.423,549.268L439.423,549.27ZM442.857,547.111C446.054,545.091 446.043,541.788 442.789,527.899C442.07,524.832 441.557,522.265 441.411,521.013C441.19,519.109 440.402,519.818 437.982,524.094C433.499,532.019 433.267,539.8 437.357,545.064C438.939,547.099 441.415,548.021 442.857,547.111L442.857,547.111ZM452.534,519.205L453.045,518.416L451.949,517.51C451.347,517.012 450.641,516.213 450.381,515.733L449.909,514.861L449.776,515.882C449.703,516.444 449.754,517.251 449.889,517.676C450.025,518.1 450.254,518.818 450.399,519.269C450.752,520.367 451.802,520.335 452.534,519.205L452.534,519.205ZM454.324,516.109C454.819,514.982 454.667,512.339 454.061,511.564L453.458,510.792L452.759,511.388C451.459,512.497 451.493,514.167 452.848,515.73C453.593,516.589 454.061,516.709 454.324,516.109L454.324,516.109ZM738.83,562.526C737.953,561.867 737.749,561.827 735.423,561.86C733.541,561.887 732.735,561.79 732.053,561.456C731.197,561.036 731.093,561.048 729.665,561.725C726.87,563.049 726.351,562.36 725.473,556.155C724.453,548.952 724.755,541.748 726.129,540.499L726.699,539.98L727.404,540.559C728.189,541.202 728.438,542.867 728.033,544.756L727.815,545.773L729.55,545.678C730.505,545.626 731.502,545.481 731.765,545.355C732.029,545.23 733.118,545.138 734.186,545.151C738.861,545.207 734.374,547.79 728.364,548.502C727.82,548.566 727.314,548.706 727.241,548.813C726.907,549.301 728.105,559.247 728.558,559.746C729.093,560.334 729.631,559.267 729.729,557.422C729.968,552.959 732.362,549.643 734.811,550.383C736.586,550.919 736.523,553.511 734.651,556.985C733.249,559.587 733.272,559.672 735.428,559.89L737.01,560.051L737.115,559.261C737.576,555.825 739.453,553.214 742.557,551.692L743.761,551.101L744.017,546.478C744.338,540.671 745.314,537.798 746.94,537.876C749.283,537.988 749.568,544.852 747.667,555.332C747.125,558.318 747.766,559.339 748.918,557.324C749.65,556.043 750.043,555.825 750.465,556.463C751.781,558.455 749.176,561.53 746.785,560.807C746.252,560.646 745.889,560.798 744.949,561.58C742.618,563.516 740.569,563.833 738.83,562.527L738.83,562.526ZM742.508,560.936C743.928,560.369 744.742,558.776 744.476,557.088C744.347,556.266 744.253,555.341 744.268,555.031C744.326,553.823 743.026,554.114 741.422,555.668C738.786,558.222 739.585,562.103 742.508,560.936ZM733.718,554.772C734.034,554.05 733.868,553.642 733.33,553.82C732.993,553.931 732.338,555.376 732.299,556.092C732.277,556.494 733.435,555.417 733.718,554.772ZM747.071,546.241C747.129,545.014 747.075,543.94 746.95,543.854C746.611,543.622 746.476,544.387 746.478,546.528C746.48,549.19 746.941,548.967 747.071,546.241ZM640.365,551.294C640.032,550.83 639.147,550.016 638.398,549.485C636.983,548.482 636.633,547.486 637.438,546.754C638.668,545.635 642.307,549.084 642.202,551.27C642.143,552.516 641.249,552.527 640.365,551.294L640.365,551.294ZM720.109,549.529C719.517,548.682 719.483,548.669 718.846,549.072C717.377,550 716.625,548.804 716.936,546.035C717.18,543.863 718.97,544.594 720.889,547.649C722.023,549.453 721.29,551.221 720.109,549.529ZM352.094,519.671C351.521,519.149 351.456,517.663 351.713,511.027L351.824,508.163L350.956,508.302C350.479,508.378 349.782,508.622 349.407,508.844C349.032,509.066 348.4,509.373 348.001,509.526C347.162,509.847 347.077,511.36 347.719,514.564C348.093,516.43 347.965,517.159 347.118,517.986C345.834,519.239 345.478,518.572 345.394,514.755C345.298,510.33 345.209,509.848 344.587,510.359C343.924,510.905 343.621,510.838 342.761,509.959C342.351,509.539 341.718,508.967 341.356,508.688C339.48,507.243 341.254,506.27 344.08,507.194C344.61,507.368 344.635,507.264 344.982,503.463C345.659,496.061 345.777,495.467 346.571,495.51C347.899,495.583 347.99,495.825 347.682,498.509C346.573,508.171 346.468,507.862 350.354,506.314C352.156,505.596 352.192,505.515 352.555,501.462C353.309,493.025 354.208,491.199 356.368,493.719C358.395,496.084 357.761,502.77 355.297,505.009C353.683,506.477 353.108,516.385 354.596,517.086C355.489,517.507 355.481,517.469 354.852,518.358C353.817,519.818 352.791,520.306 352.094,519.671L352.094,519.671ZM355.459,501.632C356.003,500.487 356.2,497.196 355.717,497.332C355.275,497.455 355,498.545 354.857,500.734C354.726,502.746 354.846,502.924 355.459,501.632L355.459,501.632ZM358.594,517.002C356.757,514.982 357.727,510.349 360.701,506.94C362.438,504.949 363.894,504.991 365.847,507.089L366.918,508.24L366.796,510.894C366.666,513.721 366.72,513.963 367.597,514.479C369.067,515.344 370.093,513.779 370.274,510.394C370.543,505.383 373.041,503.914 373.116,508.722C373.207,514.485 373.501,515.594 374.6,514.309C375.317,513.47 376.345,510.516 376.418,509.083C376.494,507.586 376.777,507.211 377.71,507.364C378.787,507.54 379.085,508.436 378.962,511.12C378.858,513.401 379.124,514.215 379.903,513.996C380.304,513.883 381.64,510.545 381.697,509.516C381.824,507.2 383.504,505.799 384.581,507.11C385.043,507.672 385.034,507.788 384.304,510.546C383.325,514.249 384.055,515.636 385.558,512.923C386.776,510.724 387.603,510.962 387.177,513.389C386.714,516.026 383.807,517.838 382.141,516.528C381.492,516.017 381.283,515.983 380.19,516.203C379.251,516.393 378.702,516.362 377.832,516.074C376.725,515.706 376.668,515.718 375.409,516.588C373.838,517.672 373.119,517.671 371.992,516.582C371.035,515.657 370.505,515.523 370,516.076C368.805,517.384 366.883,517.276 365.463,515.821L364.798,515.14L363.871,515.876C361.084,518.088 359.826,518.356 358.594,517.001L358.594,517.002ZM361.692,514.96C363.184,513.563 363.507,512.928 363.783,510.847C364.103,508.438 363.875,508.167 362.336,509.129C360.323,510.386 359.135,513.613 360.114,515.163C360.608,515.944 360.646,515.939 361.692,514.96ZM497.795,521.017C497.356,520.714 496.752,520.085 496.453,519.62C495.757,518.538 495.299,518.535 493.815,519.602C489.276,522.871 486.804,516.449 490.231,510.291C491.369,508.247 491.485,508.133 492.173,508.388C493.795,508.989 494.001,512.589 492.41,512.514C491.161,512.451 490.28,516.639 491.266,517.949C492.301,519.325 494.721,516.675 495.723,513.069C496.121,511.635 496.224,511.496 496.922,511.449C498.119,511.37 498.275,511.771 498.05,514.355C497.673,518.698 499.345,520.801 500.938,517.985C501.913,516.26 502.102,514.792 501.708,511.973C501.327,509.241 501.079,508.835 500.337,509.727C499.091,511.225 498.526,507.815 499.727,506.041C500.775,504.493 502.106,505.249 502.779,507.776C504.842,515.51 504.382,518.705 500.869,521.051C500.032,521.611 498.634,521.595 497.795,521.016L497.795,521.017ZM532.494,522.037C531.661,521.117 531.033,519.487 530.834,517.732C530.696,516.52 530.461,516.59 528.811,518.331C527.743,519.459 526.853,520.153 525.364,521.019C524.417,521.569 524.047,518.515 524.302,512.26C524.445,508.747 524.262,508.252 523.038,508.844C521.47,509.603 520.864,509.865 520.131,510.102C519.276,510.379 519.222,510.721 519.462,514.307C519.659,517.248 519.972,518.304 520.744,518.64C521.83,519.114 521.101,520.569 519.641,520.842C518.445,521.065 517.398,518.296 517.206,514.401C517.079,511.824 517,511.606 515.918,510.849C514.431,509.808 514.63,508.009 516.225,508.085C517.05,508.12 517.047,508.134 517.433,504.172C517.823,500.167 518,499.693 519.087,499.745C520.741,499.825 521.464,501.624 520.545,503.373C519.776,504.834 519.4,507.138 519.894,507.355C520.099,507.445 521.16,507.249 522.253,506.919L524.239,506.319L524.647,503.882C525.478,498.919 527.718,496.555 530.788,497.4C534.651,498.463 532.935,504.112 527.998,506.585C526.75,507.21 526.512,508.256 526.454,513.37C526.409,517.305 526.491,517.51 527.636,516.31C531.75,511.999 533.321,511.826 533.2,515.697C533.09,519.239 534.933,522.611 535.122,519.214C535.224,517.394 537.284,516.41 538.407,517.645C539.201,518.518 538.816,519.589 537.256,520.84C534.195,523.296 533.736,523.412 532.494,522.037ZM530.092,503C531.651,501.505 531.885,500.613 530.906,499.903C529.668,499.004 528.197,499.95 527.369,502.176C526.108,505.568 527.101,505.869 530.092,503ZM507.1,518.843C505.548,517.048 505.38,513.434 506.705,510.347C507.067,509.504 508.158,509.639 509.067,510.638C509.936,511.594 509.958,511.842 509.227,512.461C508.447,513.121 507.952,515.367 508.304,516.648C508.676,518.002 509.559,518.203 510.264,517.095C511.252,515.54 512.294,515.925 511.649,517.607C510.658,520.189 508.719,520.716 507.1,518.843ZM558.192,521.432C555.492,518.824 555.046,511.878 557.375,508.711C557.783,508.155 557.9,508.128 558.517,508.445C559.685,509.046 559.803,509.814 559.068,512.023C557.766,515.938 558.63,521.069 560.429,520.097C561.914,519.294 564.054,515.433 564.416,512.904C564.889,509.597 566.102,508.064 567.194,509.393C567.536,509.809 567.547,510.22 567.267,512.097C566.533,517.021 568.502,519.746 571.069,517.357L572.112,516.386L571.644,514.744C570.806,511.8 571.295,509.1 572.914,507.737C575.016,505.968 576.169,508.559 575.362,513.235C574.886,515.995 574.804,515.959 577.515,514.197C580.356,512.351 583.6,511.706 580.958,513.512C580.431,513.873 579.652,514.508 579.228,514.925C578.804,515.342 578.224,515.911 577.939,516.189C577.655,516.467 577.139,517.127 576.792,517.656L576.162,518.616L576.809,519.464C578.025,521.057 577.946,521.742 576.465,522.442C574.89,523.186 572.898,521.456 572.995,519.427C573.016,518.957 572.358,518.811 572.075,519.224C570.918,520.911 567.892,520.609 565.981,518.616L565.193,517.794L564.596,518.664C562.39,521.881 559.811,522.996 558.192,521.432L558.192,521.432ZM599.388,521.148C599.261,520.759 599.054,518.932 598.929,517.087C598.804,515.242 598.595,513.192 598.464,512.53C597.749,508.912 598.027,506.946 599.245,507.004C600.372,507.062 600.705,508.328 601.098,514.069C601.323,517.347 601.366,517.353 603.001,514.335C607.066,506.834 608.994,506.198 610.025,512.021C610.22,513.123 610.425,514.197 610.482,514.409C610.541,514.631 611.19,513.857 612.009,512.588C614.23,509.149 615.632,509.513 616.03,513.631C616.476,518.232 617.837,519.983 618.062,516.244C618.277,512.664 621.439,508.326 623.753,508.436C626.086,508.548 625.331,514.422 622.617,517.271C621.233,518.724 621.387,519.001 623.659,519.138C625.158,519.228 625.323,519.294 625.373,519.822C625.484,521.004 621.239,521.497 620.023,520.443C619.268,519.789 618.41,519.703 617.459,520.189C615.642,521.116 615.104,520.488 614.201,516.385C613.856,514.816 613.568,514.577 613.177,515.532C612.34,517.575 611.243,519.065 610.077,519.74C608.504,520.652 608.438,520.548 608.205,516.785C607.794,510.126 607.472,510.033 604.797,515.802C602.837,520.03 602.506,520.524 601.148,521.235C599.658,522.016 599.672,522.016 599.388,521.151L599.388,521.148ZM621.775,515.951C622.491,515.392 623.522,512.858 623.24,512.349C622.774,511.508 620.666,514.019 620.596,515.499C620.541,516.651 620.767,516.738 621.775,515.951ZM662.882,524.608C662.004,524.188 661.937,523.183 662.697,521.826L663.355,520.653L662.765,519.962C662.005,519.071 661.508,519.067 660.296,519.939C656.755,522.488 654.232,520.842 654.066,515.874C653.971,513.033 653.834,513.054 651.974,516.189C648.576,521.917 645.41,523.803 644.725,520.507C644.594,519.874 644.402,518.995 644.299,518.553C644.195,518.111 644.054,517.419 643.984,517.015C643.808,515.992 643.511,516.081 642.864,517.351C641.527,519.976 639.529,521.083 636.719,520.757C636.192,520.695 635.873,520.398 635.467,519.589C634.8,518.256 634.843,518.258 633.503,519.527C629.814,523.023 625.724,521.842 626.461,517.494C626.837,515.274 628.589,512.726 630.942,510.976C633.29,509.23 633.55,509.207 635.372,510.582C637.107,511.891 637.121,511.928 637.103,515.202C637.067,521.881 641.509,518.321 643.756,509.87C643.991,508.989 644.888,508.708 645.504,509.321C645.85,509.666 645.968,510.37 646.01,512.349C646.169,519.774 646.568,520.094 649.737,515.341C654.827,507.707 656.23,507.458 656.375,514.161C656.481,519.066 656.788,519.56 658.968,518.318L660.266,517.58L660.131,516.056C659.925,513.742 660.024,513.227 661.026,511.416C662.111,509.454 663.019,508.716 664.277,508.776C667.478,508.928 667.315,512.636 663.917,517.001C662.867,518.348 664.843,519.29 666.238,518.107C666.803,517.627 668.063,516.748 669.038,516.152C670.013,515.557 671.142,514.752 671.547,514.365C673.202,512.78 675.333,514.21 674.078,516.063C673.598,516.772 673.36,516.89 672.494,516.849C671.222,516.785 668.368,518.43 667.366,519.798L666.689,520.722L667.288,521.925C667.618,522.586 667.797,523.246 667.688,523.391C666.866,524.482 664.09,525.184 662.882,524.608L662.882,524.608ZM631.551,518.724C633.274,517.31 634.765,514.008 634.12,513.033C633.687,512.376 632.221,513.013 630.651,514.538C627.5,517.6 628.314,521.38 631.551,518.724ZM663.7,513.813C664.785,512.205 664.905,511.853 664.472,511.556C663.822,511.11 662.292,513.203 662.224,514.63C662.173,515.681 662.599,515.445 663.7,513.813ZM692.521,522.375C691.741,521.407 690.784,515.578 690.925,512.649C691.059,509.837 691.183,509.527 692.153,509.573C693.378,509.635 693.61,510.396 693.564,514.226C693.501,519.365 693.804,519.431 696.675,514.902C698.688,511.727 699.281,510.972 699.745,510.994C700.578,511.029 701.191,512.239 701.294,514.039C701.466,517.04 701.589,517.969 701.817,517.98C702.314,518.001 706.322,511.955 706.361,511.122C706.394,510.432 707.806,510.405 708.422,511.082C708.816,511.515 708.832,511.882 708.555,514.201C707.832,520.276 708.343,521.051 711.759,519.058C713.982,517.761 713.891,517.941 714.319,513.976C714.867,508.896 719.272,506.18 721.825,509.349C723.225,511.085 723.226,512.331 721.832,516.999C720.374,521.885 716.479,523.953 714.917,520.67C714.069,518.888 714.093,518.894 712.727,520.189C709.55,523.205 706.298,522.538 706.057,518.822C705.958,517.288 705.626,517.332 704.261,519.057C701.669,522.335 699.503,521.938 699.269,518.141C699.092,515.271 698.967,515.299 697.147,518.616C695.151,522.255 693.502,523.595 692.52,522.375L692.521,522.375ZM717.95,519.344C719.979,517.246 721.448,512.338 720.393,511.178C719.489,510.184 717.423,510.865 717.609,512.095C717.678,512.552 717.512,513.36 717.206,514.062C716.802,514.984 716.703,515.665 716.767,517.084C716.89,519.806 717.105,520.217 717.95,519.344ZM722.593,520.742C721.166,519.942 722.048,518.306 723.722,518.645C725.996,519.106 731.101,514.137 729.436,513.083C727.505,511.861 727.285,510.022 728.949,509.016C730.649,507.988 731.943,508.703 732.213,510.818C732.288,511.404 732.589,512.174 732.881,512.529C733.355,513.102 733.399,513.488 733.28,515.991L733.146,518.809L733.846,518.924C734.247,518.99 735.261,518.72 736.221,518.291C738.071,517.465 738.042,517.549 737.398,514.973C736.583,511.707 739.514,507.883 742.732,508.014C745.237,508.12 745.277,511.346 742.823,515.355C741.599,517.354 741.596,517.49 742.777,517.546C743.466,517.575 743.923,517.411 744.391,516.952C745.018,516.337 745.069,516.33 745.69,516.782C748.409,518.754 744.241,520.867 740.248,519.541C739.152,519.177 739.026,519.192 737.971,519.82C735.976,521.008 732.808,521.738 731.714,521.261C730.944,520.926 730.659,520.261 730.508,518.449L730.4,517.148L729.202,518.394C727.209,520.464 724.08,521.576 722.593,520.743L722.593,520.742ZM741.666,513.56C743.075,511.13 742.876,510.274 741.139,511.297C740.187,511.858 739.573,513.207 739.736,514.382C739.926,515.749 740.552,515.483 741.666,513.56ZM382.547,501.919C381.504,500.941 380.92,499.607 381.302,499.073C381.933,498.188 383.141,498.973 383.829,500.717C384.523,502.474 383.831,503.122 382.547,501.919ZM512.256,506.925C511.75,504.889 510.699,503.744 510.632,505.157C510.58,506.251 509.593,506.665 508.961,505.858C508.424,505.172 508.234,502.765 508.644,501.831C509.585,499.685 513.478,503.322 513.177,506.065C513.046,507.264 512.474,507.798 512.256,506.925Z" style="fill-rule:nonzero;"/>
        </g>
    </g>
</svg>
