<?xml version="1.0" encoding="UTF-8" standalone="no"?>
<!DOCTYPE svg PUBLIC "-//W3C//DTD SVG 1.1//EN" "http://www.w3.org/Graphics/SVG/1.1/DTD/svg11.dtd">
<svg width="100%" height="100%" viewBox="0 0 49 54" version="1.1" xmlns="http://www.w3.org/2000/svg" xmlns:xlink="http://www.w3.org/1999/xlink" xml:space="preserve" xmlns:serif="http://www.serif.com/" style="fill-rule:evenodd;clip-rule:evenodd;stroke-linejoin:round;stroke-miterlimit:2;">
    <g transform="matrix(1,0,0,1,-1173.721746,-695.449921)">
        <g transform="matrix(1.484677,0,0,1.484677,-140.963704,924.753013)">
            <g id="path1-02" transform="matrix(1,0,0,1,-164.696649,-220.036182)">
                <path d="M1069.603,100.969C1068.913,100.512 1067.851,99.609 1067.242,98.962C1066.634,98.315 1065.665,97.35 1065.089,96.817C1064.513,96.283 1063.799,95.561 1063.501,95.212C1063.204,94.863 1062.366,93.968 1061.638,93.223C1059.484,91.017 1056.309,87.467 1055.349,86.189C1054.009,84.407 1052.246,81.688 1052.246,81.405C1052.246,81.267 1052.131,80.948 1051.99,80.696C1049.784,76.726 1049.604,72.015 1051.515,68.241C1052.779,65.743 1053.179,65.427 1054.795,65.648C1058.808,66.198 1067.327,73.315 1067.327,76.117C1067.327,76.606 1068.149,77.046 1068.376,76.679C1074.077,67.454 1080.306,64.938 1082.857,70.829C1083.808,73.024 1081.791,80.682 1078.916,85.791C1075.088,92.594 1073.363,96.675 1073.275,99.137C1073.172,102.017 1072.038,102.582 1069.603,100.969ZM1070.817,97.633C1071.036,97.378 1071.766,95.777 1072.44,94.075C1073.113,92.373 1074.162,90.052 1074.771,88.916C1077.236,84.319 1078.095,82.502 1078.815,80.362C1079.23,79.129 1079.721,77.818 1079.907,77.45C1080.884,75.513 1080.573,71.296 1079.395,70.517C1076.81,68.807 1070.537,76.165 1070.509,80.939C1070.499,82.113 1070.447,82.202 1069.33,82.857C1067.812,83.747 1067.685,83.728 1067.469,82.579C1067.369,82.048 1067.13,81.364 1066.936,81.057C1066.742,80.751 1066.504,80.025 1066.405,79.443C1065.728,75.425 1062.616,71.753 1057.802,69.291C1054.146,67.421 1053.689,67.548 1052.697,70.711C1051.142,75.668 1053.517,81.758 1059.404,87.909C1060.658,89.219 1062.03,90.707 1062.455,91.216C1062.879,91.726 1063.938,92.797 1064.809,93.598C1065.68,94.398 1067.108,95.735 1067.984,96.569C1069.678,98.183 1070.183,98.372 1070.817,97.633Z" style="fill-rule:nonzero;"/>
            </g>
        </g>
    </g>
</svg>
