<?xml version="1.0" encoding="UTF-8" standalone="no"?>
<!DOCTYPE svg PUBLIC "-//W3C//DTD SVG 1.1//EN" "http://www.w3.org/Graphics/SVG/1.1/DTD/svg11.dtd">
<svg width="100%" height="100%" viewBox="0 0 51 68" version="1.1" xmlns="http://www.w3.org/2000/svg" xmlns:xlink="http://www.w3.org/1999/xlink" xml:space="preserve" xmlns:serif="http://www.serif.com/" style="fill-rule:evenodd;clip-rule:evenodd;stroke-linejoin:round;stroke-miterlimit:2;">
    <g transform="matrix(1,0,0,1,-659.738032,-1148.436332)">
        <g transform="matrix(1.484677,0,0,1.484677,-140.963704,924.753013)">
            <path id="path1-51" d="M564.083,195.682C563.261,195.48 562.957,195.136 562.262,193.618C561.907,192.843 561.153,191.694 560.586,191.065C560.019,190.435 558.621,188.611 557.478,187.01C552.74,180.372 545.789,176.122 542.123,177.621C541.428,177.905 541.205,177.872 540.337,177.358C538.814,176.458 539.014,175.152 540.745,174.686C546.147,173.231 553.247,163.069 554.686,154.731C555.337,150.956 555.941,150.069 557.22,151.006C557.673,151.339 557.724,151.661 557.656,153.77C557.585,155.96 557.642,156.284 558.349,157.693C558.773,158.538 559.205,159.506 559.311,159.845C561.046,165.435 566.178,169.912 570.472,169.582C572.633,169.416 573.476,169.747 573.476,170.762C573.476,170.994 571.497,172.297 570.001,173.049C564.074,176.028 561.347,185.456 564.573,191.818C565.249,193.152 565.803,194.414 565.803,194.621C565.803,194.972 564.973,195.912 564.724,195.843C564.663,195.826 564.374,195.754 564.083,195.682ZM560.366,186.369C560.449,186.235 560.648,185.149 560.809,183.957C561.358,179.877 563.073,175.798 565.313,173.248C566.361,172.053 566.199,171.659 563.983,170.006C561.291,167.997 560.05,166.449 557.998,162.538C555.845,158.437 555.9,158.463 554.841,161.013C552.747,166.056 550.703,169.513 547.878,172.787C546.321,174.591 545.861,175.501 546.504,175.501C547.636,175.501 552.645,178.508 555.526,180.918C556.406,181.654 559.332,185.46 559.645,186.276C559.796,186.671 560.151,186.717 560.366,186.369L560.366,186.369Z" style="fill-rule:nonzero;"/>
        </g>
    </g>
</svg>
