<?xml version="1.0" encoding="UTF-8" standalone="no"?>
<!DOCTYPE svg PUBLIC "-//W3C//DTD SVG 1.1//EN" "http://www.w3.org/Graphics/SVG/1.1/DTD/svg11.dtd">
<svg width="100%" height="100%" viewBox="0 0 48 58" version="1.1" xmlns="http://www.w3.org/2000/svg" xmlns:xlink="http://www.w3.org/1999/xlink" xml:space="preserve" xmlns:serif="http://www.serif.com/" style="fill-rule:evenodd;clip-rule:evenodd;stroke-linejoin:round;stroke-miterlimit:2;">
    <g transform="matrix(1,0,0,1,-692.800953,-1076.897148)">
        <g transform="matrix(1.484677,0,0,1.484677,-140.963704,924.753013)">
            <path id="path1-94" d="M581.728,140.447C581.399,140.028 581.142,139.141 581.02,138C580.859,136.493 580.597,135.812 579.366,133.696C578.562,132.314 577.235,129.886 576.418,128.3C573.601,122.84 566.818,117.64 563.573,118.454C563.155,118.559 562.824,118.363 562.289,117.694C561.042,116.13 561.502,114.965 563.176,115.446C566.211,116.316 570.034,114.34 574.386,109.652C576.171,107.73 576.613,106.931 576.897,105.121C577.453,101.571 580.341,101.606 579.988,105.159C579.702,108.036 581.111,111.709 583.234,113.622C585.217,115.408 585.929,115.967 586.264,116.001C587.031,116.08 589.904,115.909 591.467,115.692C592.944,115.487 593.234,115.516 593.518,115.895C594.319,116.962 593.778,117.518 589.505,120.015C586.897,121.539 585.136,123.517 584.545,125.586C584.372,126.191 584.103,126.853 583.947,127.057C583.431,127.73 583.578,135.527 584.125,136.528C585.465,138.978 583.325,142.478 581.728,140.448L581.728,140.447ZM580.996,129.926C581.063,129.599 581.19,128.855 581.277,128.272C581.8,124.783 583.32,121.628 585.344,119.831C586.138,119.125 586.057,118.857 584.781,117.967C581.553,115.715 579.385,113.341 578.285,110.853C577.594,109.292 577.834,109.203 574.985,112.067C573.646,113.413 571.806,115.083 570.896,115.778C568.856,117.337 568.852,117.26 571.064,118.597C572.833,119.666 575.202,121.905 576.795,124.016C577.551,125.017 578.243,126.216 579.748,129.132C580.534,130.654 580.811,130.83 580.996,129.926Z" style="fill-rule:nonzero;"/>
        </g>
    </g>
</svg>
