<?xml version="1.0" encoding="UTF-8" standalone="no"?>
<!DOCTYPE svg PUBLIC "-//W3C//DTD SVG 1.1//EN" "http://www.w3.org/Graphics/SVG/1.1/DTD/svg11.dtd">
<svg width="100%" height="100%" viewBox="0 0 70 102" version="1.1" xmlns="http://www.w3.org/2000/svg" xmlns:xlink="http://www.w3.org/1999/xlink" xml:space="preserve" xmlns:serif="http://www.serif.com/" style="fill-rule:evenodd;clip-rule:evenodd;stroke-linejoin:round;stroke-miterlimit:2;">
    <g transform="matrix(1,0,0,1,-779.744401,-1032.114711)">
        <g transform="matrix(1.484677,0,0,1.484677,-140.963704,924.753013)">
            <path id="path1-64" d="M657.386,139.959C657.225,139.765 656.421,137.654 655.599,135.268C653.046,127.854 652.23,126.288 647.96,120.6C647.305,119.726 646.48,118.595 646.127,118.086C640.763,110.341 629.09,104.453 624.922,107.391C624.526,107.671 620.396,106.496 620.173,104.573C619.912,102.331 621.256,101.449 622.884,102.794C623.258,103.103 624.801,102.877 625.996,102.338C626.432,102.141 627.242,101.797 627.795,101.574C635.999,98.266 645.863,83.815 645.335,75.879C645.151,73.115 645.468,72.313 646.748,72.313C647.94,72.313 648.109,72.789 648.27,76.593C648.505,82.153 648.931,83.459 652.87,90.716C654.592,93.888 656.724,96.472 659.158,98.336C661.333,100.003 661.61,100.106 664.437,100.308L667.006,100.491L667.089,101.351C667.16,102.087 667.064,102.251 666.428,102.488C666.018,102.64 665.544,102.947 665.374,103.17C665.204,103.394 664.353,104.078 663.483,104.691C658.364,108.295 654.764,116.662 655.932,122.236C656.354,124.247 657.492,130.518 658.273,133.018C659.121,135.73 659.227,137.262 659.351,138.087C659.608,139.802 658.295,141.054 657.386,139.959ZM653.254,121.327C652.954,117.519 654.102,112.821 656.013,110.03C656.417,109.44 657.015,108.422 657.343,107.767C657.671,107.112 658.648,105.642 659.514,104.501C660.381,103.359 661.052,102.398 661.005,102.367C660.958,102.335 659.892,101.634 658.636,100.808C656.567,99.449 654.204,97.137 652.769,95.067C650.263,91.453 648.074,87.28 647.01,84.087C646.47,82.468 646.326,82.456 645.661,83.972C642.096,92.109 637.28,97.876 629.639,103.157C628.329,104.063 628.239,104.327 629.237,104.33C632.375,104.34 636.16,106.085 640.901,109.713C642.259,110.753 643.688,111.812 644.076,112.067C644.464,112.321 645.288,113.154 645.909,113.919C649.854,118.779 650.998,120.264 652.025,121.856C653.476,124.105 653.473,124.106 653.254,121.327Z" style="fill-rule:nonzero;"/>
        </g>
    </g>
</svg>
