<?xml version="1.0" encoding="UTF-8" standalone="no"?>
<!DOCTYPE svg PUBLIC "-//W3C//DTD SVG 1.1//EN" "http://www.w3.org/Graphics/SVG/1.1/DTD/svg11.dtd">
<svg width="100%" height="100%" viewBox="0 0 731 346" version="1.1" xmlns="http://www.w3.org/2000/svg" xmlns:xlink="http://www.w3.org/1999/xlink" xml:space="preserve" xmlns:serif="http://www.serif.com/" style="fill-rule:evenodd;clip-rule:evenodd;stroke-linejoin:round;stroke-miterlimit:2;">
    <g transform="matrix(1,0,0,1,-633.605792,-1462.923141)">
        <g transform="matrix(8.007111,0,0,8.007111,972.565437,4456.251167)">
            <g id="path1-9" transform="matrix(1,0,0,1,-85.999573,60.945826)">
                <path d="M119.898,-393.736C119.898,-395.413 120.326,-395.973 122.075,-396.583C126.752,-398.213 128.122,-394.793 123.72,-392.476C121.041,-391.066 119.898,-391.443 119.898,-393.736ZM123.496,-404.054C123.499,-406.009 125.344,-409.131 128.453,-412.439C131.729,-415.925 132.629,-417.74 130.924,-417.418C130.199,-417.282 129.282,-416.432 128.887,-415.531C128.072,-413.673 125.44,-413.597 125.093,-415.421C124.471,-418.685 132.059,-422.013 134.211,-419.42C135.696,-417.63 134.593,-415.011 130.772,-411.256C128.854,-409.372 126.893,-406.616 126.412,-405.133C125.456,-402.178 123.492,-401.452 123.496,-404.054ZM99.926,-403.998C99.44,-404.484 99.042,-405.628 99.042,-406.54C99.042,-408.196 99.037,-408.195 96.111,-406.075C91.308,-402.595 79.626,-403.137 79.626,-406.839C79.626,-408.572 79.017,-408.544 77.076,-406.721C72.142,-402.086 69.485,-406.939 72.077,-415.853C73.43,-420.508 73.239,-420.922 70.3,-419.705C68.652,-419.023 68.12,-418.339 68.12,-416.907C68.12,-407.196 56.151,-400.105 54.03,-408.558C53.449,-410.87 53.21,-410.827 50.164,-407.852C47.204,-404.961 44.236,-404.235 43.809,-406.296C42.854,-410.907 46.932,-419.953 49.78,-419.54C51.785,-419.249 51.347,-416.189 49.03,-414.312C46.707,-412.429 45.209,-407.809 47.282,-408.918C48.673,-409.662 52.649,-413.681 55.035,-416.754C57.157,-419.487 58.182,-418.077 56.795,-414.333C54.084,-407.018 60.548,-404.791 64.168,-411.793C66.058,-415.447 65.602,-417.946 62.906,-418.72C61.083,-419.242 60.569,-419.78 60.569,-421.161C60.569,-423.385 63.94,-424.043 65.962,-422.213C68.876,-419.575 73.635,-421.424 76.002,-426.113C80.558,-435.138 86.098,-437.759 86.098,-430.888C86.098,-428.94 83.823,-426.343 79.76,-423.655C76.626,-421.58 74.153,-416.659 73.343,-410.886C72.844,-407.331 73.588,-407.481 77.828,-411.785C79.776,-413.763 81.983,-415.381 82.734,-415.381C84.163,-415.381 84.167,-415.019 82.814,-408.369C82.331,-405.991 82.749,-405.62 84.961,-406.469C85.625,-406.723 86.098,-407.747 86.098,-408.93C86.098,-410.069 86.927,-411.941 87.991,-413.206C92.016,-417.989 95.345,-413.538 91.507,-408.505C89.576,-405.973 90.013,-405.409 92.797,-406.839C95.917,-408.442 98.323,-411.291 98.323,-413.381C98.323,-416.242 100.178,-416.73 102.444,-414.464C104.256,-412.652 104.265,-412.585 103.119,-409.72C101.938,-406.768 102.282,-405.642 104.034,-406.725C104.612,-407.082 104.835,-407.962 104.588,-408.907C103.944,-411.368 105.412,-413.678 108.505,-415.072C113.62,-417.379 115.049,-412.622 110.483,-408.49C108.717,-406.891 108.74,-406.032 110.549,-406.032C111.369,-406.032 111.987,-405.553 111.987,-404.917C111.987,-404.042 111.251,-403.839 108.571,-403.973C106.693,-404.067 104.178,-403.912 102.983,-403.629C101.588,-403.298 100.494,-403.43 99.927,-403.997L99.926,-403.998ZM90.083,-410.395C90.857,-411.647 89.975,-411.912 88.989,-410.724C88.422,-410.04 88.367,-409.628 88.844,-409.628C89.265,-409.628 89.822,-409.973 90.083,-410.395L90.083,-410.395ZM109.125,-410.724C110.515,-412.398 109.523,-412.714 108.036,-411.071C107.318,-410.277 107.064,-409.628 107.473,-409.628C107.881,-409.628 108.625,-410.121 109.125,-410.724ZM80.997,-426.707C81.717,-427.4 82.686,-428.694 83.149,-429.584C84.546,-432.268 82.018,-431.621 80.337,-428.865C78.204,-425.366 78.521,-424.33 80.997,-426.707Z" style="fill-rule:nonzero;"/>
            </g>
        </g>
    </g>
</svg>
