<?xml version="1.0" encoding="UTF-8" standalone="no"?>
<!DOCTYPE svg PUBLIC "-//W3C//DTD SVG 1.1//EN" "http://www.w3.org/Graphics/SVG/1.1/DTD/svg11.dtd">
<svg width="100%" height="100%" viewBox="0 0 707 371" version="1.1" xmlns="http://www.w3.org/2000/svg" xmlns:xlink="http://www.w3.org/1999/xlink" xml:space="preserve" xmlns:serif="http://www.serif.com/" style="fill-rule:evenodd;clip-rule:evenodd;stroke-linejoin:round;stroke-miterlimit:2;">
    <g transform="matrix(1,0,0,1,-1056.266156,-1535.062419)">
        <g transform="matrix(3.708945,0,0,3.708945,-1060.351972,-1211.68347)">
            <path id="path1-5" d="M599.874,838.783C599.576,837.714 599.375,832.099 599.428,826.306C599.549,813.136 599.147,812.934 592.626,822.879C587.322,830.967 583.537,835.373 582.258,834.946C580.717,834.433 581.269,833.36 585.518,828.603C589.989,823.598 595.483,815.92 595.514,814.633C595.551,813.105 588.755,812.139 580.308,812.47C575.807,812.647 571.756,812.565 571.307,812.287C569.335,811.068 571.937,810.383 580.154,809.959C585.004,809.709 590.603,809.325 592.598,809.105C596.158,808.714 598.045,809.878 594.67,810.384C593.29,810.591 593.366,810.708 595.349,811.428C597.92,812.362 601.585,807.156 603.087,800.437C604.045,796.149 605.926,792.289 607.058,792.289C608.398,792.289 608.213,793.459 605.512,802.075C602.413,811.959 601.929,815.179 603.364,816.37C608.136,820.331 606.991,839.791 601.944,840.51C600.773,840.677 600.29,840.274 599.874,838.783L599.874,838.783ZM604.351,828.221C604.591,824.862 604.351,823.007 603.454,820.951L602.234,818.19L601.686,820.953C601.004,824.393 600.911,831.44 601.509,834.428C602.195,837.862 603.932,834.069 604.351,828.221L604.351,828.221ZM600.578,812.279C600.882,811.118 600.772,811.006 599.976,811.667C599.44,812.112 599.172,812.751 599.38,813.088C599.944,814 600.168,813.848 600.578,812.279ZM608.378,829.167C608.143,828.557 608.606,824.647 609.402,820.48C610.862,812.85 610.789,811.028 609.115,813.317C607.94,814.924 605.203,814.178 605.203,812.251C605.203,810.647 607.048,809.783 610.846,809.609C611.607,809.574 612.402,808.325 613.185,805.93C616.075,797.098 617.997,794.931 620.803,797.345C622.729,799.001 622.729,799.001 625.843,797.026C629.59,794.65 631.023,794.555 632.446,796.586C635.055,800.311 632.943,804.06 626.494,807.15C619.858,810.33 619.303,810.967 617.978,816.92C616.518,823.483 616.658,823.56 621.341,818.764C625.592,814.41 627.803,814.234 625.637,818.422C624.424,820.767 624.211,822.679 625.162,822.679C625.948,822.679 630.068,818.019 630.068,817.13C630.068,816.262 631.936,816.265 632.473,817.133C632.7,817.502 632.41,818.727 631.826,819.856C631.101,821.257 630.999,822.055 631.503,822.367C632.515,822.992 635.509,820.062 636.655,817.326C638.815,812.17 640.385,815.163 638.648,821.125C638.063,823.132 639.879,823.219 642.975,821.332C646.016,819.477 646.513,818.267 647.577,810.117C648.642,801.961 650.644,797.123 652.954,797.123C654.746,797.123 654.426,800.227 651.723,809.055C649.596,816.003 648.086,822.958 648.052,825.96C648.026,827.758 647.743,828.204 646.603,828.204C645.307,828.204 645.221,827.925 645.645,825.096C646.17,821.598 645.974,821.446 643.336,823.311C640.343,825.428 638.593,825.678 637.116,824.201C635.986,823.071 635.627,823.018 634.531,823.82C633.043,824.908 629.649,825.058 629.034,824.063C628.767,823.631 627.828,823.778 626.513,824.458C624.029,825.743 622.471,825.332 622.471,823.391C622.471,821.533 621.896,821.65 619.043,824.088C615.812,826.85 614.866,826.725 614.903,823.542C614.932,821.164 615.225,819.38 616.606,813.226C617.057,811.217 616.971,811.059 615.619,811.413C613.685,811.918 613.017,813.274 611.765,819.225C610.462,825.417 610.462,826.191 611.765,825.691C613.198,825.141 613.102,827.146 611.611,828.887C610.176,830.563 608.954,830.668 608.378,829.166L608.378,829.167ZM619.662,804.594C621.729,800.458 621.629,798.734 619.362,799.43C618.465,799.706 615.799,804.526 615.194,806.966C614.207,810.949 617.31,809.301 619.662,804.594ZM651.383,804.721C651.383,804.068 651.164,804.196 650.789,805.067C650.463,805.826 650.196,806.914 650.196,807.484C650.196,808.137 650.415,808.009 650.789,807.139C651.116,806.379 651.383,805.291 651.383,804.721ZM628.902,803.617C631.813,801.699 632.363,798.41 629.852,797.934C627.253,797.441 621.089,803.853 621.089,807.051C621.089,807.716 625.868,805.615 628.902,803.617ZM657.696,827.273C657.696,823.851 662.268,818.106 667.949,814.39C669.336,813.482 669.442,813.11 668.795,811.409C666.173,804.51 670.268,796.433 676.388,796.433C680.439,796.433 682.118,798.965 681.689,804.427L681.359,808.622L688.467,806.69C692.377,805.627 695.981,804.672 696.477,804.567C696.973,804.462 697.486,805.075 697.616,805.93C697.814,807.228 697.532,807.486 695.906,807.494C684.946,807.552 673.772,814.924 678.678,818.86C680.687,820.472 680.651,821.989 678.605,821.989C677.993,821.989 676.932,821.483 676.248,820.864C675.085,819.811 674.686,819.982 669.978,823.551C661.156,830.239 657.698,831.287 657.698,827.273L657.696,827.273ZM662.749,826.028C665.183,824.745 672.07,819.181 672.45,818.192C673.634,815.107 670.407,815.137 666.443,818.248C660.057,823.26 657.405,828.846 662.749,826.028ZM675.927,813.988C676.185,813.315 676.031,813 675.526,813.168C674.493,813.512 673.925,815.082 674.833,815.082C675.203,815.082 675.696,814.59 675.927,813.988ZM675.162,811C679.63,809.085 681.342,803.326 678.49,799.804C674.683,795.103 668.134,804.422 670.931,810.56C671.886,812.656 671.414,812.607 675.162,811ZM703.455,822.352C701.029,820.585 701.35,817.061 704.195,814.216C706.171,812.239 706.403,811.664 705.869,810.062C704.241,805.178 709.85,795.727 716.061,792.89C722.263,790.057 724.972,791.789 722.015,796.697C721.302,797.881 720.345,800.016 719.89,801.44C719.102,803.904 717.769,805.008 717.804,803.167C717.83,802.184 718.729,798.174 719.416,796.033C720.156,793.731 716.27,794.718 713.322,797.582C707.282,803.447 706.007,811.339 711.226,810.556C713.328,810.241 714.334,810.339 714.334,810.859C714.334,811.282 714.102,811.633 713.816,811.639C711.421,811.688 711.436,813.038 713.86,815.722C718.225,820.553 717.114,822.543 709.731,823.117C706.024,823.404 704.675,823.24 703.455,822.352L703.455,822.352ZM713.597,820.152C714.14,819.684 711.125,816.137 709.306,815.105C706.998,813.794 704.477,815.693 704.804,818.496C705.067,820.752 711.493,821.962 713.597,820.152ZM717.35,817.51C716.585,815.516 718.972,811.722 722.334,809.59C726.709,806.816 727.662,807.333 727.059,812.155C726.473,816.849 730.056,815.719 732.32,810.496C734.677,805.056 736.894,806.601 734.858,812.264C733.387,816.354 734.274,817.106 737.367,814.391C739.673,812.367 739.82,812.002 739.444,809.259C739.076,806.577 739.191,806.265 740.673,805.868C744.069,804.959 744.203,805.122 743.693,809.519C743.132,814.349 743.526,815.403 745.491,814.351C746.351,813.89 746.723,813.175 746.488,812.433C745.928,810.671 748.42,806.537 750.325,806.068C753.452,805.297 756.426,807.454 756.327,810.421C756.22,813.604 756.791,814.261 758.652,813.1C760.954,811.661 762.127,813.406 760.016,815.131C757.93,816.836 756.071,816.823 754.591,815.095C753.57,813.903 753.239,813.846 752.005,814.655C751.227,815.164 749.503,815.758 748.175,815.973C746.847,816.189 744.873,816.585 743.788,816.854C742.437,817.189 741.633,817.048 741.237,816.408C740.769,815.651 740.142,815.764 737.936,817.004C734.751,818.794 733.087,818.935 732.023,817.504C731.386,816.648 730.817,816.609 728.673,817.272C726.491,817.948 725.896,817.896 724.836,816.936C723.753,815.957 723.444,815.935 722.583,816.777C720.887,818.438 717.869,818.861 717.35,817.51L717.35,817.51ZM722.71,813.182C723.569,812.087 723.545,812.062 722.449,812.922C721.785,813.443 721.241,813.987 721.241,814.13C721.241,814.699 721.808,814.333 722.71,813.182L722.71,813.182ZM751.501,810.069C751.785,808.597 749.869,809.136 749.27,810.696C748.997,811.407 749.244,811.657 750.072,811.498C750.731,811.371 751.374,810.728 751.501,810.069ZM727.587,803.368C725.463,800.495 726.095,797.896 728.444,799.845C729.168,800.446 729.466,800.233 729.808,798.869C730.532,795.987 733.276,796.448 732.789,799.368C731.761,805.518 730.113,806.785 727.587,803.368ZM583.572,766.703C582.61,765.33 582.513,765.324 580.065,766.492C576.925,767.989 575.365,766.862 575.365,763.096C575.365,758.57 579.398,751.703 581.073,753.377C582.154,754.458 580.819,759.519 579.512,759.297C578.453,759.116 577.604,760.946 577.584,763.452C577.558,766.353 581.41,763.56 583.67,759.036C585.701,754.968 586.65,756.9 585.5,762.761C584.452,768.102 589.325,764.613 591.086,758.763C593.327,751.315 591.52,744.296 588.947,750.454C587.835,753.115 586.554,754.26 586.554,752.592C586.554,747.077 592.739,742.549 593.908,747.207C596.303,756.748 587.813,772.759 583.572,766.703L583.572,766.703ZM634.237,766.087C632.032,761.967 637.168,742.558 640.463,742.558C641.971,742.558 642.389,745.62 641.053,746.889C637.31,750.444 633.659,764.661 636.488,764.661C638.213,764.661 640.715,760.579 640.545,758.045C640.27,753.961 646.091,751.634 648.187,754.991C649.353,756.858 649.875,756.736 651.135,754.3C651.724,753.16 652.701,752.228 653.305,752.228C654.509,752.228 654.479,752.541 652.605,759.429C651.463,763.629 651.51,764.46 652.843,763.636C653.942,762.957 657.005,757.954 657.005,756.838C657.005,756.32 657.62,755.339 658.372,754.658C660.119,753.077 660.875,754.497 659.796,757.334C658.907,759.672 658.86,762.588 659.713,762.588C661.617,762.588 662.532,761.586 662.532,759.5C662.532,756.617 664.861,753.609 667.093,753.609C669.243,753.609 669.889,755.236 668.689,757.625C668.176,758.645 667.643,759.713 667.504,759.998C667.366,760.283 667.726,760.516 668.305,760.516C671.926,760.516 670.236,762.717 666.148,763.325C664.349,763.592 661.883,764.219 660.667,764.719C658.708,765.525 658.296,765.482 657.041,764.347C656.228,763.611 655.625,763.41 655.625,763.874C655.625,764.319 654.519,765.21 653.167,765.855C650,767.365 649.189,766.368 649.758,761.665C650.222,757.835 649.292,757.805 647.707,761.598C646.586,764.283 643.634,766.069 642.384,764.82C641.818,764.253 641.029,764.496 639.403,765.737C636.736,767.771 635.194,767.875 634.237,766.087L634.237,766.087ZM645.134,761.25C645.306,760.732 645.048,760.473 644.53,760.646C644.031,760.812 643.487,761.356 643.321,761.855C643.149,762.373 643.407,762.632 643.925,762.459C644.424,762.293 644.968,761.749 645.134,761.25ZM646.341,756.438C645.588,755.22 643.67,755.515 644.154,756.774C644.383,757.375 644.573,758.218 644.573,758.649C644.573,759.093 645.056,758.948 645.691,758.313C646.305,757.698 646.598,756.855 646.341,756.438ZM666.437,758.069C667.08,756.395 666.184,756.092 665.326,757.694C664.791,758.693 664.781,759.135 665.292,759.135C665.697,759.135 666.213,758.655 666.437,758.069L666.437,758.069ZM678.145,766.85C677.499,765.806 680.098,761.253 681.353,761.23C682.705,761.203 682.922,762.697 681.855,764.69C681.004,766.28 678.642,767.655 678.145,766.85ZM604.501,764.302C603.948,763.636 603.777,762.103 604.021,759.993C604.32,757.395 604.13,756.43 603.105,755.325C601.656,753.764 602.001,752.871 604.461,751.816C605.623,751.318 606.606,749.84 607.666,747.001C609.214,742.851 610.896,741.652 611.289,744.417C611.407,745.249 610.99,746.715 610.361,747.675C609.732,748.635 609.347,749.81 609.505,750.285C609.664,750.76 610.71,749.293 611.83,747.026C615.314,739.976 621.142,738.25 621.645,744.118C621.875,746.798 619.745,748.968 615.087,750.803C613.11,751.581 612.776,752.141 611.84,756.243C610.564,761.837 610.684,761.988 613.901,758.863C617.496,755.371 618.072,755.607 617.945,760.519C617.888,762.8 617.638,764.665 617.392,764.663C617.147,764.662 616.67,764.66 616.335,764.66C615.999,764.66 615.562,764.039 615.363,763.279C615,761.888 613.491,761.317 613.491,762.57C613.491,762.94 612.553,763.728 611.407,764.321C608.621,765.762 608.217,764.699 609.228,758.597C609.645,756.079 609.856,753.888 609.697,753.728C608.104,752.135 605.447,758.98 606.246,762.618C606.734,764.842 605.743,765.798 604.501,764.302L604.501,764.302ZM618.498,746.893C620.136,745.41 620.07,743.249 618.388,743.249C616.941,743.249 613.492,746.924 613.492,748.465C613.492,749.627 616.531,748.672 618.498,746.893L618.498,746.893ZM594.641,762.369C593.814,760.214 596.138,752.919 597.651,752.919C598.969,752.919 599.186,755.158 598.054,757.074C596.619,759.504 596.61,760.516 598.025,760.516C598.754,760.516 598.991,760.892 598.716,761.609C598.486,762.21 598.297,762.831 598.297,762.99C598.297,763.738 594.949,763.169 594.642,762.369L594.641,762.369ZM599.677,751.559C599.677,750.02 599.419,749.608 598.641,749.906C597.428,750.372 597.287,749.01 598.279,746.402C599.849,742.273 602.831,747.731 601.426,752.16C600.749,754.292 599.677,753.924 599.677,751.559Z" style="fill-rule:nonzero;"/>
        </g>
    </g>
</svg>
