<?xml version="1.0" encoding="UTF-8" standalone="no"?>
<!DOCTYPE svg PUBLIC "-//W3C//DTD SVG 1.1//EN" "http://www.w3.org/Graphics/SVG/1.1/DTD/svg11.dtd">
<svg width="100%" height="100%" viewBox="0 0 506 222" version="1.1" xmlns="http://www.w3.org/2000/svg" xmlns:xlink="http://www.w3.org/1999/xlink" xml:space="preserve" xmlns:serif="http://www.serif.com/" style="fill-rule:evenodd;clip-rule:evenodd;stroke-linejoin:round;stroke-miterlimit:2;">
    <g transform="matrix(1,0,0,1,-675.082549,-683.649068)">
        <g transform="matrix(8.007111,0,0,8.007111,972.565437,4456.251167)">
            <g id="path1-33" transform="matrix(1,0,0,1,61.081025,0.975925)">
                <path d="M-98.176,-445.464C-98.399,-446.044 -97.952,-447.763 -97.184,-449.284C-94.905,-453.801 -94.666,-455.172 -95.939,-456.444C-97.318,-457.823 -96.259,-459.602 -94.058,-459.602C-93.138,-459.602 -91.573,-461.36 -89.292,-464.957C-85.082,-471.593 -83.378,-472.1 -83.378,-466.716C-83.378,-463.663 -83.186,-463.117 -82.241,-463.48C-81.615,-463.72 -80.674,-463.917 -80.149,-463.917C-79.625,-463.917 -78.276,-465.383 -77.152,-467.176C-74.975,-470.647 -72.553,-471.849 -70.749,-470.352C-68.967,-468.873 -69.842,-466.602 -72.843,-464.923C-76.923,-462.639 -80.816,-456.071 -76.822,-458.209C-72.492,-460.526 -72.573,-453.891 -76.934,-449.016C-82.115,-443.222 -84.096,-446.296 -81.54,-456.162C-80.314,-460.893 -80.422,-461.391 -82.534,-460.72C-84.131,-460.214 -86.098,-449.714 -85.238,-446.288C-84.871,-444.826 -85.053,-444.5 -86.241,-444.5C-88.09,-444.5 -88.073,-444.366 -87.327,-453.037C-86.662,-460.76 -87.666,-460.643 -91.644,-452.536C-94.642,-446.428 -97.4,-443.442 -98.176,-445.464L-98.176,-445.464ZM-77.592,-452.472C-76.745,-454.055 -77.065,-454.999 -78.21,-454.292C-79.132,-453.721 -79.805,-450.972 -79.021,-450.972C-78.677,-450.972 -78.034,-451.647 -77.592,-452.472ZM-72.232,-467.512C-71.987,-467.908 -72.111,-468.232 -72.506,-468.232C-72.902,-468.232 -73.425,-467.908 -73.67,-467.512C-73.914,-467.117 -73.791,-466.793 -73.395,-466.793C-73,-466.793 -72.476,-467.117 -72.232,-467.512ZM-72.566,-446.627C-74.102,-447.598 -73.692,-452.615 -71.801,-455.979C-69.166,-460.668 -63.961,-461.543 -63.961,-457.297C-63.961,-455.498 -62.39,-455.957 -61.454,-458.03C-60.38,-460.408 -57.916,-460.147 -58.525,-457.72C-59.603,-453.425 -59.79,-451.691 -59.177,-451.691C-57.748,-451.691 -55.234,-454.098 -53.869,-456.773C-53.076,-458.329 -51.91,-459.602 -51.28,-459.602C-50.114,-459.602 -50.13,-458.895 -51.417,-453.669C-51.798,-452.121 -51.649,-451.691 -50.731,-451.691C-48.919,-451.691 -46.633,-455.967 -46.828,-458.991C-46.921,-460.435 -46.65,-462.053 -46.226,-462.587C-45.801,-463.12 -44.908,-465.231 -44.241,-467.277C-42.89,-471.42 -41.74,-472.76 -40.3,-471.87C-39.51,-471.382 -39.559,-470.615 -40.577,-467.55C-42.025,-463.19 -41.809,-462.757 -38.721,-463.834C-33.652,-465.601 -33.922,-464.032 -39.206,-461.009C-43.452,-458.579 -43.657,-458.318 -43.98,-454.928C-44.16,-453.033 -43.98,-452.799 -42.504,-453.006C-40.092,-453.344 -40.72,-450.914 -43.373,-449.643C-45.133,-448.799 -45.57,-448.813 -46.497,-449.74C-47.454,-450.697 -47.797,-450.69 -49.566,-449.675C-51.387,-448.629 -51.707,-448.63 -53.321,-449.688C-54.94,-450.749 -55.282,-450.749 -57.465,-449.691C-59.792,-448.564 -59.88,-448.581 -61.502,-450.467C-63.382,-452.653 -64.747,-452.456 -66.172,-449.793C-67.612,-447.104 -70.813,-445.518 -72.566,-446.626L-72.566,-446.627ZM-68.695,-451.788C-69.558,-453.183 -71.153,-452.349 -71.153,-450.501C-71.153,-448.645 -71.113,-448.628 -69.732,-449.878C-68.95,-450.586 -68.484,-451.445 -68.695,-451.788ZM-66.838,-455.431C-66.838,-456.593 -67.051,-456.8 -67.638,-456.213C-68.079,-455.773 -68.221,-455.061 -67.955,-454.631C-67.212,-453.427 -66.838,-453.695 -66.838,-455.431Z" style="fill-rule:nonzero;"/>
            </g>
        </g>
    </g>
</svg>
