<?xml version="1.0" encoding="UTF-8" standalone="no"?>
<!DOCTYPE svg PUBLIC "-//W3C//DTD SVG 1.1//EN" "http://www.w3.org/Graphics/SVG/1.1/DTD/svg11.dtd">
<svg width="100%" height="100%" viewBox="0 0 1080 1080" version="1.1" xmlns="http://www.w3.org/2000/svg" xmlns:xlink="http://www.w3.org/1999/xlink" xml:space="preserve" xmlns:serif="http://www.serif.com/" style="fill-rule:evenodd;clip-rule:evenodd;stroke-linejoin:round;stroke-miterlimit:2;">
    <g transform="matrix(1.525586,0,0,1.525586,-230.22356,-239.140267)">
        <path d="M212.376,201.292C211.1,199.85 210.721,197.733 211.581,195.875C212.74,193.371 215.714,192.279 218.218,193.438C251.176,208.689 279.152,209.415 314.477,212.729C368.797,217.824 427.141,201.573 558.276,276.581C559.614,277.346 560.524,278.686 560.743,280.212C560.962,281.737 560.465,283.279 559.396,284.389C532.783,312.028 527.635,324.464 490.25,359.499C520.362,364.172 571.863,408.247 611.017,430.423C676.488,467.504 743.953,518.646 776.717,547.606C788.244,557.795 795.575,565.505 797.528,569.076C797.93,569.81 798.192,570.467 798.353,571.024L798.624,572.928L798.449,574.311L797.81,575.851C796.776,577.565 788.549,586.39 775.329,599.636C724.19,650.878 597.056,771.741 540.658,805.917C533.898,810.013 529.467,811.742 525.679,813.193C520.809,815.059 517.187,816.407 509.929,823.279C505.52,827.453 502.149,828.557 499.659,828.449C496.677,828.32 494.007,826.605 491.497,823.1C489.72,820.619 487.757,816.941 484.414,813.202C483.045,811.67 482.793,809.525 483.603,807.77L480.722,803.691C480.01,802.684 479.724,801.503 479.826,800.363C440.063,729.926 434.604,729.217 397.692,649.059C339.658,523.036 331.339,502.591 326.433,491.647C317.849,499.181 300.174,515.377 240.432,572.216C239.058,573.523 237.064,573.941 235.281,573.295C233.499,572.649 232.235,571.05 232.018,569.167C221.302,476.212 222.722,353.955 219.786,274.144C218.553,240.615 216.631,214.717 212.549,202.009C212.473,201.771 212.415,201.531 212.376,201.292Z" style="fill:white;"/>
        <path d="M194.264,209.218C192.56,205.888 191.002,201.048 191.695,195.117C193.429,180.277 207.944,170.406 222.354,174.182C226.281,175.212 228.133,176.764 237.213,180.138C262.059,189.369 284.873,190.248 316.292,193.137C365.766,197.686 423.876,184.016 540.857,244.318C543.077,245.462 556.118,252.185 568.335,259.13C580.081,265.806 584.692,281.208 577.603,293.514C575.758,296.717 574.272,297.991 570.52,302.026C557.206,316.346 549.486,326.76 537.872,340.074C534.254,344.222 530.737,348.091 527.375,351.677C530.723,353.461 534.356,355.505 538.3,357.852C566.468,374.612 596.465,397.673 621.606,411.763C698.42,454.81 776.894,515.57 803.766,541.791C814.104,551.878 817.929,557.543 819.964,563.859C820.885,566.717 820.833,566.736 821.17,569.718C821.283,570.725 821.39,571.736 821.398,572.749C821.407,573.762 821.301,574.773 821.221,575.783C821.185,576.246 821.13,576.709 821.052,577.167C820.88,578.168 820.73,579.177 820.47,580.159C820.209,581.141 819.852,582.096 819.493,583.047C819.072,584.163 818.656,585.285 818.128,586.354C818.121,586.368 816.756,588.675 815.297,590.553C805.098,603.678 730.645,677.496 665.334,736.57C649.483,750.907 587.212,807.167 551.567,828.169C540.121,834.913 533.229,836.487 531.271,837.758C527.971,839.902 524.74,844.413 517.536,848.527C502.164,857.307 484.183,854.185 472.448,839.326C469.242,835.267 468.257,832.738 465.636,829.779C461.742,825.383 459.588,820.395 458.656,815.728C457.332,813.414 456.44,811.141 455.842,809.04C430.522,765.011 422.15,753.368 407.998,727.824C392.513,699.876 379.558,671.792 358.844,627.238C337.507,581.345 325.184,554.375 317.191,536.648C301.162,551.768 281.509,570.599 259.073,591.988C248.001,602.543 230.095,604.025 217.201,593.983C210.375,588.667 206.019,580.849 205.017,572.391C199.864,528.894 197.751,478.633 197.247,466.964C197.069,462.836 196.355,436.805 196.29,427.287C196.092,398.233 196.213,386.863 196.25,383.348L197.473,280.58C197.798,247.946 197.174,227.843 195.576,215.221C195.543,214.964 195.002,212.01 194.425,209.819C194.368,209.602 194.314,209.402 194.264,209.218ZM236.499,221.191C239.558,240.87 241.837,268.121 244.075,301.182C244.521,307.756 247.265,364.519 248.426,387.079C248.611,390.662 249.183,405.469 250.333,428.195C250.445,430.411 250.887,443.123 251.845,462.278C252.056,466.495 252.907,491.82 254.979,521.126C257.551,518.712 260.247,516.184 263.057,513.552C294.033,484.545 303.285,476.329 308.746,471.552C310.494,470.022 312.095,469.037 312.405,468.847C313.023,468.466 316.323,466.436 320.822,465.472C321.531,465.32 325.32,464.508 329.882,465.101C330.601,465.194 334.444,465.693 338.546,467.775C339.193,468.104 342.649,469.857 345.821,473.189C346.867,474.288 347.822,475.48 348.667,476.739C350.281,479.147 350.204,479.194 351.37,481.85C354.306,488.541 361.546,506.071 402.023,595.634C426.336,649.43 433.301,664.589 442.295,682.654C461.089,720.405 470.366,732.017 500.775,786.352C501.083,786.903 501.417,787.44 501.699,788.004C502.254,789.113 502.84,790.212 503.284,791.37C503.636,792.29 503.871,792.993 504.028,793.526C504.468,794.161 504.905,794.799 505.321,795.449C506.907,794.485 508.623,793.545 510.462,792.677C517.829,789.199 519.592,789.903 529.611,783.737C588.253,747.645 729.546,613.779 770.117,572.289C745.655,548.579 673.141,490.837 600.427,449.083C565.37,428.952 522.181,393.144 494.953,382.357C489.764,380.302 487.199,380.017 486.979,379.962C485.831,379.676 484.654,379.487 483.535,379.103C482.231,378.657 474.575,376.034 471.032,367.25C470.517,365.972 467.49,358.467 471.813,350.04C472.353,348.988 472.986,347.978 473.698,347.033C475.122,345.141 475.196,345.204 476.928,343.59C488.866,332.473 498.404,322.864 508.046,311.969C517.112,301.726 522.806,294.456 531.545,284.669C508.09,271.918 472.424,254.438 433.797,244.203C381.972,230.473 348.475,235.672 312.663,232.32C289.8,230.181 271.003,229.061 251.252,224.888C245.88,223.752 240.967,222.495 236.499,221.191ZM555.795,280.921L555.798,280.924L555.798,280.921L555.798,280.919L555.797,280.917L555.795,280.921ZM227.085,188.399L227.104,188.382L227.046,188.316L227.085,188.399Z"/>
    </g>
</svg>
