<?xml version="1.0" encoding="UTF-8" standalone="no"?>
<!DOCTYPE svg PUBLIC "-//W3C//DTD SVG 1.1//EN" "http://www.w3.org/Graphics/SVG/1.1/DTD/svg11.dtd">
<svg width="100%" height="100%" viewBox="0 0 61 64" version="1.1" xmlns="http://www.w3.org/2000/svg" xmlns:xlink="http://www.w3.org/1999/xlink" xml:space="preserve" xmlns:serif="http://www.serif.com/" style="fill-rule:evenodd;clip-rule:evenodd;stroke-linejoin:round;stroke-miterlimit:2;">
    <g transform="matrix(1,0,0,1,-1249.622367,-587.149368)">
        <g transform="matrix(1.484677,0,0,1.484677,-140.963704,924.753013)">
            <path id="path1" d="M959.551,-185.183C959.394,-185.478 959.333,-185.898 959.417,-186.117C959.519,-186.383 959.28,-186.665 958.695,-186.967C953.668,-189.567 947.428,-195.276 944.11,-200.309C943.295,-201.546 942.403,-202.856 942.127,-203.22C933.247,-214.938 935.544,-229.357 945.942,-227.17C950.014,-226.314 953.064,-222.856 955.049,-216.846C955.386,-215.827 955.935,-214.376 956.271,-213.621C956.607,-212.866 956.881,-212.122 956.881,-211.967C956.881,-211.158 957.509,-211.925 958.439,-213.869C962.6,-222.577 969.711,-227.479 974.552,-224.979C977.816,-223.293 978.08,-216.885 975.138,-210.76C974.718,-209.887 973.89,-208.161 973.296,-206.924C972.702,-205.687 971.674,-203.782 971.01,-202.691C970.347,-201.599 969.186,-199.456 968.43,-197.928C967.674,-196.4 966.56,-194.308 965.954,-193.28C963.529,-189.166 962.83,-187.405 963.381,-186.796C964.051,-186.056 963.613,-185.414 962.277,-185.179C961.71,-185.079 960.93,-184.918 960.543,-184.822C959.996,-184.685 959.774,-184.766 959.551,-185.183ZM961.28,-189.395C961.8,-191.009 962.564,-192.647 963.224,-193.562C964.29,-195.041 965.758,-197.668 965.958,-198.457C966.111,-199.06 966.81,-200.331 969.521,-204.94C971.009,-207.47 971.698,-208.782 971.698,-209.09C971.698,-209.247 972.119,-210.202 972.633,-211.211C975.189,-216.225 975.062,-222.442 972.394,-222.942C967.214,-223.914 960.488,-216.04 959.419,-207.753C959.072,-205.064 956.352,-203.186 956.352,-205.636C956.352,-206.175 954.359,-212.403 953.972,-213.072C953.826,-213.325 953.702,-213.682 953.698,-213.866C953.693,-214.049 953.397,-214.795 953.039,-215.523C952.681,-216.25 952.387,-217.006 952.386,-217.203C952.377,-218.496 949.384,-222.722 947.676,-223.853C940.873,-228.359 935.806,-219.461 940.371,-211.025C940.765,-210.297 941.543,-208.809 942.101,-207.718C943.876,-204.248 948.142,-198.445 950.688,-196.038C956.335,-190.7 960.799,-187.9 961.28,-189.395Z" style="fill-rule:nonzero;"/>
        </g>
    </g>
</svg>
