<?xml version="1.0" encoding="UTF-8" standalone="no"?>
<!DOCTYPE svg PUBLIC "-//W3C//DTD SVG 1.1//EN" "http://www.w3.org/Graphics/SVG/1.1/DTD/svg11.dtd">
<svg width="100%" height="100%" viewBox="0 0 54 53" version="1.1" xmlns="http://www.w3.org/2000/svg" xmlns:xlink="http://www.w3.org/1999/xlink" xml:space="preserve" xmlns:serif="http://www.serif.com/" style="fill-rule:evenodd;clip-rule:evenodd;stroke-linejoin:round;stroke-miterlimit:2;">
    <g transform="matrix(1,0,0,1,-1198.141931,-642.990799)">
        <g transform="matrix(1.484677,0,0,1.484677,-140.963704,924.753013)">
            <g id="path1-18" transform="matrix(1,0,0,1,-47.148288,-190.613794)">
                <path d="M974.262,35.209C974.007,34.617 973.622,34.134 973.404,34.134C973.187,34.134 971.906,33.554 970.559,32.846C964.39,29.602 963.643,29.147 961.759,27.479C961.032,26.835 959.663,25.7 958.717,24.956C955.65,22.544 950.819,17.212 949.776,15.088C949.126,13.765 949.064,13.381 949.111,10.983L949.163,8.337L950.056,7.516C952.856,4.946 960.049,7.051 964.4,11.715C965.635,13.038 966.689,14.07 966.741,14.007C966.793,13.944 967.589,12.441 968.509,10.666C973.388,1.257 980.45,-2.029 983.737,3.581C985.622,6.797 985.159,10.312 981.694,19.094C980.967,20.936 980.154,23.258 979.887,24.254C979.62,25.249 978.989,27.254 978.484,28.71C977.078,32.766 977.048,33.022 977.946,33.22C979.196,33.495 979.36,33.577 979.526,34.009C979.804,34.734 978.646,35.659 977.28,35.804C976.602,35.876 975.749,36.014 975.385,36.109C974.802,36.263 974.67,36.157 974.262,35.209L974.262,35.209ZM974.764,31.687C975.03,31.257 976.673,26.578 978.504,21.037C978.936,19.727 979.899,16.936 980.643,14.835C982.054,10.852 982.688,7.175 982.035,6.771C981.87,6.669 981.735,6.283 981.735,5.913C981.735,4.753 980.075,3.342 978.929,3.528C975.191,4.134 970.449,10.255 969.52,15.673C969.363,16.586 969.089,17.511 968.911,17.729C968.733,17.948 968.513,18.335 968.422,18.589C968.115,19.456 966.721,18.934 966.358,17.817C965.836,16.214 960.638,11.297 958.29,10.186C952.572,7.481 949.875,8.979 951.745,13.821C953.317,17.894 964.127,27.686 969.168,29.604C969.313,29.659 969.631,29.877 969.873,30.088C970.242,30.408 973.784,31.905 974.378,31.99C974.478,32.005 974.652,31.868 974.764,31.687Z" style="fill-rule:nonzero;"/>
            </g>
        </g>
    </g>
</svg>
