<?xml version="1.0" encoding="UTF-8" standalone="no"?>
<!DOCTYPE svg PUBLIC "-//W3C//DTD SVG 1.1//EN" "http://www.w3.org/Graphics/SVG/1.1/DTD/svg11.dtd">
<svg width="100%" height="100%" viewBox="0 0 445 275" version="1.1" xmlns="http://www.w3.org/2000/svg" xmlns:xlink="http://www.w3.org/1999/xlink" xml:space="preserve" xmlns:serif="http://www.serif.com/" style="fill-rule:evenodd;clip-rule:evenodd;stroke-linejoin:round;stroke-miterlimit:2;">
    <g transform="matrix(1,0,0,1,-675.082549,-203.789588)">
        <g transform="matrix(8.007111,0,0,8.007111,972.565437,4456.251167)">
            <g id="path1-17" transform="matrix(1,0,0,1,31.688576,0)">
                <path d="M-52.681,-497.685C-53.088,-498.18 -54.298,-500.526 -55.369,-502.899C-57.259,-507.088 -60.695,-504.441 -60.737,-498.764C-60.742,-497.988 -61.298,-497.506 -62.185,-497.506C-64.16,-497.506 -63.998,-498.96 -61.465,-503.978C-59.557,-507.758 -58.773,-510.45 -59.58,-510.45C-59.729,-510.45 -61.078,-509.938 -62.577,-509.311C-67.79,-507.133 -71.071,-511.541 -67.039,-515.305C-64.35,-517.815 -62.004,-518.002 -59.513,-515.905C-57.114,-513.887 -52.999,-519.913 -55.071,-522.409C-57.976,-525.91 -47.83,-532.859 -43.016,-530.666C-38.588,-528.648 -44.991,-518.629 -53.682,-513.978C-56.402,-512.522 -53.546,-499.56 -50.656,-500.24C-49.123,-500.601 -48.511,-498.753 -49.831,-497.75C-51.362,-496.586 -51.768,-496.577 -52.681,-497.686L-52.681,-497.685ZM-62.386,-511.548C-59.93,-512.575 -59.837,-512.725 -60.96,-513.849C-62.588,-515.476 -66.043,-514.33 -66.37,-512.054C-66.641,-510.161 -65.924,-510.07 -62.386,-511.548ZM-48.819,-520.153C-41.948,-526.521 -42.232,-531.096 -49.24,-526.925C-53.013,-524.679 -53.477,-523.832 -52.555,-520.884C-51.614,-517.879 -51.332,-517.824 -48.819,-520.153ZM-26.612,-505.142C-24.64,-518.289 -18.915,-526.83 -14.656,-522.976C-11.882,-520.466 -13.846,-515.195 -18.523,-512.599C-22.17,-510.575 -22.353,-510.327 -22.947,-506.611C-23.471,-503.335 -24.448,-501.82 -26.038,-501.82C-26.905,-501.82 -27.015,-502.455 -26.612,-505.142ZM-16.895,-516.892C-15.978,-518.606 -15.936,-521.237 -16.827,-521.237C-18.005,-521.237 -20.474,-517.504 -20.474,-515.721C-20.474,-513.693 -18.211,-514.433 -16.895,-516.892L-16.895,-516.892ZM-46.923,-505.816C-47.802,-506.432 -48.521,-507.583 -48.521,-508.374C-48.521,-509.717 -48.415,-509.738 -46.923,-508.693C-43.264,-506.131 -42.091,-507.232 -44.577,-510.895C-47.491,-515.189 -42.808,-523.024 -39.378,-519.593C-37.89,-518.106 -39.332,-515.444 -41.499,-515.676C-43.795,-515.921 -43.893,-513.848 -41.736,-510.673C-39.419,-507.264 -39.419,-506.279 -41.736,-505.398C-44.244,-504.445 -45.058,-504.51 -46.923,-505.816L-46.923,-505.816ZM-34.936,-507.394C-36.537,-511.551 -36.681,-519.978 -35.146,-519.686C-34.005,-519.468 -33.743,-518.682 -33.564,-514.937C-33.247,-508.281 -32.394,-509.109 -28.742,-519.619C-28.394,-520.623 -27.217,-520.817 -26.686,-519.958C-26.109,-519.025 -29.886,-508.497 -31.369,-506.905C-33.22,-504.918 -34.024,-505.028 -34.935,-507.394L-34.936,-507.394Z" style="fill-rule:nonzero;"/>
            </g>
        </g>
    </g>
</svg>
