<?xml version="1.0" encoding="UTF-8" standalone="no"?>
<!DOCTYPE svg PUBLIC "-//W3C//DTD SVG 1.1//EN" "http://www.w3.org/Graphics/SVG/1.1/DTD/svg11.dtd">
<svg width="100%" height="100%" viewBox="0 0 66 105" version="1.1" xmlns="http://www.w3.org/2000/svg" xmlns:xlink="http://www.w3.org/1999/xlink" xml:space="preserve" xmlns:serif="http://www.serif.com/" style="fill-rule:evenodd;clip-rule:evenodd;stroke-linejoin:round;stroke-miterlimit:2;">
    <g transform="matrix(1,0,0,1,-751.509362,-1144.617198)">
        <g transform="matrix(1.484677,0,0,1.484677,-140.963704,924.753013)">
            <g id="path1-19" transform="matrix(1,0,0,1,-154.915805,94.296577)">
                <path d="M786.784,122.385C786.831,120.252 786.449,117.79 785.545,114.382C785.178,112.999 784.699,111.134 784.48,110.237C782.119,100.541 768.766,88.984 759.922,88.982C758.314,88.982 756.038,87.836 756.038,87.026C756.038,86.228 757.017,85.746 758.205,85.96C764.026,87.007 771.649,80.028 778.491,67.39C781.572,61.697 782.267,59.882 782.466,57.009C782.637,54.529 782.98,53.792 783.961,53.792C784.942,53.792 785.096,54.599 785.201,60.275C785.319,66.656 785.234,66.318 788.653,74.033C790.373,77.914 791.397,79.77 793.062,82.022C793.865,83.108 796.502,84.297 798.182,84.332C799.473,84.359 799.947,84.693 799.955,85.58C799.958,85.868 798.821,86.623 796.586,87.818C788.45,92.165 784.659,100.904 787.07,109.752C788.374,114.538 788.894,116.133 789.643,117.639C790.208,118.774 790.349,119.328 790.184,119.756C790.061,120.074 789.806,120.853 789.617,121.486C788.726,124.474 786.725,125.109 786.784,122.385ZM784.751,100.359C785.865,94.459 788.239,90.502 792.485,87.47C794.394,86.107 794.414,86.052 793.312,85.232C790.797,83.36 788.959,80.431 786.117,73.768C785.744,72.895 785.068,71.312 784.614,70.25C784.16,69.188 783.573,67.466 783.308,66.424C782.677,63.94 782.505,63.95 781.103,66.546C775.006,77.83 773.439,79.867 766.124,86.02C764.701,87.217 764.461,87.659 765.235,87.659C766.102,87.659 771.483,90.529 773.174,91.892C773.625,92.256 774.43,92.851 774.964,93.215C775.497,93.579 776.13,94.102 776.371,94.378C776.611,94.654 777.563,95.605 778.486,96.491C780.198,98.135 780.839,98.941 782.794,101.907C784.083,103.864 784.091,103.858 784.751,100.359Z" style="fill-rule:nonzero;"/>
            </g>
        </g>
    </g>
</svg>
