<?xml version="1.0" encoding="UTF-8" standalone="no"?>
<!DOCTYPE svg PUBLIC "-//W3C//DTD SVG 1.1//EN" "http://www.w3.org/Graphics/SVG/1.1/DTD/svg11.dtd">
<svg width="100%" height="100%" viewBox="0 0 65 105" version="1.1" xmlns="http://www.w3.org/2000/svg" xmlns:xlink="http://www.w3.org/1999/xlink" xml:space="preserve" xmlns:serif="http://www.serif.com/" style="fill-rule:evenodd;clip-rule:evenodd;stroke-linejoin:round;stroke-miterlimit:2;">
    <g transform="matrix(1,0,0,1,-873.682359,-1122.242055)">
        <g transform="matrix(1.484677,0,0,1.484677,-140.963704,924.753013)">
            <g id="path1-27" transform="matrix(1,0,0,1,17.512221,232.373707)">
                <path d="M691.753,-29.162C691.181,-29.391 690.299,-30.93 690.527,-31.299C691.234,-32.442 690.533,-38.157 689.537,-39.382C689.398,-39.553 688.934,-41.101 688.505,-42.822C688.076,-44.542 687.56,-46.248 687.359,-46.612C687.158,-46.976 686.321,-49 685.501,-51.11C682.807,-58.035 680.737,-61.267 676.854,-64.608C673.99,-67.073 674.273,-66.952 669.208,-67.889C666.404,-68.408 665.513,-69.245 666.046,-70.862C666.393,-71.911 667.251,-72.229 668.424,-71.743C671.573,-70.439 677.114,-74.893 682.991,-83.451C684.72,-85.97 684.907,-86.358 686.472,-90.665C687.256,-92.824 687.578,-94.184 687.718,-95.933C687.946,-98.784 688.64,-99.737 690.115,-99.223C691.291,-98.813 691.363,-98.475 691.256,-93.848C691.085,-86.43 693.336,-80.977 699.416,-74.079C700.191,-73.199 701.289,-71.956 701.854,-71.317C703.162,-69.838 705.509,-68.419 707.043,-68.179C710.46,-67.644 710.414,-66.013 706.951,-64.905C700.323,-62.785 697.074,-57.938 694.067,-45.686C693.372,-42.856 693.439,-38.444 694.221,-35.399C694.6,-33.927 694.631,-33.417 694.384,-32.734C694.216,-32.27 694.079,-31.411 694.079,-30.825C694.079,-29.209 693.2,-28.581 691.753,-29.162L691.753,-29.162ZM691.791,-48.332C692.155,-49.35 692.998,-51.708 693.664,-53.572C695.608,-59.008 698.026,-63.089 700.646,-65.357C702.663,-67.104 702.709,-66.786 700.069,-69.414C696.081,-73.383 691.717,-79.622 690.477,-83.124C690.091,-84.216 689.688,-85.228 689.581,-85.373C689.474,-85.519 689.18,-86.269 688.929,-87.04C688.351,-88.812 688.176,-88.737 687.094,-86.248C685.244,-81.991 679.051,-74.066 675.183,-71.007C673.961,-70.04 674.098,-69.685 676.024,-68.834C677.341,-68.251 679.572,-66.067 682.713,-62.286C685.562,-58.856 685.707,-58.561 689.797,-47.974C690.507,-46.137 690.801,-45.626 690.941,-45.99C691.045,-46.259 691.427,-47.313 691.791,-48.332Z" style="fill-rule:nonzero;"/>
            </g>
        </g>
    </g>
</svg>
