<?xml version="1.0" encoding="UTF-8" standalone="no"?>
<!DOCTYPE svg PUBLIC "-//W3C//DTD SVG 1.1//EN" "http://www.w3.org/Graphics/SVG/1.1/DTD/svg11.dtd">
<svg width="100%" height="100%" viewBox="0 0 1153 273" version="1.1" xmlns="http://www.w3.org/2000/svg" xmlns:xlink="http://www.w3.org/1999/xlink" xml:space="preserve" xmlns:serif="http://www.serif.com/" style="fill-rule:evenodd;clip-rule:evenodd;stroke-linejoin:round;stroke-miterlimit:2;">
    <g transform="matrix(1,0,0,1,-383.553535,-372.589407)">
        <g transform="matrix(3.779528,0,0,3.779528,328.137065,918.876037)">
            <g id="path1-42" transform="matrix(1,0,0,1,0,-8.202083)">
                <path d="M173.78,-64.499C170.517,-65.332 168.657,-66.503 167.794,-68.268C166.854,-70.189 165.737,-72.907 165.475,-73.909C161.617,-88.675 165.006,-99.569 175.5,-106.137L177.749,-107.545L177.66,-108.586C177.53,-110.102 177.323,-110.176 175.383,-109.399C173.332,-108.578 171.97,-108.518 170.853,-109.198C170.251,-109.565 169.707,-109.661 168.737,-109.571C166.296,-109.344 165.407,-110.249 164.587,-113.795C164.237,-115.31 163.848,-115.386 163.228,-114.06C160.836,-108.943 157.633,-106.427 157.073,-109.225C156.88,-110.193 156.808,-110.199 155.353,-109.367C153.872,-108.52 151.806,-108.457 150.827,-109.228C150.211,-109.712 150.131,-109.719 149.799,-109.318C148.782,-108.09 146.251,-107.575 145.47,-108.438C144.866,-109.105 144.494,-109.107 144.08,-108.444C142.683,-106.206 140.26,-106.44 138.879,-108.946C137.679,-111.123 137.358,-111.381 136.948,-110.495C135.026,-106.339 128.955,-104.447 126.245,-107.158C125.289,-108.114 125.129,-108.186 124.773,-107.83C124.375,-107.432 125.072,-98.515 125.75,-95.341C125.874,-94.758 126.056,-93.508 126.155,-92.562C126.255,-91.617 126.57,-89.473 126.856,-87.8C128.758,-76.694 128.626,-74.882 125.843,-73.934C119.47,-71.762 110.764,-79.431 109.113,-88.672C108.225,-93.64 111.39,-99.812 117.36,-104.754C121.315,-108.027 121.79,-108.479 121.79,-108.966C121.79,-109.864 121.386,-109.744 120.169,-108.486C116.698,-104.898 112.218,-104.672 111.583,-108.053C110.575,-113.428 117.021,-121.092 120.109,-118.19C120.679,-117.655 120.747,-117.647 121.374,-118.058C123.161,-119.229 123.74,-118.279 123.906,-113.901C124.048,-110.18 124.281,-109.69 124.98,-111.645C126.143,-114.893 130.481,-117.498 131.977,-115.845C132.67,-115.079 132.283,-114.43 129.751,-112.114C127.084,-109.675 126.973,-108.499 129.365,-108.02C131.657,-107.562 133.879,-109.219 135.69,-112.736L136.727,-114.751L136.239,-116.555C135.371,-119.769 135.019,-121.748 134.843,-124.414L134.67,-127.028L132.794,-126.869C128.507,-126.505 126.067,-126.156 125.155,-125.775C122.394,-124.621 117.858,-125.988 119.739,-127.407C120.163,-127.727 125.901,-128.491 129.33,-128.684C130.786,-128.766 132.564,-128.918 133.283,-129.021L134.59,-129.209L135.254,-131.435C136.793,-136.592 139.021,-136.923 141.151,-132.313C142.439,-129.526 142.895,-129.473 143.518,-132.04C144.357,-135.498 145.773,-137.051 147.149,-136.024C147.875,-135.483 148.125,-134.728 148.448,-132.118L148.645,-130.53L151.423,-130.398C155.711,-130.194 155.544,-128.781 151.191,-128.429C148.819,-128.237 148.777,-128.213 148.777,-127.07C148.777,-126.567 148.545,-125.056 148.261,-123.712C146.205,-113.986 145.896,-110.554 147.076,-110.554C147.878,-110.554 149.311,-113.309 150.048,-116.27C150.754,-119.105 150.778,-119.153 151.529,-119.153C152.859,-119.153 153.422,-118.065 153.05,-116.214C152.28,-112.377 152.821,-110.587 154.482,-111.474C155.952,-112.26 156.779,-113.755 157.035,-116.094C157.346,-118.92 158.305,-119.765 159.618,-118.367C160.168,-117.782 160.214,-117.549 160.065,-116.118C159.808,-113.659 160.408,-114.06 162.14,-117.504C164.391,-121.982 165.584,-121.492 166.812,-115.581C167.504,-112.251 167.761,-111.745 168.757,-111.745C169.539,-111.745 169.549,-111.764 169.75,-113.581C170.149,-117.194 172.845,-119.827 176.129,-119.81C177.355,-119.804 178.345,-118.789 178,-117.891C177.904,-117.64 178.135,-117.437 178.702,-117.274C180.289,-116.819 180.517,-116.14 180.291,-112.538C180.042,-108.559 179.82,-108.69 183.649,-110.56C187.276,-112.331 187.739,-112.422 188.355,-111.482C189.016,-110.474 188.789,-110.276 185.017,-108.57C179.668,-106.15 179.849,-106.561 180.516,-98.383C180.653,-96.71 180.83,-93 180.909,-90.139C180.989,-87.279 181.112,-84.778 181.183,-84.583C181.253,-84.388 181.445,-82.74 181.61,-80.921C181.775,-79.102 182.015,-76.78 182.144,-75.761C183.159,-67.73 182.656,-65.499 179.644,-64.672C177.33,-64.036 175.774,-63.99 173.78,-64.499L173.78,-64.499ZM179.572,-67.744C180.333,-68.573 180.336,-68.587 180.15,-70.978C179.905,-74.129 179.824,-74.877 179.627,-75.792C179.537,-76.212 179.349,-77.865 179.209,-79.466C179.069,-81.066 178.839,-83.626 178.698,-85.154C178.558,-86.682 178.374,-90.611 178.29,-93.885C177.993,-105.464 178.017,-105.385 175.473,-103.437C169.994,-99.241 166.852,-93.965 166.396,-88.197C166.014,-83.365 166.012,-82.265 166.38,-79.865C167.885,-70.077 170.821,-66.399 176.823,-66.784C178.634,-66.9 178.874,-66.984 179.572,-67.744L179.572,-67.744ZM125.613,-76.616C125.847,-77.226 125.544,-81.324 125.068,-83.983C124.858,-85.157 124.514,-87.419 124.304,-89.01C124.094,-90.6 123.675,-93.747 123.373,-96.002C123.072,-98.258 122.674,-101.297 122.491,-102.757C122.046,-106.295 122.076,-106.269 120.158,-104.811C110.167,-97.213 108.418,-87.297 115.808,-80.153C118.525,-77.526 125.058,-75.17 125.613,-76.616ZM116.441,-108.299C118.809,-109.542 120.192,-111.24 119.706,-112.307C119.542,-112.667 119.408,-113.486 119.408,-114.129C119.408,-117.031 115.774,-115.437 114.4,-111.933C113.067,-108.53 113.935,-106.984 116.441,-108.299ZM142.666,-111.114L143.555,-112.733L143.129,-114.885C142.487,-118.13 142.163,-120.664 142.163,-122.445C142.163,-124.363 141.787,-124.532 141.391,-122.791C140.774,-120.076 140.1,-117.966 139.557,-117.045C138.804,-115.77 138.835,-115.243 139.82,-112.486C141.113,-108.866 141.363,-108.746 142.666,-111.114ZM175.56,-112.29C176.796,-113.098 177.253,-113.822 177.428,-115.251C177.592,-116.585 177.396,-116.658 176.589,-115.566C175.911,-114.65 175.453,-114.661 175.231,-115.6C174.844,-117.24 172.325,-115.463 172.325,-113.55C172.325,-111.333 173.436,-110.9 175.56,-112.29ZM145.858,-120.97C147.047,-125.619 147.157,-128.017 146.181,-128.017C145.126,-128.017 144.876,-127.262 144.68,-123.475C144.386,-117.813 144.816,-116.898 145.858,-120.97ZM138.957,-120.72C139.643,-122.553 140.408,-126.322 140.203,-126.857C140.077,-127.184 139.813,-127.231 138.921,-127.084C137.169,-126.795 137.052,-126.605 137.226,-124.321C137.663,-118.571 137.939,-117.998 138.957,-120.72ZM139.668,-129.955C139.863,-130.464 139.332,-131.707 138.839,-131.896C138.285,-132.109 137.761,-131.532 137.538,-130.464L137.358,-129.604L138.446,-129.604C139.106,-129.604 139.586,-129.742 139.668,-129.955ZM146.312,-131.241C146.228,-131.452 146.165,-131.39 146.152,-131.081C146.141,-130.803 146.203,-130.646 146.291,-130.734C146.379,-130.822 146.388,-131.05 146.312,-131.241L146.312,-131.241ZM308.122,-83.682C305.837,-84.714 307.927,-89.156 310.506,-88.748C312.379,-88.451 313.467,-87.786 313.571,-86.874C313.848,-84.439 310.626,-82.551 308.122,-83.682ZM29.847,-84.29C28.892,-84.531 26.83,-86.49 25.711,-88.22C24.366,-90.3 24.369,-90.3 23.627,-88.264C22.994,-86.528 21.427,-84.759 20.254,-84.456C17.819,-83.828 14.126,-91.738 14.727,-96.293C15.188,-99.782 15.161,-99.706 15.969,-99.706C17.043,-99.706 17.138,-99.405 17.172,-95.87C17.223,-90.604 19.971,-84.572 20.81,-87.884C20.891,-88.202 21.269,-89.354 21.651,-90.446C22.287,-92.263 22.331,-92.653 22.175,-95.076C22.081,-96.531 21.982,-98.496 21.957,-99.442L21.909,-101.161L22.703,-101.226C24.129,-101.343 24.402,-100.861 24.968,-97.224C25.995,-90.625 29.819,-84.621 31.265,-87.337C33.265,-91.092 33.366,-103.459 31.455,-110.676C31.225,-111.543 31.038,-112.425 31.038,-112.635C31.038,-114.473 27.513,-118.904 25.135,-120.055C20.617,-122.242 18.473,-118.536 20.173,-111.48C20.637,-109.556 19.442,-109.499 18.646,-111.408C16.194,-117.283 18.294,-123.254 22.811,-123.254C27.744,-123.254 31.902,-118.347 33.31,-110.864C33.51,-109.797 33.791,-108.487 33.934,-107.953C34.077,-107.419 34.322,-105.619 34.478,-103.952C34.738,-101.178 34.871,-100.483 35.083,-100.787C35.126,-100.847 35.485,-101.404 35.882,-102.023C37.525,-104.588 39.047,-105.145 40.595,-103.746L41.687,-102.76L41.537,-100.97C41.354,-98.78 40.265,-96.222 39.142,-95.343L38.335,-94.711L38.853,-94.139C40.787,-92.002 42.541,-92.379 44.408,-95.332C45.601,-97.22 46.833,-96.35 45.953,-94.242C44.121,-89.858 39.912,-89.222 36.783,-92.855C35.414,-94.445 35.271,-94.456 35.271,-92.976C35.271,-91.655 34.66,-88.797 34.053,-87.281C33.614,-86.182 31.032,-83.916 30.46,-84.127C30.414,-84.143 30.138,-84.217 29.847,-84.29L29.847,-84.29ZM38.44,-99.034C39.106,-100.254 39.039,-100.837 38.303,-100.226C37.84,-99.842 37.123,-98.57 37.123,-98.132C37.123,-97.456 37.85,-97.955 38.44,-99.034ZM295.746,-94.162C295.652,-94.315 295.659,-95.962 295.762,-97.823C296.011,-102.328 295.886,-102.718 294.602,-101.465C292.732,-99.64 288.527,-98.983 286.815,-100.249C286.238,-100.675 285.837,-100.775 285.211,-100.647C280.551,-99.699 277.1,-100.945 277.1,-103.576C277.1,-103.707 276.848,-104.285 276.541,-104.859C276.016,-105.838 276.007,-105.953 276.4,-106.707C276.63,-107.15 277.062,-108.177 277.359,-108.989C278.503,-112.119 282.173,-113.323 283.96,-111.155C285.587,-109.182 284.651,-107.309 281.168,-105.569C277.963,-103.968 279.386,-101.94 283.571,-102.143L285.17,-102.22L285.17,-104.12C285.182,-108.738 292.885,-112.593 295.3,-109.189C296.166,-107.969 296.577,-108.893 296.919,-112.827C297.396,-118.324 300.883,-128.867 302.418,-129.456C305.066,-130.472 304.734,-122.991 301.826,-116.11C301.488,-115.31 300.891,-113.822 300.499,-112.803C300.107,-111.784 299.623,-110.632 299.424,-110.242C298.216,-107.881 297.651,-100.117 298.654,-99.66C299.751,-99.161 299.824,-97.801 298.881,-95.445C298.38,-94.192 296.258,-93.326 295.741,-94.162L295.746,-94.162ZM292.661,-102.257C293.341,-102.694 295.356,-105.669 295.356,-106.234C295.356,-108.359 289.526,-107.819 288.018,-105.554C286.22,-102.855 289.726,-100.365 292.661,-102.257ZM281.539,-109.188C281.674,-109.592 280.999,-109.585 280.593,-109.179C280.418,-109.004 280.275,-108.692 280.275,-108.485C280.275,-108.039 281.357,-108.641 281.539,-109.188L281.539,-109.188ZM312.19,-96.035C311.855,-97.715 311.928,-98.179 313.5,-104.337C314.534,-108.385 314.828,-109.649 315.469,-112.803C317.01,-120.396 317.651,-121.889 318.991,-121.011C319.83,-120.461 319.912,-119.322 319.296,-116.772C319.085,-115.899 318.911,-114.705 318.908,-114.119C318.908,-113.533 318.737,-112.815 318.533,-112.523C317.901,-111.622 316.594,-107.882 316.134,-105.659C315.892,-104.495 315.537,-103.007 315.345,-102.352C315.152,-101.697 314.734,-100.209 314.415,-99.045C313.415,-95.398 313.337,-95.208 312.831,-95.208C312.51,-95.208 312.302,-95.477 312.19,-96.035ZM61.86,-97.788C58.818,-100.798 59.924,-108.076 63.683,-109.783C65.621,-110.664 67,-110.297 67.619,-108.737L68,-107.776L68.205,-109.099C68.447,-110.656 68.729,-111.083 69.517,-111.083C70.902,-111.083 71.203,-110.326 71.186,-106.882C71.154,-100.402 74.312,-100.831 75.76,-107.503L76.045,-108.817L74.972,-109.707C73.56,-110.881 73.476,-112.17 74.721,-113.588C76.077,-115.132 78.398,-114.3 78.398,-112.269C78.398,-111.319 78.939,-111.174 79.518,-111.969C79.861,-112.439 80.274,-112.671 80.769,-112.671C82.013,-112.671 82.181,-112.178 82.209,-108.441C82.242,-104.054 82.903,-103.452 85.134,-105.781L85.847,-106.525L85.277,-107.777C83.641,-111.369 86.845,-116.852 89.896,-115.682C91.555,-115.045 91.331,-110.224 89.516,-107.512C88.459,-105.931 89.521,-105.386 91.861,-106.309C93.711,-107.038 94.008,-107.009 94.008,-106.097C94.008,-105.238 93.407,-104.591 92.366,-104.331C91.971,-104.233 91.51,-103.985 91.341,-103.781C90.905,-103.257 88.672,-103.309 87.7,-103.867C86.96,-104.292 86.872,-104.293 86.421,-103.885C83.274,-101.037 80.504,-101.878 79.557,-105.969C78.98,-108.461 78.966,-108.495 78.615,-108.378C78.444,-108.321 78.095,-107.406 77.84,-106.346C76.605,-101.206 73.168,-98.307 70.532,-100.184C69.495,-100.923 69.296,-100.913 68.759,-100.093C67.07,-97.517 63.38,-96.284 61.86,-97.788L61.86,-97.788ZM66.062,-100.188C67.684,-101.699 68.728,-104.943 68.079,-106.453C67.887,-106.9 67.849,-106.85 67.833,-106.14C67.772,-103.345 65.951,-103.088 65.487,-105.809C64.936,-109.033 62.364,-105.701 62.571,-102.032C62.734,-99.145 64.143,-98.401 66.062,-100.188ZM88.491,-110.876C88.673,-111.563 88.742,-112.205 88.643,-112.303C88.091,-112.856 86.871,-110.285 87.235,-109.336C87.505,-108.635 88.084,-109.345 88.491,-110.876ZM260.166,-103.371C259.104,-104.432 258.975,-105.548 259.578,-108.465C260.473,-112.798 259.245,-112.984 255.353,-109.105C252.326,-106.088 250.824,-105.269 248.312,-105.265L246.643,-105.262L246.131,-106.42C245.833,-107.094 245.604,-108.244 245.583,-109.172C245.54,-111.069 245.22,-111.748 244.741,-110.954C242.599,-107.401 237.406,-106.237 235.244,-108.826C234.745,-109.423 235.067,-109.523 232.182,-107.876C224.397,-103.431 222.218,-113.732 229.951,-118.424C231.391,-119.297 233.027,-119.221 234.351,-118.219C234.922,-117.787 235.664,-117.433 235.998,-117.433C237.111,-117.433 237.42,-116.515 237.092,-114.189C236.555,-110.391 237.628,-108.878 240.006,-110.08C241.888,-111.032 242.882,-112.617 242.302,-113.74C241.397,-115.489 242.328,-118.261 243.882,-118.445C244.827,-118.557 245.774,-117.679 245.998,-116.484L246.168,-115.579L247.186,-116.165C249.074,-117.252 250.063,-116.221 249.404,-113.851C247.734,-107.842 248.05,-106.833 251.016,-108.715C252.39,-109.586 255.14,-112.074 255.14,-112.447C255.14,-112.572 254.782,-113.168 254.346,-113.771C252.867,-115.812 253.478,-117.997 255.657,-118.464C258.493,-119.072 259.474,-118.388 259.329,-115.902C259.23,-114.193 259.607,-114.029 261.289,-115.052C263.647,-116.486 264.324,-114.648 262.945,-110.554C261.871,-107.365 261.702,-105.262 262.519,-105.262C264.131,-105.262 267.05,-108.557 267.405,-110.776C267.76,-112.991 269.231,-113.793 270.302,-112.353C270.825,-111.65 270.826,-111.613 270.353,-109.84C269.069,-105.03 270.22,-103.288 272.534,-106.539C274.056,-108.677 275.196,-108.914 274.841,-107.018C274.162,-103.401 269.567,-101.212 267.615,-103.576L266.769,-104.601L265.665,-103.968C264.564,-103.336 262.318,-102.625 261.404,-102.619C261.138,-102.617 260.581,-102.956 260.166,-103.37L260.166,-103.371ZM231.283,-110.038C233.727,-111.67 234.637,-113.722 233.582,-115.228C232.069,-117.388 227.606,-114.469 227.558,-111.288C227.519,-108.709 228.7,-108.312 231.283,-110.038ZM220.127,-107.33C219.574,-107.941 219.257,-108.962 218.765,-111.717C218.261,-114.54 218.115,-114.596 216.749,-112.491C214.73,-109.38 213.329,-108.173 211.738,-108.173C211.176,-108.173 210.586,-109.587 210.08,-112.142C209.642,-114.355 209.41,-114.307 208.423,-111.799C207.977,-110.664 207.426,-109.519 207.199,-109.254C206.62,-108.578 204.335,-108.253 203.942,-108.79C203.455,-109.457 202.939,-119.183 203.346,-120.035C203.806,-121 204.834,-121.094 205.632,-120.244C206.283,-119.551 206.296,-119.427 206.035,-116.441C205.814,-113.914 206.086,-114.017 207.582,-117.03C209.583,-121.058 211.991,-120.177 212.017,-115.408C212.022,-114.442 212.652,-112.325 212.964,-112.224C213.221,-112.141 216.069,-116.325 217.007,-118.163C217.58,-119.287 218.451,-119.776 219.3,-119.45C219.967,-119.194 220.405,-117.76 220.846,-114.391C221.538,-109.104 221.728,-108.539 222.964,-108.084C223.178,-108.006 223.178,-107.842 222.966,-107.479C222.543,-106.758 220.731,-106.663 220.127,-107.33L220.127,-107.33ZM274.173,-116.921C273.693,-117.401 273.635,-117.67 273.787,-118.716C274.127,-121.052 275.054,-121.149 276.679,-119.019C278.088,-117.171 278.069,-116.773 276.571,-116.769C275.916,-116.768 275.236,-116.674 275.059,-116.561C274.868,-116.439 274.509,-116.585 274.173,-116.921ZM155.644,-123.666C154.326,-125.254 155.746,-128.151 157.836,-128.143C160.131,-128.134 161.052,-126.785 160.135,-124.774C159.563,-123.518 156.412,-122.741 155.644,-123.666Z" style="fill-rule:nonzero;"/>
            </g>
        </g>
    </g>
</svg>
