<?xml version="1.0" encoding="UTF-8" standalone="no"?>
<!DOCTYPE svg PUBLIC "-//W3C//DTD SVG 1.1//EN" "http://www.w3.org/Graphics/SVG/1.1/DTD/svg11.dtd">
<svg width="100%" height="100%" viewBox="0 0 615 253" version="1.1" xmlns="http://www.w3.org/2000/svg" xmlns:xlink="http://www.w3.org/1999/xlink" xml:space="preserve" xmlns:serif="http://www.serif.com/" style="fill-rule:evenodd;clip-rule:evenodd;stroke-linejoin:round;stroke-miterlimit:2;">
    <g transform="matrix(1,0,0,1,-675.082549,-1131.944674)">
        <g transform="matrix(8.007111,0,0,8.007111,972.565437,4456.251167)">
            <g id="path1-81" transform="matrix(1,0,0,1,42.355986,0)">
                <path d="M-12.089,-383.677C-13.708,-384.045 -13.771,-387.336 -12.171,-387.95C-10.741,-388.499 -8.755,-387.354 -8.45,-385.807C-8.189,-384.484 -10.275,-383.263 -12.089,-383.677L-12.089,-383.677ZM-79.508,-389.858C-79.508,-394.761 -74.787,-405.432 -72.618,-405.432C-70.931,-405.432 -71.453,-402.32 -73.649,-399.281C-78.537,-392.516 -77.571,-388.93 -72.545,-395.184C-68.516,-400.198 -65.834,-400.913 -67.878,-396.428C-69.497,-392.874 -68.855,-391.934 -66.543,-394.476C-64.078,-397.186 -63.81,-399.818 -65.614,-403.601C-66.993,-406.492 -66.625,-407.339 -64.487,-406.194C-61.566,-404.631 -56.896,-406.539 -55.333,-409.934C-53.56,-413.786 -50.538,-416.103 -48.978,-414.808C-46.948,-413.123 -47.67,-410.723 -51.038,-407.963C-57.681,-402.519 -59.558,-391.989 -52.961,-397.172C-48.21,-400.905 -46.435,-400.926 -47.84,-397.232C-49.16,-393.759 -48.815,-391.635 -46.974,-391.898C-45.634,-392.089 -45.276,-392.734 -44.853,-395.723C-44.106,-400.997 -40.07,-404.213 -37.733,-401.397C-36.918,-400.416 -37.014,-399.796 -38.368,-397.326C-40.226,-393.933 -39.986,-393.269 -37.489,-394.905C-36.439,-395.593 -35.377,-397.27 -34.922,-398.958C-34.467,-400.649 -33.714,-401.836 -33.096,-401.836C-31.766,-401.836 -31.542,-399.688 -32.441,-395.544C-32.936,-393.263 -31.677,-393.534 -29.354,-396.21C-24.176,-402.176 -23.099,-402.19 -23.909,-396.279C-24.192,-394.218 -24.061,-393.206 -23.513,-393.206C-23.064,-393.206 -22.696,-392.721 -22.696,-392.128C-22.696,-390.631 -26.045,-390.734 -26.897,-392.258C-27.505,-393.343 -27.811,-393.266 -29.908,-391.502C-32.657,-389.189 -35.175,-389.225 -35.51,-391.581C-35.728,-393.117 -35.836,-393.143 -37.812,-392.121C-38.952,-391.531 -40.672,-391.049 -41.636,-391.049C-42.599,-391.049 -44.314,-390.566 -45.447,-389.975C-49.042,-388.1 -51.462,-389.592 -51.462,-393.684C-51.462,-394.464 -52.351,-394.009 -54.341,-392.211C-57.447,-389.405 -60.095,-388.786 -60.086,-390.869C-60.081,-392.245 -58.855,-400.528 -58.282,-403.059C-57.949,-404.535 -58.07,-404.59 -60.087,-403.887C-62.104,-403.184 -62.249,-402.891 -62.249,-399.513C-62.249,-393.236 -67.601,-387.723 -70.845,-390.659C-71.885,-391.6 -72.231,-391.483 -74.023,-389.584C-76.903,-386.533 -79.508,-386.663 -79.508,-389.858L-79.508,-389.858ZM-40.686,-398.463C-40.68,-398.783 -40.998,-398.844 -41.394,-398.6C-41.79,-398.356 -42.108,-397.608 -42.102,-396.939C-42.091,-395.652 -40.711,-397.136 -40.686,-398.463L-40.686,-398.463ZM-51.073,-410.514C-50.299,-411.766 -51.18,-412.031 -52.167,-410.843C-52.734,-410.159 -52.788,-409.747 -52.312,-409.747C-51.891,-409.747 -51.333,-410.092 -51.073,-410.514L-51.073,-410.514ZM-10.711,-392.967C-11.802,-394.058 -11.038,-396.651 -8.572,-400.231C-5.985,-403.988 -5.774,-406.583 -8.311,-403.454C-9.475,-402.018 -12.628,-401.149 -12.628,-402.264C-12.628,-403.681 -9.339,-406.895 -7.149,-407.618C-1.655,-409.431 -1.201,-405.466 -6.15,-398.88C-7.735,-396.77 -9.033,-394.468 -9.033,-393.765C-9.033,-392.471 -9.834,-392.09 -10.711,-392.967L-10.711,-392.967Z" style="fill-rule:nonzero;"/>
            </g>
        </g>
    </g>
</svg>
