<?xml version="1.0" encoding="UTF-8" standalone="no"?>
<!-- Created with Inkscape (http://www.inkscape.org/) -->

<svg
   width="285.75mm"
   height="285.75mm"
   viewBox="0 0 285.75 285.75"
   version="1.1"
   id="svg1"
   xml:space="preserve"
   xmlns="http://www.w3.org/2000/svg"
   xmlns:svg="http://www.w3.org/2000/svg"><defs
     id="defs1" /><g
     id="layer1"
     style="display:inline"
     transform="translate(-880.60768,-11.250003)">
    
<rect
   style="fill:#fdf1ed;fill-opacity:1;stroke-width:2.4939;stroke-linejoin:round;paint-order:stroke markers fill"
   id="rect6"
   width="269.34116"
   height="269.34116"
   x="888.81213"
   y="19.454418"
   rx="134.67058"
   ry="134.67058" /><path
   style="fill:#8c2b36;fill-opacity:1;stroke-width:0.83131;stroke-linejoin:round;stroke-dasharray:none;paint-order:stroke markers fill"
   d="m 978.49311,127.03275 c -1.95644,-0.30464 -3.70779,-0.73783 -6.50882,-1.60991 -1.31273,-0.4087 -3.58706,-1.03136 -5.0541,-1.3837 -3.072,-0.73779 -4.34482,-1.17711 -5.30108,-1.82966 -1.8042,-1.23122 -0.98703,-3.10803 1.65777,-3.80747 2.85617,-0.75531 9.21093,-0.24773 11.53238,0.92117 l 0.61128,0.30779 0.003,-1.10358 c 0.003,-1.77746 0.44966,-6.73213 0.80057,-8.89118 0.52713,-3.24307 1.18612,-4.9702 2.04593,-5.36194 0.34608,-0.15769 0.49555,-0.12109 1.03655,0.25383 2.48669,1.72327 3.59165,6.3757 3.16328,13.3189 -0.10175,1.64991 -0.31183,4.44854 -0.46672,6.21914 l -0.28165,3.21929 -0.90879,-0.0158 c -0.49985,-0.009 -1.54778,-0.1153 -2.32877,-0.2369 z"
   id="path7" /><path
   id="path1-6-5-3"
   style="display:inline;fill:#000000;stroke-width:1.34938;stroke-dasharray:none"
   d="m 1064.3191,58.076025 c -0.5534,-0.01748 -1.2818,0.07538 -2.2139,0.297821 -6.8138,6.655028 -12.0076,15.331265 -18.1391,22.825179 -12.1453,16.427212 -23.6188,33.345755 -35.6498,49.877515 -5.6086,8.0828 -9.89876,15.32857 -11.87338,17.7773 -20.63644,0.49554 -52.57098,5.15483 -68.8645,18.45988 -8.52897,6.80067 -8.24329,21.96654 2.7792,26.40955 6.80878,4.75501 24.8651,3.10496 32.8765,3.69097 -4.25662,6.16035 -5.7816,7.58417 -8.49307,11.40686 -7.44468,10.17734 -12.26388,20.62631 -22.15548,25.75309 -5.00736,5.67087 5.10791,5.20819 9.40355,0 2.66124,-3.20182 6.38476,-7.65295 8.16648,-10.41048 4.81415,-7.64824 14.40297,-20.47963 19.40823,-27.23165 6.03561,-1.15653 7.86083,-1.52595 16.32352,-4.11506 7.11438,-2.16011 16.23835,-7.21864 20.43345,-9.40583 4.4811,-2.33634 20.1228,-11.83607 22.5614,-11.49772 1.9863,0.85031 9.8408,22.92014 9.8408,22.92014 0,0 -27.101,12.95971 -32.4919,26.40956 -3.565,9.34521 2.2293,18.1805 10.3035,22.93132 7.5823,4.46153 13.4557,4.28446 22.1884,5.735 5.8806,0.97685 16.6988,-0.88326 23.4532,-3.10768 7.1729,-2.36222 13.3514,-6.88697 18.8194,-12.72504 7.0622,-7.54045 12.7598,-16.52015 10.2742,-30.99691 -1.152,-9.69275 -7.9723,-20.16388 -9.967,-23.81304 9.8052,-3.79773 15.3968,-5.84662 23.5419,-9.72605 7.4786,-3.56194 16.0176,-8.20099 19.2138,-11.70832 3.9564,-4.34145 -1.7683,-12.53398 -7.1363,-10.68226 -4.4424,1.53247 5.6778,3.35311 2.7925,8.49534 -2.3276,4.1483 -25.7013,13.59936 -41.0545,19.95918 -19.6512,-21.59896 -21.52,-16.86821 -7.2588,-26.24808 11.4952,-9.4202 15.7482,-16.06114 18.2145,-20.29895 4.2338,-8.23208 8.9856,-18.0486 5.7346,-27.18911 -4.2534,-11.959608 -16.6534,-5.755673 -23.9491,-0.71535 -7.0384,5.0798 -13.0666,13.61955 -16.1616,23.05458 -3.2319,9.85238 -3.3431,20.67129 -1.818,29.07724 0.7327,0 -4.0243,1.89755 -11.508,5.80225 -0.1755,-20.07138 0.2598,-40.43564 4.6027,-60.128313 2.0974,-9.387895 5.3135,-18.628193 10.9247,-26.823576 1.2332,-3.410854 12.2271,-13.890399 6.8779,-14.059356 z m -17.5866,25.823063 c -5.2149,17.965392 -7.7391,36.590532 -8.5901,55.260252 -0.1346,13.10545 0.5806,18.67309 0,21.6577 -3.4176,1.77919 -8.7288,4.04599 -8.7288,4.04599 0,0 -3.7109,-3.4417 -7.424,-5.97201 -12.8168,-7.86844 -16.3152,-8.6141 -19.8639,-9.53441 4.8061,-6.65855 7.7948,-12.45529 13.0826,-20.29895 5.3186,-7.88938 9.8794,-15.83283 15.7987,-23.58917 5.6983,-6.777173 9.5966,-15.645853 15.7255,-21.569402 z m 38.6033,15.666669 c 2.6561,0.0269 5.3688,3.059883 6.0717,7.089443 0.4691,2.68871 0.4006,7.14955 -1.2548,11.10646 -2.8763,6.87494 -7.5131,14.79186 -12.5661,20.66466 -5.1183,5.94886 -11.9179,9.71274 -19.2131,12.93042 -4.2981,-0.3627 -2.0022,-19.11012 -0.9432,-22.29908 1.9263,-9.2001 8.0768,-19.28929 15.4638,-24.34069 3.2776,-2.24122 8.0146,-5.196133 12.4417,-5.151213 z M 978.91807,101.9724 c -4.06341,0.1123 -7.19597,9.1397 -7.03612,13.47104 -3.83108,0.74807 -13.69933,-2.32229 -13.65584,5.22675 2.39288,11.99531 18.16672,5.70214 22.86616,12.46578 2.5784,1.89768 5.75075,-0.40305 5.30707,-3.94258 -1.22874,-2.82106 -0.62653,-0.44219 -1.22874,-2.82106 -1.70304,-6.72814 1.26878,-15.812 -2.6723,-22.09879 -0.7535,-1.202 -2.44249,-2.33259 -3.58023,-2.30114 z m 0,5.58699 c 4.55993,3.18395 2.35235,14.26225 2.1742,19.36233 -3.27166,0.0192 -6.66778,-1.02479 -9.85844,-2.0713 -2.78356,-0.91299 -8.12352,-1.28397 -8.0001,-3.63793 0.18309,-3.49309 10.94321,-2.16458 12.3654,-0.93573 0.0581,-0.1029 0.26295,-14.85121 3.31894,-12.71737 z m 14.38884,46.50838 c 0.69525,-0.58611 -6.3878,7.49793 -9.15934,12.78389 -6.50943,7.88033 -10.95591,18.50784 -17.08708,24.57047 -8.33825,0.63863 -18.69224,1.51656 -26.94796,-0.28912 -10.64572,-0.0605 -20.80132,-14.0395 -8.02654,-21.59226 2.8374,-2.34049 6.57661,-4.45326 10.72156,-5.88185 4.53162,-1.56184 7.90966,-3.06203 13.37313,-4.76788 10.12239,-3.16056 27.04875,-4.09931 37.12623,-4.82325 z m 6.13256,0 c 2.68623,0 6.83193,1.37549 9.51553,2.73209 3.046,1.06425 12.334,7.12825 16.0086,10.20919 -12.1258,8.32081 -24.9242,14.60101 -38.48566,20.15575 -4.24942,1.74056 -13.49215,3.85027 -13.55614,3.96821 4.50309,-7.11544 21.36897,-30.89331 26.51767,-37.06524 z m 50.50983,6.74927 c 2.6132,-1.14509 5.6422,-2.91026 6.2246,-2.05381 1.4921,2.19431 17.1497,18.93031 17.1497,18.93031 -0.2236,0.0827 -22.0048,9.49334 -26.9863,12.37719 l -2.3712,1.06228 -2.0523,-25.32073 c 0,0 5.4523,-3.72831 8.0355,-4.99524 z m -12.1399,7.3357 -0.3675,5.95464 c -1.6617,-1.3696 -2.5559,-2.6975 -3.1251,-3.97468 1.1387,-1.19715 3.4926,-1.97996 3.4926,-1.97996 z m 38.4079,13.31321 c 0,0 12.6359,17.29157 10.2051,30.08131 -3.0249,16.86152 -18.4307,28.80225 -34.4499,32.59791 -13.3801,1.95304 -28.2385,1.32702 -38.6042,-8.55902 -7.4314,-6.88197 -5.0294,-16.72951 7.7457,-25.79881 6.3728,-4.52426 18.4291,-10.80302 18.4291,-10.80302 0,0 3.3633,16.045 5.1148,22.62802 6.5837,3.0054 0.8879,-25.30702 0.8879,-25.30702 0,0 7.788,-4.72035 15.4505,-7.93872 5.9449,-3.00304 15.221,-6.90065 15.221,-6.90065 z" /></g></svg>
